<?xml version="1.0" standalone="no"?>
<!DOCTYPE svg PUBLIC "-//W3C//DTD SVG 1.1//EN" "http://www.w3.org/Graphics/SVG/1.1/DTD/svg11.dtd" >
<svg xmlns="http://www.w3.org/2000/svg" xmlns:xlink="http://www.w3.org/1999/xlink" version="1.1">
<metadata>
Created by FontForge 20170731 at Thu Nov 19 20:36:23 2020
 By Aleksey,,,
Copyright 2020 The Otomanopee Project Authors (https://github.com/Gutenberg-Labo), all rights reserved.
</metadata>
<defs>
<font id="OtomanopeeOne-Regular" horiz-adv-x="1000" vert-adv-y="1000" >
  <font-face 
    font-family="Otomanopee One"
    font-weight="400"
    font-stretch="normal"
    units-per-em="1000"
    panose-1="0 0 0 0 0 0 0 0 0 0"
    ascent="880"
    descent="-120"
    x-height="557"
    cap-height="757"
    bbox="-112 -232 1117 997"
    underline-thickness="50"
    underline-position="-175"
    unicode-range="U+000D-FFFD"
  />
<missing-glyph horiz-adv-x="500" 
d="M50 0v650h400v-650h-400zM100 195l300 300v105h-300v-405zM100 50h300v405l-300 -300v-105z" />
    <glyph glyph-name="fi" unicode="fi" horiz-adv-x="692" 
d="M105 -2q0 158 3 275t13 201h-85l-6 92h105q18 82 51 124.5t86.5 59t132.5 20.5l-4 -85q-47 0 -72.5 -24t-37.5 -95h119l-6 -92h-123q-3 -45 -4 -103t-1 -131q0 -64 1 -123t3 -115q-42 -1 -89 -2.5t-86 -1.5zM471 625v135h170v-135h-170zM475 -2q-1 33 -2 89.5t-1.5 130
t-1 157.5t-0.5 172q45 0 94.5 -1t77.5 -3q0 -73 -0.5 -153t-1 -155.5t-1.5 -136.5t-2 -96q-46 -2 -88 -3t-74 -1z" />
    <glyph glyph-name="fl" unicode="fl" horiz-adv-x="760" 
d="M105 -2q0 158 3 275t13 201h-85l-6 92h105q18 82 51 124.5t86.5 59t132.5 20.5l-4 -85q-47 0 -72.5 -24t-37.5 -95h119l-6 -92h-123q-3 -45 -4 -103t-1 -131q0 -64 1 -123t3 -115q-42 -1 -89 -2.5t-86 -1.5zM662 757q-2 -57 -3 -112t-1 -102q0 -158 9.5 -258.5t29.5 -154
t53 -70.5l-70 -80q-54 6 -90.5 35.5t-58.5 89t-31.5 154.5t-9.5 232q0 57 1.5 124.5t3.5 137.5q29 2 69 3t98 1z" />
    <glyph glyph-name=".notdef" horiz-adv-x="500" 
d="M50 0v650h400v-650h-400zM100 195l300 300v105h-300v-405zM100 50h300v405l-300 -300v-105z" />
    <glyph glyph-name=".null" horiz-adv-x="0" vert-adv-y="0" 
 />
    <glyph glyph-name="nonmarkingreturn" horiz-adv-x="333" 
 />
    <glyph glyph-name="NULL" horiz-adv-x="0" 
 />
    <glyph glyph-name="NULL" horiz-adv-x="0" 
 />
    <glyph glyph-name="CR" unicode="&#xd;" horiz-adv-x="400" 
 />
    <glyph glyph-name="space" unicode=" " horiz-adv-x="400" 
 />
    <glyph glyph-name="exclam" unicode="!" horiz-adv-x="278" 
d="M73 180q-11 146 -17 297t-6 314h178q0 -163 -5.5 -314t-16.5 -297h-133zM69 -30v124h140v-124h-140z" />
    <glyph glyph-name="quotedbl" unicode="&#x22;" horiz-adv-x="408" 
d="M340 561q-29 0 -55 0.5t-45 1.5q-1 47 -2 99t-1.5 99.5t-0.5 77.5q29 0 59.5 -1t62.5 -3q0 -86 -18 -274zM68 561q-18 188 -18 274q32 2 62.5 3t59.5 1q0 -30 -0.5 -77.5t-1 -99.5t-2.5 -99q-19 -1 -45 -1.5t-55 -0.5z" />
    <glyph glyph-name="numbersign" unicode="#" horiz-adv-x="620" 
d="M102 -5l4 116l-56 -18v95l60 19l8 220l-48 -15v95l52 17l6 161l145 25l-5 -140l100 32l5 138l145 25l-4 -116l56 18v-95l-60 -19l-8 -220l48 15v-95l-52 -17l-6 -161l-145 -25l5 140l-100 -32l-5 -138zM264 474l-8 -220l100 32l8 220z" />
    <glyph glyph-name="dollar" unicode="$" horiz-adv-x="682" 
d="M290 -35v46q-64 9 -129.5 36t-110.5 64l88 119q36 -39 75.5 -69t76.5 -48v188q-80 42 -127.5 79t-68.5 73.5t-21 78.5q0 54 28.5 99.5t77.5 76t111 40.5v47h100v-46q64 -9 130.5 -35.5t111.5 -64.5l-88 -119q-36 39 -76 69.5t-78 48.5v-188q80 -42 128 -79t69.5 -74
t21.5 -79q0 -54 -28.5 -99.5t-78.5 -76.5t-112 -40v-47h-100zM212 599q0 -21 17 -40t61 -45v156q-33 -5 -55.5 -24.5t-22.5 -46.5zM470 161q0 21 -17.5 40.5t-62.5 45.5v-157q34 4 57 24t23 47z" />
    <glyph glyph-name="percent" unicode="%" horiz-adv-x="760" 
d="M215 -15l-80 50l410 540l80 -50zM201 289q-66 0 -108.5 41t-42.5 105q0 62 41 99.5t108 37.5q65 0 106 -39.5t41 -104.5q0 -62 -40 -100.5t-105 -38.5zM203 343q15 0 24 21.5t9 55.5q0 43 -11.5 70.5t-30.5 27.5q-16 0 -25 -20t-9 -53q0 -42 12.5 -72t30.5 -30zM561 -12
q-65 0 -106 40t-41 104q0 62 40.5 100.5t104.5 38.5q66 0 108.5 -41t42.5 -105q0 -61 -41 -99t-108 -38zM566 42q16 0 25 20t9 53q0 42 -12.5 72t-30.5 30q-15 0 -24 -21t-9 -56q0 -43 11.5 -70.5t30.5 -27.5z" />
    <glyph glyph-name="ampersand" unicode="&#x26;" horiz-adv-x="762" 
d="M609 -8q-36 23 -72.5 51t-72.5 59q-57 -48 -116.5 -75t-115.5 -27q-52 0 -93 22.5t-65 62t-24 89.5q0 35 14 68t46 70.5t86 85.5q-44 64 -70 120t-26 94q0 42 29 77.5t76.5 57t103.5 21.5q53 0 93.5 -18.5t64 -51.5t23.5 -75q0 -40 -25.5 -83.5t-89.5 -108.5
q65 -66 142 -131q34 57 70 134l87 -54q-37 -74 -83 -139q40 -31 80.5 -59t80.5 -51zM230 645q0 -23 21.5 -60t58.5 -81q29 33 41.5 60.5t12.5 55.5q0 38 -18 61t-48 23q-27 0 -47.5 -17.5t-20.5 -41.5zM211 215q0 -39 29.5 -66t71.5 -27q46 0 91 36q-77 75 -143 156
q-27 -32 -38 -55t-11 -44z" />
    <glyph glyph-name="quotesingle" unicode="'" horiz-adv-x="227" 
d="M63 561q-4 40 -7 88t-4.5 96.5t-1.5 89.5q38 2 67.5 3t59.5 1q0 -37 -3.5 -111.5t-10.5 -164.5q-42 -1 -64.5 -1.5t-35.5 -0.5z" />
    <glyph glyph-name="parenleft" unicode="(" horiz-adv-x="524" 
d="M347 -57q-59 47 -103.5 115t-69 148t-24.5 163q0 90 29 173.5t82.5 154t128.5 120.5l57 -55q-79 -79 -116 -156t-37 -166q0 -103 46 -185.5t134 -135.5q-22 -35 -52.5 -77.5t-74.5 -98.5z" />
    <glyph glyph-name="parenright" unicode=")" horiz-adv-x="524" 
d="M134 -57l-57 55q80 79 116.5 156t36.5 166q0 103 -46 185.5t-134 135.5q22 35 53 78t74 98q60 -46 104 -114.5t68.5 -148.5t24.5 -163q0 -89 -29 -172.5t-82.5 -154t-128.5 -121.5z" />
    <glyph glyph-name="asterisk" unicode="*" horiz-adv-x="567" 
d="M225 208q11 29 17 57.5t9 57.5q-54 -37 -90 -81l-61 102q26 5 55.5 13t61.5 21q-31 14 -60 23.5t-56 14.5l62 102q33 -42 88 -85q-6 62 -26 119h119q-10 -28 -17 -57.5t-12 -59.5q27 20 50 40.5t40 42.5l62 -101q-60 -10 -120 -39q63 -25 120 -34l-61 -102q-37 43 -91 81
q5 -29 12 -57.5t17 -57.5h-119z" />
    <glyph glyph-name="plus" unicode="+" horiz-adv-x="500" 
d="M170 185v150h-120v90h120v150h160v-150h120v-90h-120v-150h-160z" />
    <glyph glyph-name="comma" unicode="," horiz-adv-x="340" 
d="M142 -76l-43 41l54 58q-18 26 -43 54t-60 59q26 28 58 55.5t59 46.5q35 -45 66 -91t57 -93q-34 -28 -73 -62t-75 -68z" />
    <glyph glyph-name="hyphen" unicode="-" horiz-adv-x="450" 
d="M50 335v90h350v-90h-350z" />
    <glyph glyph-name="period" unicode="." horiz-adv-x="265" 
d="M63 25l-13 162q30 3 75 5t90 2q0 -34 -0.5 -69t-1 -60.5t-1.5 -33.5q-34 0 -75 -1.5t-74 -4.5z" />
    <glyph glyph-name="slash" unicode="/" horiz-adv-x="540" 
d="M130 -25l-100 30l380 780l100 -30z" />
    <glyph glyph-name="zero" unicode="0" horiz-adv-x="640" 
d="M307 -5q-81 0 -143.5 47.5t-98 131t-35.5 191.5q0 86 22.5 159t63.5 127t96 84t120 30q82 0 144.5 -47t98 -130t35.5 -192q0 -86 -23 -159t-64 -127.5t-96 -84.5t-120 -30zM350 79q30 0 53.5 30.5t37.5 83.5t14 120q0 70 -14.5 135.5t-38.5 118t-54.5 83.5t-62.5 31
q-45 0 -72.5 -61.5t-27.5 -161.5q0 -72 14 -139.5t37.5 -121.5t53 -86t60.5 -32z" />
    <glyph glyph-name="one" unicode="1" horiz-adv-x="400" 
d="M330 0h-197q1 28 2 79t1.5 116.5t1 137.5t1 143t0.5 132l-119 4l-10 59q98 29 174 54t139 50q1 -31 2 -85t1.5 -122.5t1.5 -145t1.5 -153t0.5 -146v-123.5z" />
    <glyph glyph-name="two" unicode="2" horiz-adv-x="610" 
d="M575 -10l-534 19l-13 81q77 59 142 125t113.5 132t75 125.5t26.5 105.5q0 47 -25.5 77t-64.5 30q-44 0 -92 -40.5t-94 -117.5l-99 109q47 60 123 94.5t161 34.5q80 0 142 -29.5t98 -81.5t36 -118q0 -93 -80.5 -200t-253.5 -244l344 23z" />
    <glyph glyph-name="three" unicode="3" horiz-adv-x="650" 
d="M317 -5q-91 0 -169.5 34.5t-137.5 99.5q13 18 31.5 42.5t39.5 49t38 43.5q78 -95 139 -139.5t113 -44.5q45 0 74 29t29 74q0 68 -71.5 110t-199.5 49l42 148q185 0 185 89q0 29 -16.5 53.5t-43 40t-57.5 15.5q-43 0 -84 -34.5t-91 -114.5l-103 106q38 37 89.5 63.5
t110.5 41.5t118 15q70 0 124.5 -20.5t86 -56t31.5 -81.5q0 -39 -22.5 -74t-60.5 -59.5t-87 -33.5q55 -12 99 -45.5t70 -80t26 -97.5q0 -63 -39.5 -113.5t-108 -79.5t-155.5 -29z" />
    <glyph glyph-name="four" unicode="4" horiz-adv-x="640" 
d="M372 -2q-2 47 -2.5 105.5t-1.5 114.5q-98 1 -185.5 3t-152.5 5q0 43 1 104t3 133t5 148t6 149q43 0 95 -2.5t89 -7.5q-6 -51 -12 -112.5t-11.5 -125t-9.5 -120.5t-6 -99q44 0 89 0.5t89 2.5v18q0 75 1 153.5t2.5 153t3.5 136.5q64 0 107.5 -1t68.5 -3q-3 -54 -6.5 -129
t-7.5 -158t-7 -163q57 4 96 8l4 -95h-103q-3 -75 -4.5 -132t-1.5 -82q-17 -1 -44 -2t-55.5 -1.5t-49.5 -0.5z" />
    <glyph glyph-name="five" unicode="5" horiz-adv-x="640" 
d="M302 1q-67 0 -137 22.5t-135 63.5q61 89 102 130q72 -71 123 -100.5t101 -29.5t78.5 24t28.5 67q0 57 -47 98t-134.5 63t-209.5 22q0 54 -1.5 120t-4.5 136t-8 136l532 22l-12 -106l-331 15q0 -36 -1 -77.5t-2 -79.5t-3 -62q179 -10 274 -67t95 -155q0 -50 -24 -94
t-66.5 -77t-98 -52t-119.5 -19z" />
    <glyph glyph-name="six" unicode="6" horiz-adv-x="670" 
d="M337 -5q-90 0 -159.5 45.5t-108.5 126t-39 185.5q0 89 28 164.5t78.5 131t118.5 86.5t148 31q63 0 120 -19.5t97 -55.5q-18 -23 -49 -54.5t-60 -54.5q-35 38 -61.5 59.5t-50 30.5t-50.5 9q-72 0 -111 -55.5t-43 -161.5q45 19 94 29.5t94 10.5q76 0 133.5 -29.5t90.5 -81
t33 -119.5q0 -57 -23.5 -107.5t-65.5 -89t-96.5 -60t-117.5 -21.5zM310 408q-62 0 -111 -35q9 -82 35.5 -148.5t64.5 -105.5t82 -39q32 0 59 20t43.5 53.5t16.5 71.5q0 49 -26.5 90.5t-69.5 67t-94 25.5z" />
    <glyph glyph-name="seven" unicode="7" horiz-adv-x="640" 
d="M41 441q0 38 -1.5 95t-4 122.5t-5.5 126.5q29 5 81 7.5t103 2.5q-1 -17 -2 -38q130 0 222.5 -1t155.5 -3q-3 -66 -10 -158t-17 -196.5t-21.5 -208.5t-23.5 -194q-52 0 -102.5 2t-83.5 6q54 273 102 686q-45 0 -107.5 -4.5t-117.5 -11.5q-3 -60 -4.5 -121.5t-1.5 -103.5
q-29 -4 -73 -6t-89 -2z" />
    <glyph glyph-name="eight" unicode="8" horiz-adv-x="670" 
d="M324 -5q-60 0 -113 14.5t-93.5 40.5t-64 59.5t-23.5 71.5q0 31 19.5 61.5t64.5 65.5t123 81q-66 45 -105 79t-55.5 62.5t-16.5 56.5q0 49 39 89t103.5 64.5t142.5 24.5q76 0 138.5 -22.5t99.5 -60.5t37 -85q0 -41 -35 -80t-122 -92q96 -61 136.5 -110.5t40.5 -101.5
q0 -45 -25 -84t-68.5 -69.5t-100.5 -47.5t-122 -17zM217 617q0 -18 14.5 -36.5t50 -43.5t98.5 -62q44 31 63.5 54.5t19.5 45.5q0 26 -22 49t-57.5 37t-75.5 14q-41 0 -66 -16t-25 -42zM363 85q49 0 77.5 21t28.5 57q0 35 -34.5 74t-120.5 99q-63 -40 -88 -70t-25 -61
q0 -33 22 -60t59 -43.5t81 -16.5z" />
    <glyph glyph-name="nine" unicode="9" horiz-adv-x="670" 
d="M289 -5q-36 0 -77.5 6t-81 16t-70.5 23q18 55 48 106q128 -66 195 -66q69 0 113 57.5t55 158.5q-44 -19 -93 -29t-95 -10q-76 0 -133 28t-88.5 78.5t-31.5 117.5q0 58 23 109.5t63.5 90.5t94 61.5t114.5 22.5q68 0 125.5 -28.5t100 -80t66 -121t23.5 -151.5
q0 -114 -45 -201.5t-124 -137.5t-182 -50zM170 541q0 -36 16.5 -69.5t44.5 -60.5t62.5 -43t71.5 -16q60 0 109 37q-3 86 -26 151.5t-61 102.5t-86 37q-35 0 -65 -19t-48 -50.5t-18 -69.5z" />
    <glyph glyph-name="colon" unicode=":" horiz-adv-x="274" 
d="M68 542q-9 103 -16 176q33 5 80.5 8.5t84.5 3.5q3 -69 4 -107.5t1 -67.5q-34 -1 -70.5 -4.5t-83.5 -8.5zM201 30q-41 4 -82 6.5t-69 2.5q4 42 7 89.5t4 87.5q42 0 85.5 -3.5t77.5 -9.5q-5 -52 -10.5 -93.5t-12.5 -79.5z" />
    <glyph glyph-name="semicolon" unicode=";" horiz-adv-x="340" 
d="M68 542q-4 47 -7.5 90.5t-8.5 85.5q34 5 81.5 8.5t83.5 3.5q2 -55 3.5 -97.5t1.5 -77.5q-43 -2 -81 -5.5t-73 -7.5zM142 -26l-43 41l54 58q-18 26 -43 54t-60 59q26 28 58 55.5t59 46.5q35 -45 66 -91t57 -93q-34 -28 -73 -62t-75 -68z" />
    <glyph glyph-name="less" unicode="&#x3c;" horiz-adv-x="485" 
d="M324 112l-274 261l316 275l54 -50l-188 -190l203 -168z" />
    <glyph glyph-name="equal" unicode="=" horiz-adv-x="500" 
d="M50 430v90h400v-90h-400zM50 240v90h400v-90h-400z" />
    <glyph glyph-name="greater" unicode="&#x3e;" horiz-adv-x="485" 
d="M119 112l-54 50l188 190l-203 168l111 128l274 -261z" />
    <glyph glyph-name="question" unicode="?" horiz-adv-x="550" 
d="M217 179q4 71 22 129t47 107q25 41 39 86.5t14 94.5q0 55 -15 86.5t-41 31.5q-34 0 -54 -58t-24 -148l-155 11q0 125 62 198t171 73q101 0 159 -63t58 -171t-69 -190q-67 -81 -81 -187h-133zM213 -31v124h140v-124h-140z" />
    <glyph glyph-name="at" unicode="@" horiz-adv-x="900" 
d="M434 -1q-114 0 -200.5 46t-135 128t-48.5 190q0 87 31 159.5t87.5 126t132.5 83t167 29.5q83 0 153 -24.5t121.5 -69t79.5 -105t28 -132.5t-27 -132.5t-72 -97t-99 -36.5q-24 0 -50 7t-48 19t-33 26q-39 -54 -100 -54q-46 0 -85.5 29t-63.5 76t-24 101q0 73 45 128.5
t123.5 87t181.5 31.5q0 -94 2 -176.5t5.5 -141.5t7.5 -85q63 0 97 46.5t34 132.5q0 93 -37.5 163.5t-104.5 110t-155 39.5q-86 0 -151.5 -38t-102.5 -104.5t-37 -154.5q0 -72 25 -135.5t69 -112t101.5 -76t122.5 -27.5q46 0 89.5 15t93.5 49l31 -47q-40 -34 -109 -54
t-145 -20zM438 238q27 0 39.5 72t12.5 229q-55 -3 -90.5 -43.5t-35.5 -102.5q0 -35 11.5 -71t28.5 -60t34 -24z" />
    <glyph glyph-name="A" unicode="A" horiz-adv-x="750" 
d="M289 156q-26 0 -53.5 0.5t-56.5 2.5q-22 -78 -44 -163l-120 8q56 189 125 381.5t147 374.5q37 4 82.5 7t93.5 3q61 -148 130 -342t142 -418q-58 -10 -109.5 -15t-104.5 -5q-21 84 -47 177q-89 -11 -185 -11zM328 653q-21 -57 -52.5 -158t-69.5 -237q40 -5 82.5 -7
t91.5 -2q18 0 36.5 0.5t34.5 0.5q-22 80 -44.5 155.5t-42.5 139t-36 108.5z" />
    <glyph glyph-name="B" unicode="B" horiz-adv-x="624" 
d="M202 -5q-31 0 -68 2.5t-75 7.5q-1 23 -2 72.5t-2 116t-2 141.5t-1.5 151t-1 145t-0.5 121q54 6 103.5 9.5t91.5 3.5q150 0 233 -45t83 -128q0 -106 -144 -165q85 -23 136 -77t51 -122q0 -67 -51.5 -120t-142 -83t-208.5 -30zM207 692q0 -145 2 -267q56 9 98.5 29.5
t67 49.5t24.5 61q0 35 -26.5 63.5t-70 46t-95.5 17.5zM225 66q54 0 100 17t74 45.5t28 64.5q0 39 -30.5 76.5t-80 64.5t-105.5 34q4 -178 14 -302z" />
    <glyph glyph-name="C" unicode="C" horiz-adv-x="690" 
d="M378 -5q-106 0 -186.5 46t-126 128t-45.5 190q0 86 29 160t80.5 129t121.5 86t151 31q85 0 159.5 -33.5t118.5 -90.5q-73 -85 -136 -119q-77 151 -185 151q-73 0 -117.5 -61t-44.5 -164q0 -67 18.5 -131.5t50 -116.5t71 -82.5t80.5 -30.5q30 0 62 15.5t60.5 43t47.5 61.5
l93 -73q-122 -139 -302 -139z" />
    <glyph glyph-name="D" unicode="D" horiz-adv-x="690" 
d="M172 -5q-29 0 -60.5 1.5t-61.5 3.5q0 109 0.5 219t1 211t2 184.5t3.5 140.5q39 5 76 7.5t72 2.5q230 0 347.5 -94.5t117.5 -278.5q0 -194 -128.5 -295.5t-369.5 -101.5zM227 78q95 0 153.5 27.5t85.5 87.5t27 159q0 157 -63.5 238t-196.5 94q-1 -27 -2 -81.5t-1.5 -124
t-1 -143.5t-1 -141.5t-0.5 -115.5z" />
    <glyph glyph-name="E" unicode="E" horiz-adv-x="637" 
d="M602 -5q-35 3 -111.5 5.5t-183 3.5t-231.5 1q-2 28 -4.5 85.5t-5.5 131.5t-6 154t-5 154.5t-3.5 132.5t-1.5 87q44 0 101.5 0.5t120.5 1.5t125 2.5t115.5 3t90.5 2.5l4 -107l-357 12v-119.5t1 -118.5l336 11l-4 -110l-331 14q1 -71 2 -135t3 -116l349 12z" />
    <glyph glyph-name="F" unicode="F" horiz-adv-x="610" 
d="M250 -5l-200 7q0 40 0.5 104t1 140t1.5 155t2 149.5t2 123.5t2 76q68 0 144 1t148.5 2.5t132.5 3t96 3.5l-4 -98l-338 14q4 -107 6 -212l321 10l-7 -108l-312 18q4 -202 4 -389z" />
    <glyph glyph-name="G" unicode="G" horiz-adv-x="748" 
d="M363 -5q-100 0 -177.5 47t-121.5 130t-44 191q0 88 29.5 161.5t83.5 127.5t127.5 83.5t161.5 29.5q89 0 163.5 -30t114.5 -81q-66 -75 -133 -120q-70 144 -194 144q-83 0 -130 -64.5t-47 -180.5q0 -72 17.5 -135t47.5 -111.5t69.5 -76t84.5 -27.5q34 0 59.5 14.5
t29.5 36.5q-1 22 -3.5 54.5t-6 68.5t-6.5 70q-85 2 -125 5l-3 76q105 0 200.5 2t167.5 6l-3 -92h-66q3 -43 4.5 -100.5t1.5 -113.5q-37 -35 -87 -61t-105 -40t-110 -14z" />
    <glyph glyph-name="H" unicode="H" horiz-adv-x="740" 
d="M50 -2q0 105 0.5 212t1 207t2 186.5t3.5 152.5q58 0 98.5 -1t72.5 -3q0 -173 2 -328q136 1 275 10v154v164q87 6 176 6q3 -83 5 -181.5t2.5 -201.5t1 -200t0.5 -177q-52 0 -98.5 1t-92.5 3q2 54 3 138.5t2 189.5q-93 0 -158.5 1.5t-114.5 4.5q3 -185 9 -334
q-44 -2 -90 -3t-100 -1z" />
    <glyph glyph-name="I" unicode="I" horiz-adv-x="360" 
d="M70 -1q12 243 12 494q0 42 -0.5 92.5t-1 95.5t-1.5 72q12 2 40.5 3t62.5 1q27 0 53.5 -1t45.5 -3q-2 -62 -3 -124t-1.5 -117.5t-0.5 -96.5q0 -136 3.5 -236t10.5 -177q-54 -2 -109.5 -2.5t-110.5 -0.5z" />
    <glyph glyph-name="J" unicode="J" horiz-adv-x="586" 
d="M269 -5q-141 0 -259 59l21 78q86 -30 128.5 -41.5t67.5 -11.5q31 0 52.5 17.5t34.5 61t18.5 121.5t5.5 199q0 65 -1.5 134.5t-3.5 139.5q101 6 201 6q1 -14 1 -43.5t0.5 -65t0.5 -67.5q0 -178 -12.5 -293t-42.5 -179t-82 -89.5t-130 -25.5z" />
    <glyph glyph-name="K" unicode="K" horiz-adv-x="710" 
d="M50 -4v103t0.5 141t0.5 157t0.5 153t1.5 128t2 81l180 -6q-3 -80 -4.5 -180.5t-2.5 -204.5q78 88 152 187t150 215l136 -30q-88 -119 -202 -243q39 -68 80 -148.5t79.5 -166t71.5 -169.5q-53 -9 -105 -13.5t-108 -4.5q-16 52 -38.5 114.5t-49.5 128.5t-55 129
q-54 -54 -112 -108q-1 -70 -1 -135v-122z" />
    <glyph glyph-name="L" unicode="L" horiz-adv-x="640" 
d="M625 -5q-23 1 -76 2t-128.5 1.5t-166 1t-187.5 0.5q-9 206 -13 392t-4 362q23 1 80 1.5t128 0.5q0 -73 -0.5 -161t-2 -180t-3 -179.5t-4.5 -161.5q104 0 202 2.5t172 6.5z" />
    <glyph glyph-name="M" unicode="M" horiz-adv-x="900" 
d="M75 759q56 6 103.5 9.5t88.5 3.5q23 -75 53 -157t63.5 -165t68.5 -160q52 112 99.5 230t93.5 251q54 0 107 -3t90 -8q0 -55 0.5 -130.5t1 -162t1.5 -172.5t2 -162t3 -131q-23 -1 -56 -2t-69 -1.5t-67 -0.5q4 101 6 202.5t3.5 197.5t1.5 178q-42 -118 -86.5 -225
t-94.5 -211l-154 -9q-57 124 -106 237.5t-87 211.5l22 -582l-113 4q3 53 6 121t5.5 143t5 149.5t4.5 142t3 120t1 81.5z" />
    <glyph glyph-name="N" unicode="N" horiz-adv-x="760" 
d="M50 3q0 45 1 109.5t2.5 139t3.5 151t4.5 146t4.5 123t4 81.5q26 2 73.5 3t118.5 1q82 -121 171.5 -257.5t182.5 -291.5l-22 550q26 0 56.5 -1.5t59.5 -3.5q0 -84 -1 -179.5t-2 -189.5t-3 -174.5t-3.5 -135.5t-3.5 -72q-21 -1 -56.5 -2t-71.5 -1.5t-59 -0.5
q-79 129 -175.5 272t-194.5 284l26 -557q-56 0 -116 6z" />
    <glyph glyph-name="O" unicode="O" horiz-adv-x="760" 
d="M380 -5q-78 0 -143.5 28.5t-114 80.5t-75.5 122.5t-27 153.5t27 153.5t75.5 122.5t114 80.5t143.5 28.5t144 -28.5t114.5 -80.5t75 -122.5t26.5 -153.5t-26.5 -153.5t-75 -122.5t-114.5 -80.5t-144 -28.5zM401 79q49 0 85 33t56 93t20 140q0 95 -27 171t-73 120.5
t-103 44.5q-48 0 -84.5 -33t-56.5 -93t-20 -140q0 -94 27 -170.5t73 -121t103 -44.5z" />
    <glyph glyph-name="P" unicode="P" horiz-adv-x="650" 
d="M55 -2q0 138 -0.5 259.5t-1 220.5t-1.5 169t-2 103q59 8 107.5 12t91.5 4q118 0 203.5 -28.5t131.5 -82t46 -127.5q0 -78 -50.5 -140t-140 -99t-206.5 -41q1 -62 1.5 -124t0.5 -122q-34 -2 -77.5 -3t-102.5 -1zM219 687q4 -55 7.5 -150t5.5 -208q213 29 213 178
q0 83 -61 131.5t-165 48.5z" />
    <glyph glyph-name="Q" unicode="Q" horiz-adv-x="760" 
d="M380 -5q-78 0 -143.5 28.5t-114 80.5t-75.5 122.5t-27 153.5t27 153.5t75.5 122.5t114 80.5t143.5 28.5t144 -28.5t114.5 -80.5t75 -122.5t26.5 -153.5q0 -73 -21 -136.5t-58 -112.5q44 -53 69 -118q-23 -13 -55.5 -26t-66 -23.5t-61.5 -16.5q-13 43 -25 76
q-66 -28 -142 -28zM198 415q0 -69 15 -129t41 -105q72 78 168 78q63 0 126 -34q14 54 14 120q0 95 -27 171t-73 120.5t-103 44.5q-48 0 -84.5 -33t-56.5 -93t-20 -140zM401 79q45 0 80 29q-37 57 -86 57t-83 -53q42 -33 89 -33z" />
    <glyph glyph-name="R" unicode="R" horiz-adv-x="665" 
d="M447 -11q-54 136 -110 228.5t-106 131.5q2 -84 3 -174t1 -177q-45 0 -94.5 1.5t-85.5 2.5v177t-0.5 181.5t-1.5 167.5t-1.5 136t-1.5 86q51 8 101.5 11.5t94.5 3.5q112 0 196 -23.5t131 -67t47 -105.5q0 -45 -24.5 -86t-66.5 -71t-95 -42q16 -19 40 -53.5t50.5 -77
t51.5 -85.5t45 -80.5t29 -60.5q-16 -3 -43.5 -7t-58 -7.5t-58 -6t-43.5 -3.5zM219 687q3 -45 6 -123t6 -174q99 4 156.5 41.5t57.5 99.5q0 45 -29.5 80.5t-80.5 55.5t-116 20z" />
    <glyph glyph-name="S" unicode="S" horiz-adv-x="650" 
d="M328 -5q-55 0 -113.5 15t-111 41.5t-88.5 60.5q23 33 51 66.5t62 66.5q39 -42 86 -77.5t94.5 -57.5t87.5 -22q36 0 64.5 19.5t28.5 56.5q0 35 -27 62.5t-70.5 51t-92.5 46.5q-43 20 -85 42t-76.5 48t-55 58.5t-20.5 73.5t21.5 80t60.5 70.5t92.5 50t117.5 18.5
q73 0 147.5 -25t129.5 -72q-18 -34 -48.5 -67t-59.5 -56q-61 58 -121 97.5t-113 39.5q-39 0 -58.5 -19.5t-19.5 -41.5q0 -24 22 -44t58 -39t79 -39q45 -21 91.5 -45t86 -54.5t63.5 -69.5t24 -89t-24.5 -94.5t-67 -78.5t-98 -53.5t-117.5 -19.5z" />
    <glyph glyph-name="T" unicode="T" horiz-adv-x="770" 
d="M486 -2q-25 0 -61.5 0.5t-74 1.5t-65.5 2q0 45 0.5 110.5t1 141l1 151t1.5 142t2 113.5q-75 -1 -146 -1.5t-130 -0.5l4 100q64 0 138 -0.5t151 -1t149.5 -1t133.5 -1t103.5 -1t57.5 -1.5l3 -84q-55 -2 -126 -3.5t-149 -2.5q1 -45 2 -108t1.5 -136.5t1 -148.5t1 -145
t0.5 -126z" />
    <glyph glyph-name="U" unicode="U" horiz-adv-x="733" 
d="M372 -5q-95 0 -160.5 33.5t-105.5 107.5t-58 195.5t-18 297.5q0 40 1 73t2 55q65 0 114.5 -1t84.5 -3q-3 -91 -3 -169q0 -180 18 -286.5t59 -152.5t110 -46q64 0 101.5 38.5t54 127t16.5 237.5q0 47 -1.5 105.5t-5.5 146.5l119 4q2 -29 2.5 -66.5t0.5 -77.5
q0 -174 -17 -292.5t-55.5 -190.5t-102 -104t-156.5 -32z" />
    <glyph glyph-name="V" unicode="V" horiz-adv-x="750" 
d="M287 -10q-63 155 -132.5 350.5t-139.5 409.5q61 11 112.5 15.5t101.5 4.5q23 -90 48.5 -185t52 -185t50.5 -166t42 -127q22 60 53 161t67 229t73 269l120 -8q-55 -191 -124.5 -384.5t-147.5 -373.5z" />
    <glyph glyph-name="W" unicode="W" horiz-adv-x="900" 
d="M340 -8l-175 6q-46 170 -84.5 363t-65.5 389q111 20 211 20q8 -84 17.5 -170t19.5 -166t20 -148.5t19 -118.5q44 195 71.5 347.5t34.5 235.5q42 5 83 7.5t75 2.5q8 -51 23 -126t41 -188t66 -279q16 81 29.5 166.5t24.5 166.5t18 150t9 116l108 -8q-18 -129 -42 -261.5
t-51.5 -259.5t-56.5 -239l-146 -6q-32 117 -61.5 236t-55.5 226q-27 -107 -60 -222.5t-72 -239.5z" />
    <glyph glyph-name="X" unicode="X" horiz-adv-x="730" 
d="M151 -5l-116 10q104 161 241 356q-131 201 -261 387q33 4 72.5 7t77 5t65.5 2q39 -54 80 -114t83 -123q82 114 172 235l110 -10q-121 -165 -225 -313q70 -107 137.5 -217.5t127.5 -213.5q-45 -5 -100 -8.5t-105 -3.5q-41 66 -85 136t-90 141q-102 -149 -184 -276z" />
    <glyph glyph-name="Y" unicode="Y" horiz-adv-x="770" 
d="M488 -2q-33 0 -71 0.5t-72.5 1.5t-58.5 2q0 48 1 107.5t3 120t4 110.5q-55 72 -109 146.5t-98.5 139.5t-71.5 108q29 10 83.5 19.5t118.5 16.5q34 -67 89.5 -158t125.5 -195q57 84 110.5 172t100.5 178l112 -24q-33 -55 -78.5 -122t-97 -138.5t-102.5 -138.5
q3 -48 5.5 -107.5t4 -121t1.5 -117.5z" />
    <glyph glyph-name="Z" unicode="Z" horiz-adv-x="660" 
d="M630 -2h-124t-140.5 0.5t-136 1t-111.5 1t-66 1.5l-22 87q129 181 225.5 328t165.5 266q-54 -2 -118.5 -6t-129.5 -8.5t-121 -10.5l-7 100h162t157 -0.5t134.5 -1.5t94.5 -2l22 -71q-31 -55 -67 -115t-80 -131.5t-100 -159.5t-127 -199q94 4 194 11.5t191 15.5z" />
    <glyph glyph-name="bracketleft" unicode="[" horiz-adv-x="500" 
d="M150 -60v880h300v-80h-140v-720h140v-80h-300z" />
    <glyph glyph-name="backslash" unicode="\" horiz-adv-x="543" 
d="M383 -30l-353 775l130 45l353 -775z" />
    <glyph glyph-name="bracketright" unicode="]" horiz-adv-x="500" 
d="M50 -60v80h140v720h-140v80h300v-880h-300z" />
    <glyph glyph-name="asciicircum" unicode="^" horiz-adv-x="550" 
d="M90 646l-40 35l225 209l225 -209l-40 -35l-185 109z" />
    <glyph glyph-name="underscore" unicode="_" horiz-adv-x="500" 
d="M50 -80v90h400v-90h-400z" />
    <glyph glyph-name="grave" unicode="`" horiz-adv-x="320" 
d="M294 737l-284 90l62 96l238 -146z" />
    <glyph glyph-name="a" unicode="a" horiz-adv-x="630" 
d="M222 -5q-85 0 -138.5 41.5t-53.5 108.5q0 61 44.5 113t123.5 88.5t181 50.5q-36 88 -99 88q-38 0 -98 -29t-122 -76l-30 100q149 85 282 85q104 0 167 -56.5t92 -180t29 -326.5q-19 -1 -67.5 -2.5t-104.5 -1.5q0 32 -1 63q-103 -66 -205 -66zM195 152q0 -31 24.5 -49
t65.5 -18q72 0 139 62q-6 106 -23 179q-39 -8 -75.5 -26t-66 -42.5t-47 -52t-17.5 -53.5z" />
    <glyph glyph-name="b" unicode="b" horiz-adv-x="600" 
d="M217 -2q-43 0 -88 1.5t-74 2.5q-1 23 -1.5 73.5t-1 118.5t-1 144.5t-1 153.5t-0.5 146v119q23 0 54.5 -0.5t63.5 -1.5t54 -2v-230q60 42 126 42q64 0 114 -36t79 -98.5t29 -142.5q0 -81 -30.5 -147.5t-82 -106t-115.5 -39.5q-59 0 -124 35q-1 -20 -1 -32zM302 483
q-44 0 -81 -50q0 -75 -0.5 -149t-1.5 -136q17 -34 43.5 -53.5t56.5 -19.5q47 0 73.5 48t26.5 133q0 65 -15.5 116.5t-41.5 81t-60 29.5z" />
    <glyph glyph-name="c" unicode="c" horiz-adv-x="590" 
d="M321 -5q-59 0 -111.5 22.5t-93 61.5t-63.5 90.5t-23 108.5q0 59 23.5 110.5t65.5 91.5t96.5 62.5t116.5 22.5q130 0 248 -108l-95 -104q-32 59 -81.5 95.5t-97.5 36.5q-52 0 -83.5 -44t-31.5 -118q0 -67 23.5 -123t63.5 -89.5t87 -33.5q41 0 81.5 26t67.5 70l61 -60
q-118 -118 -254 -118z" />
    <glyph glyph-name="d" unicode="d" horiz-adv-x="600" 
d="M252 -5q-63 0 -113.5 36t-79.5 99t-29 142q0 82 30.5 148t82.5 105.5t115 39.5q57 0 120 -33v225q23 0 54.5 -0.5t63.5 -1.5t54 -2v-121.5t-0.5 -150.5t-1 -158.5t-1 -146.5t-1 -115t-1.5 -63q-43 0 -88 1.5t-74 2.5q0 13 -1 37q-62 -44 -130 -44zM181 304
q0 -65 15.5 -116.5t42 -81t59.5 -29.5q45 0 83 53q-1 59 -1.5 133.5t-0.5 151.5q-17 33 -42.5 51.5t-55.5 18.5q-47 0 -73.5 -47.5t-26.5 -133.5z" />
    <glyph glyph-name="e" unicode="e" horiz-adv-x="620" 
d="M315 -5q-81 0 -145.5 37.5t-102 102t-37.5 146.5t36.5 146t100 101t144.5 37q76 0 136.5 -33.5t98 -93.5t44.5 -141l-397 -74q19 -65 60 -105.5t92 -40.5q47 0 93 32.5t71 83.5l71 -60q-49 -66 -118 -102t-147 -36zM180 321v-10l233 32q-7 64 -41 103t-83 39
q-51 0 -80 -43.5t-29 -120.5z" />
    <glyph glyph-name="f" unicode="f" horiz-adv-x="440" 
d="M105 -2q0 158 3 275t13 201h-85l-6 92h105q18 82 51 124.5t86.5 59t132.5 20.5l-4 -85q-47 0 -72.5 -24t-37.5 -95h119l-6 -92h-123q-3 -45 -4 -103t-1 -131q0 -64 1 -123t3 -115q-42 -1 -89 -2.5t-86 -1.5z" />
    <glyph glyph-name="g" unicode="g" horiz-adv-x="620" 
d="M119 -130l-3 80q81 4 135 17t87 39.5t50 73.5q-65 -45 -142 -45q-64 0 -113 31t-76 86.5t-27 128.5q0 79 30.5 143.5t82.5 102.5t115 38q32 0 67.5 -10t71.5 -27q-1 12 -2 25q44 2 83.5 3t88.5 1q3 -85 3 -152q0 -130 -12 -223t-41 -153.5t-80.5 -95.5t-129.5 -49
t-188 -14zM181 315q0 -85 34 -135t91 -50q75 0 103 86q1 23 1 50q0 28 -1 59t-3 70q-19 38 -51.5 61.5t-68.5 23.5q-49 0 -77 -44t-28 -121z" />
    <glyph glyph-name="h" unicode="h" horiz-adv-x="630" 
d="M217 -2q-37 0 -83.5 1.5t-78.5 2.5q-1 23 -1.5 72.5t-1 116.5t-1 142.5t-1 152t-0.5 146v121.5q22 1 53 2t63.5 1.5t55.5 0.5v-109.5t-1 -131.5q35 23 73.5 36t75.5 13q118 0 174 -137t56 -426q-25 -2 -64 -3t-108 -1q0 487 -105 487q-26 0 -53.5 -26t-48.5 -67
q-1 -69 -1.5 -133.5t-1 -118.5t-1 -91.5t-0.5 -50.5z" />
    <glyph glyph-name="i" unicode="i" horiz-adv-x="272" 
d="M51 625v135h170v-135h-170zM55 -2q-1 33 -2 89.5t-1.5 130t-1 157.5t-0.5 172q45 0 94.5 -1t77.5 -3q0 -73 -0.5 -153t-1 -155.5t-1.5 -136.5t-2 -96q-46 -2 -88 -3t-74 -1z" />
    <glyph glyph-name="j" unicode="j" horiz-adv-x="355" 
d="M126 625v135h170v-135h-170zM60 -130l-50 90q66 29 96.5 112t30.5 235q0 42 -2.5 101.5t-7.5 134.5q37 2 80 3t92 1q6 -106 6 -184q0 -156 -25.5 -258.5t-79.5 -159.5t-140 -75z" />
    <glyph glyph-name="k" unicode="k" horiz-adv-x="630" 
d="M55 -2q-1 23 -1.5 76t-1 124t-1 150.5t-1 157t-0.5 143.5v108q44 0 91 -1t81 -3v-110.5t-0.5 -144t-0.5 -154.5q54 44 106.5 90t97 87.5t73.5 73.5l89 -60q-32 -30 -73.5 -65t-88.5 -71q20 -36 45.5 -84.5t52.5 -102t52 -106t45 -96.5l-192 -20q-30 86 -62.5 168
t-64.5 148q-40 -29 -81 -56q-1 -86 -1.5 -153.5t-1.5 -94.5q-26 -2 -64 -3t-98 -1z" />
    <glyph glyph-name="l" unicode="l" horiz-adv-x="320" 
d="M222 757q-2 -57 -3 -112t-1 -102q0 -158 9.5 -258.5t29.5 -154t53 -70.5l-70 -80q-54 6 -90.5 35.5t-58.5 89t-31.5 154.5t-9.5 232q0 57 1.5 124.5t3.5 137.5q29 2 69 3t98 1z" />
    <glyph glyph-name="m" unicode="m" horiz-adv-x="890" 
d="M192 -2q-22 0 -54 0.5t-61.5 1.5t-46.5 2q0 125 0.5 236t2 194.5t2.5 124.5q32 0 75 -1t77 -3q1 -21 2 -57q82 69 164 69q42 0 73 -18t52 -58q79 76 172 76q107 0 158.5 -111t51.5 -342q0 -27 -0.5 -52.5t-2.5 -55.5q-28 -4 -75 -6t-97 -2q3 42 4.5 90t1.5 95
q0 155 -18.5 229.5t-56.5 74.5q-26 0 -56.5 -31t-48.5 -77q8 -47 11.5 -108.5t3.5 -137.5q0 -66 -3 -129q-20 -1 -50.5 -2t-63 -1.5t-58.5 -0.5q3 53 4.5 114t1.5 116q0 95 -5.5 151.5t-18 81t-34.5 24.5q-27 0 -57.5 -32t-51.5 -79q1 -77 1.5 -173.5t0.5 -202.5z" />
    <glyph glyph-name="n" unicode="n" horiz-adv-x="631" 
d="M35 -2q-1 32 -2 88.5t-1.5 131t-1 161t-0.5 178.5q22 0 54 -0.5t64.5 -1.5t53.5 -2v-51q85 63 173 63q81 0 131 -57t72.5 -182t22.5 -328q-23 0 -55 0.5t-63 1.5t-54 2q0 177 -10 283t-33 153t-62 47q-32 0 -65 -27t-57 -71q-1 -85 -1.5 -161t-1.5 -134.5t-2 -89.5
q-31 -1 -75.5 -2.5t-86.5 -1.5z" />
    <glyph glyph-name="o" unicode="o" horiz-adv-x="640" 
d="M312 -5q-79 0 -143 37t-101.5 100t-37.5 140q0 61 23 114t64.5 93.5t95.5 63t115 22.5q79 0 143 -37t101.5 -99.5t37.5 -140.5q0 -61 -23 -114t-64.5 -93.5t-95 -63t-115.5 -22.5zM341 76q53 0 83 45.5t30 126.5q0 68 -20 121t-55 84t-80 31q-53 0 -83 -45.5t-30 -126.5
q0 -67 20 -120.5t55.5 -84.5t79.5 -31z" />
    <glyph glyph-name="p" unicode="p" horiz-adv-x="600" 
d="M217 -117q-37 0 -83.5 1.5t-78.5 2.5q-1 28 -1.5 84t-1.5 129.5t-1.5 154t-0.5 158v140.5q22 1 53 2t63.5 1.5t55.5 0.5v-33q60 41 126 41q64 0 114 -36t79 -98.5t29 -142.5q0 -81 -30.5 -147.5t-82 -106t-115.5 -39.5q-58 0 -123 34q0 -49 -0.5 -87t-1.5 -59zM302 483
q-43 0 -80 -49q0 -69 -0.5 -143.5t-1.5 -144.5q17 -33 43 -52t56 -19q47 0 73.5 48t26.5 133q0 65 -15.5 116.5t-41.5 81t-60 29.5z" />
    <glyph glyph-name="q" unicode="q" horiz-adv-x="600" 
d="M252 -5q-63 0 -113.5 36t-79.5 99t-29 142q0 82 30.5 148t82.5 105.5t115 39.5q59 0 124 -35q1 16 1 27q34 0 80 -1t82 -3q1 -28 1.5 -86.5t1.5 -134.5t1.5 -157.5t0.5 -156.5v-131q-22 -1 -54 -2t-63.5 -1.5t-54.5 -0.5v154q-60 -42 -126 -42zM181 304
q0 -65 15.5 -116.5t42 -81t59.5 -29.5q44 0 81 49q0 75 0.5 149.5t1.5 136.5q-17 34 -43.5 53.5t-56.5 19.5q-47 0 -73.5 -47.5t-26.5 -133.5z" />
    <glyph glyph-name="r" unicode="r" horiz-adv-x="585" 
d="M197 -2q-35 0 -79.5 1.5t-82.5 2.5q-1 30 -2 86t-1.5 130.5t-1 160t-0.5 174.5q22 1 54 2t64 1.5t54 0.5v-58q39 31 80.5 48.5t80.5 17.5q51 0 93 -27.5t68.5 -74.5t30.5 -106q-40 -13 -80 -23t-76 -16q0 45 -11.5 83t-30.5 61t-42 23q-27 0 -60 -33t-53 -81
q-1 -127 -2 -226.5t-3 -146.5z" />
    <glyph glyph-name="s" unicode="s" horiz-adv-x="610" 
d="M316 -5q-41 0 -93 6.5t-103 17t-90 22.5l44 121q38 -22 84.5 -41.5t91.5 -31.5t77 -12q43 0 63 19.5t20 41.5q0 26 -22 43.5t-57.5 31t-76.5 25.5q-37 11 -74 24t-67.5 30.5t-49 42.5t-18.5 60q0 45 32 83.5t91 62.5t140 24q66 0 133.5 -17t123.5 -48l-56 -95
q-55 35 -106.5 57.5t-97.5 22.5q-44 0 -67 -19t-23 -39q0 -19 18 -31.5t48.5 -21.5t65.5 -18q39 -9 80 -21.5t76 -31.5t56 -48.5t21 -73.5q0 -54 -34 -96t-93.5 -66t-136.5 -24z" />
    <glyph glyph-name="t" unicode="t" horiz-adv-x="460" 
d="M149 -2q-1 21 -1.5 67.5t-1 111.5t-1 141t-0.5 156h-109l-6 92h114v191q37 0 86.5 -1t85.5 -3v-187h114l-6 -92h-109q0 -78 -0.5 -153.5t-1 -139.5t-1 -111t-1.5 -68q-34 -2 -75 -3t-87 -1z" />
    <glyph glyph-name="u" unicode="u" horiz-adv-x="630" 
d="M253 -5q-223 0 -223 407q0 68 6 146q24 2 65.5 3t106.5 1q-6 -100 -6 -178q0 -154 24.5 -226.5t75.5 -72.5q34 0 68.5 28t59.5 74q-1 79 -1.5 177.5t-0.5 202.5q41 0 90.5 -1t81.5 -3q0 -81 -0.5 -164t-1 -159t-1.5 -135.5t-2 -92.5q-39 -2 -81 -3t-81 -1q-1 24 -2 62
q-86 -65 -178 -65z" />
    <glyph glyph-name="v" unicode="v" horiz-adv-x="620" 
d="M231 -9q-57 132 -114.5 276t-106.5 277q60 9 110 14.5t86 7.5q29 -108 67 -223.5t82 -228.5q45 110 83 225t66 223l106 -14q-52 -145 -108 -284.5t-113 -264.5q-38 -4 -79.5 -6t-78.5 -2z" />
    <glyph glyph-name="w" unicode="w" horiz-adv-x="824" 
d="M309 -3q-76 0 -148 6q-18 55 -38.5 123t-41 141.5t-39 146t-32.5 135.5q119 12 176 12q18 -108 41.5 -223t47.5 -214q29 128 51 235t38 194q25 1 58.5 2t66 1.5t51.5 0.5q19 -110 42 -222.5t47 -210.5q27 119 50 229.5t39 204.5l96 -6q-23 -100 -49 -199.5t-52 -189
t-50 -160.5q-49 -6 -148 -6q-24 75 -51 168t-51 186q-26 -101 -53 -192t-51 -162z" />
    <glyph glyph-name="x" unicode="x" horiz-adv-x="630" 
d="M140 -3l-110 6q33 47 86 117t114 147q-113 149 -220 277q29 5 67.5 9.5t76.5 8t62 4.5q25 -30 57 -72t68 -89q35 43 68 83t62 73l119 -12q-37 -41 -86.5 -100t-103.5 -124q47 -65 91.5 -127.5t78.5 -112.5t50 -77q-40 -7 -91.5 -11.5t-97.5 -4.5q-33 48 -68.5 97.5
t-72.5 98.5q-43 -52 -81.5 -101.5t-68.5 -89.5z" />
    <glyph glyph-name="y" unicode="y" horiz-adv-x="620" 
d="M80 -132l-10 94q53 3 95.5 13.5t77.5 32.5q-42 84 -85 179t-81.5 187.5t-66.5 169.5q36 6 90 12t106 10q25 -77 66 -185t89 -227q33 67 63 167t65 241l121 -14q-49 -180 -102.5 -307.5t-116 -208.5t-139.5 -120t-172 -44z" />
    <glyph glyph-name="z" unicode="z" horiz-adv-x="610" 
d="M580 -4q-119 0 -225.5 1t-186 3t-119.5 4l-19 99q35 31 78.5 76t91 97.5t92.5 105.5t81 100q-55 0 -116 -2.5t-116.5 -6.5t-95.5 -8l-7 95q84 0 164 -0.5t149 -2t121 -3.5t79 -4l21 -97q-45 -54 -103.5 -120t-121 -133t-120.5 -126q93 0 186 5t161 12z" />
    <glyph glyph-name="braceleft" unicode="{" horiz-adv-x="585" 
d="M535 -65q-76 0 -138.5 29.5t-99.5 79t-37 110.5q0 53 -29.5 114t-80.5 112q51 51 80.5 112t29.5 114q0 61 37 110.5t99.5 79t138.5 29.5v-60q-50 0 -82.5 -45t-32.5 -115t-37.5 -122.5t-122.5 -102.5q85 -50 122.5 -102.5t37.5 -122.5t32.5 -115t82.5 -45v-60z" />
    <glyph glyph-name="bar" unicode="|" horiz-adv-x="260" 
d="M50 -70v900h160v-900h-160z" />
    <glyph glyph-name="braceright" unicode="}" horiz-adv-x="585" 
d="M50 -65v60q50 0 82.5 45t32.5 115t37.5 122.5t122.5 102.5q-85 50 -122.5 102.5t-37.5 122.5t-32.5 115t-82.5 45v60q77 0 139 -29.5t99 -79t37 -110.5q0 -53 29.5 -114t80.5 -112q-51 -51 -80.5 -112t-29.5 -114q0 -61 -37 -110.5t-99 -79t-139 -29.5z" />
    <glyph glyph-name="asciitilde" unicode="~" horiz-adv-x="510" 
d="M332 659q-49 0 -98 52q-46 49 -83 49q-15 0 -29.5 -10.5t-41.5 -41.5l-30 54q61 99 128 99q49 0 98 -52q46 -49 83 -49q15 0 29.5 10.5t41.5 41.5l30 -54q-61 -99 -128 -99z" />
    <glyph glyph-name="uni00A0" unicode="&#xa0;" horiz-adv-x="400" 
 />
    <glyph glyph-name="exclamdown" unicode="&#xa1;" horiz-adv-x="278" 
d="M209 790v-124h-140v124h140zM205 580q11 -145 17 -296t6 -315h-178q0 164 5.5 315t16.5 296h133z" />
    <glyph glyph-name="cent" unicode="&#xa2;" horiz-adv-x="650" 
d="M290 -32v43q-67 10 -121.5 47.5t-86.5 93t-32 120.5t32.5 124t87.5 102.5t120 60.5v49h100v-42q47 -5 96.5 -31t113.5 -78l-95 -104q-19 36 -50 67t-65 49v-385q81 0 144 89l61 -60q-45 -39 -98 -65t-107 -35v-45h-100zM196 326q0 -63 26 -118t68 -87v368
q-42 -10 -68 -54.5t-26 -108.5z" />
    <glyph glyph-name="sterling" unicode="&#xa3;" horiz-adv-x="695" 
d="M50 325v90h92q13 168 84.5 261.5t191.5 93.5q67 0 124.5 -29t97.5 -83l-132 -99q-28 71 -53 101t-56 30q-41 0 -60 -50.5t-19 -160.5q0 -33 -2 -64h232v-90h-241q-22 -137 -94 -238l430 14l-7 -110l-565 19l-23 94q44 21 66 74t24 147h-90z" />
    <glyph glyph-name="currency" unicode="&#xa4;" horiz-adv-x="736" 
d="M119 67l-64 64l89 79q-46 67 -46 165q0 81 32 143l-80 68l112 112l68 -80q62 32 143 32q98 0 165 -46l79 89l64 -64l-89 -79q46 -67 46 -165q0 -81 -32 -143l80 -68l-112 -112l-68 80q-62 -32 -143 -32q-98 0 -165 46zM391 180q43 0 70 44.5t27 115.5q0 63 -20 117.5
t-52.5 88.5t-70.5 34q-43 0 -70 -44.5t-27 -115.5q0 -62 20 -117t53 -89t70 -34z" />
    <glyph glyph-name="yen" unicode="&#xa5;" horiz-adv-x="710" 
d="M105 155v90h171v80h-171v90h125l-180 294l162 73l180 -332l171 326l97 -61l-190 -300h135v-90h-161l-3 -80h164v-90h-168l-6 -157l-155 5v152h-171z" />
    <glyph glyph-name="brokenbar" unicode="&#xa6;" horiz-adv-x="260" 
d="M50 455v375h160v-375h-160zM50 -70v375h160v-375h-160z" />
    <glyph glyph-name="section" unicode="&#xa7;" horiz-adv-x="638" 
d="M252 -6q-44 0 -89 5t-84 14l23 89q40 -12 76 -17.5t65 -5.5q50 0 81 13.5t31 32.5q0 22 -35.5 39.5t-83.5 35.5q-42 16 -85 35.5t-72 46t-29 61.5q0 40 38 84.5t94 78.5q-47 21 -80 49t-33 68q0 36 27 62.5t73 44.5t102.5 27t114.5 9q44 0 89 -5t84 -14l-23 -89
q-40 12 -76 17.5t-65 5.5q-50 0 -81 -13t-31 -33q0 -22 35.5 -39.5t83.5 -35.5q43 -16 85.5 -35.5t71.5 -45.5t29 -62q0 -40 -38 -84.5t-93 -78.5q46 -21 79 -49t33 -68q0 -36 -27 -62.5t-73 -44.5t-102 -27t-115 -9zM223 378q0 -25 35.5 -44t84.5 -37q32 14 52 39.5
t20 45.5q0 25 -35.5 44t-84.5 37q-32 -14 -52 -39.5t-20 -45.5z" />
    <glyph glyph-name="dieresis" unicode="&#xa8;" horiz-adv-x="350" 
d="M220 753v144h120v-144h-120zM10 753v144h120v-144h-120z" />
    <glyph glyph-name="copyright" unicode="&#xa9;" 
d="M484 -1q-82 0 -152 27.5t-122 77t-81 116t-29 144.5q0 83 32 155t89 126.5t132.5 85t162.5 30.5q82 0 152 -27.5t122 -77t81 -116t29 -144.5q0 -83 -32 -155t-89 -126.5t-132.5 -85t-162.5 -30.5zM524 56q82 0 142.5 36.5t94 103.5t33.5 157q0 102 -41 181.5
t-112.5 124.5t-164.5 45q-82 0 -142.5 -36.5t-94 -103t-33.5 -157.5q0 -102 41 -181t113 -124.5t164 -45.5zM502 149q-63 0 -116.5 30t-85.5 79.5t-32 108.5q0 47 21.5 91t57.5 78.5t82.5 54.5t95.5 20q47 0 92.5 -21t104.5 -70l-78 -86q-28 51 -72 83t-86 32
q-45 0 -73.5 -36.5t-28.5 -95.5q0 -53 22.5 -99t59 -74.5t78.5 -28.5q33 0 66.5 19t57.5 51l50 -50q-47 -40 -104.5 -63t-111.5 -23z" />
    <glyph glyph-name="ordfeminine" unicode="&#xaa;" horiz-adv-x="471" 
d="M175 417q-55 0 -89.5 27t-34.5 70q0 39 29 73t80 58t117 33q-23 57 -64 57q-25 0 -64 -18.5t-79 -49.5l-19 65q96 55 183 55q67 0 108 -36.5t60 -117t19 -212.5q-13 -1 -44 -1.5t-68 -0.5v40q-67 -42 -134 -42zM158 519q0 -20 16 -32t42 -12q47 0 90 40q-4 70 -15 117
q-33 -6 -63.5 -24.5t-50 -42.5t-19.5 -46z" />
    <glyph glyph-name="guillemotleft" unicode="&#xab;" horiz-adv-x="644" 
d="M544 100l-254 280l254 280l50 -40l-159 -240l159 -240zM340 105l-290 275l290 275l45 -35l-175 -240l175 -240z" />
    <glyph glyph-name="logicalnot" unicode="&#xac;" horiz-adv-x="600" 
d="M390 165v190h-340v80h500v-270h-160z" />
    <glyph glyph-name="uni00AD" unicode="&#xad;" horiz-adv-x="450" 
d="M50 335v90h350v-90h-350z" />
    <glyph glyph-name="registered" unicode="&#xae;" 
d="M484 -1q-82 0 -152 27.5t-122 77t-81 116t-29 144.5q0 83 32 155t89 126.5t132.5 85t162.5 30.5q82 0 152 -27.5t122 -77t81 -116t29 -144.5q0 -83 -32 -155t-89 -126.5t-132.5 -85t-162.5 -30.5zM524 56q82 0 142.5 36.5t94 103.5t33.5 157q0 102 -41 181.5
t-112.5 124.5t-164.5 45q-82 0 -142.5 -36.5t-94 -103t-33.5 -157.5q0 -102 41 -181t113 -124.5t164 -45.5zM607 147l-168 221l10 -216l-130 5v461q20 5 56 7.5t69 2.5q78 0 136.5 -16t91 -44.5t32.5 -66.5q0 -77 -129 -123l153 -192zM430 581l8 -191q71 17 108.5 43
t37.5 58q0 35 -43 60.5t-111 29.5z" />
    <glyph glyph-name="macron" unicode="&#xaf;" horiz-adv-x="360" 
d="M10 780v80h340v-80h-340z" />
    <glyph glyph-name="degree" unicode="&#xb0;" horiz-adv-x="522" 
d="M261 435q-63 0 -110.5 25.5t-74 71t-26.5 104.5q0 60 26 105.5t73.5 71.5t109.5 26q64 0 111.5 -25.5t74.5 -71t27 -105.5t-26.5 -105.5t-74 -71t-110.5 -25.5zM267 493q28 0 47.5 35.5t19.5 84.5q0 40 -12.5 78.5t-31.5 64t-39 25.5q-17 0 -31.5 -18t-23 -48.5
t-8.5 -66.5q0 -41 11 -76.5t29 -57t39 -21.5z" />
    <glyph glyph-name="plusminus" unicode="&#xb1;" horiz-adv-x="500" 
d="M170 285v135h-120v90h120v135h160v-135h120v-90h-120v-135h-160zM50 115v90h400v-90h-400z" />
    <glyph glyph-name="uni00B2" unicode="&#xb2;" horiz-adv-x="382" 
d="M349 372l-320 11l-8 49q62 48 110 102t76 105t28 88q0 28 -15.5 45.5t-38.5 17.5q-55 0 -112 -95l-59 66q29 37 74.5 57.5t95.5 20.5q48 0 85.5 -18t59 -49t21.5 -71q0 -56 -48 -120t-152 -147l206 13z" />
    <glyph glyph-name="uni00B3" unicode="&#xb3;" horiz-adv-x="406" 
d="M194 377q-112 0 -184 80q11 17 30 41t35 40q47 -57 84 -83.5t68 -26.5q27 0 44 17.5t17 44.5q0 41 -42.5 66t-119.5 29l25 89q111 0 111 53q0 26 -21 46t-49 20q-25 0 -50 -21t-55 -69l-62 64q34 33 85.5 52.5t105.5 19.5q63 0 104 -27t41 -68q0 -35 -29 -63.5t-73 -36.5
q33 -7 59.5 -27t42 -48t15.5 -59q0 -38 -24 -68t-65 -47.5t-93 -17.5z" />
    <glyph glyph-name="acute" unicode="&#xb4;" horiz-adv-x="320" 
d="M26 737l-16 40l238 146l62 -96z" />
    <glyph glyph-name="uni00B5" unicode="&#xb5;" horiz-adv-x="684" 
d="M50 -116q0 60 1.5 136.5t3.5 158.5t5 158t6 135.5t6 90.5l149 -5q0 -237 25 -360.5t72 -123.5t71 122t24 362l150 5q0 -208 24 -344t67 -177l-74 -62l-75 86q-28 -38 -68.5 -59.5t-85.5 -21.5q-37 0 -77 12.5t-60 29.5l5 -150z" />
    <glyph glyph-name="paragraph" unicode="&#xb6;" horiz-adv-x="645" 
d="M245 -30l10 305q-41 0 -81 21.5t-72.5 57.5t-52 80.5t-19.5 90.5t20.5 90.5t59 80.5t91.5 57.5t119 21.5h275v-811l-120 -4v740h-100v-736z" />
    <glyph glyph-name="periodcentered" unicode="&#xb7;" horiz-adv-x="365" 
d="M113 295l-13 162q30 3 75 5t90 2q0 -34 -0.5 -69t-1 -60.5t-1.5 -33.5q-34 0 -75 -1.5t-74 -4.5z" />
    <glyph glyph-name="cedilla" unicode="&#xb8;" horiz-adv-x="232" 
d="M60 -212l-14 42q34 15 52.5 31t18.5 29q0 19 -31 37.5t-76 27.5q14 21 42 52.5t57 59.5l40 -20l-27 -46q42 -19 66 -45t24 -54q0 -35 -39.5 -64.5t-112.5 -49.5z" />
    <glyph glyph-name="uni00B9" unicode="&#xb9;" horiz-adv-x="272" 
d="M202 379h-118q1 21 1.5 62.5t1 94.5t0.5 107.5v100.5l-71 3l-6 35q59 17 104.5 32.5t83.5 30.5q1 -19 1.5 -59.5t1 -93.5t1 -110.5t0.5 -110.5v-92z" />
    <glyph glyph-name="ordmasculine" unicode="&#xba;" horiz-adv-x="477" 
d="M234 417q-51 0 -92.5 24t-66 65t-24.5 91q0 53 26 96t70 68.5t97 25.5q52 0 93.5 -24t66 -64.5t24.5 -91.5q0 -52 -26.5 -95.5t-70.5 -69t-97 -25.5zM253 469q35 0 54 30t19 82q0 66 -28.5 110t-72.5 44q-34 0 -53.5 -29.5t-19.5 -82.5q0 -66 29 -110t72 -44z" />
    <glyph glyph-name="guillemotright" unicode="&#xbb;" horiz-adv-x="644" 
d="M100 100l-50 40l159 240l-159 240l50 40l254 -280zM305 105l-45 35l174 240l-174 240l45 35l289 -275z" />
    <glyph glyph-name="onequarter" unicode="&#xbc;" horiz-adv-x="878" 
d="M242 379h-118q1 21 1.5 62.5t1 94.5t0.5 107.5v100.5l-71 3l-6 35q59 17 104.5 32.5t83.5 30.5q1 -19 1.5 -59.5t1 -93.5t1 -110.5t0.5 -110.5v-92zM130 -5l-80 50l550 720l80 -50zM673 -80q-1 28 -1.5 63t-0.5 68q-59 1 -111.5 2.5t-91.5 2.5q0 35 1 88t3.5 114t4.5 119
q26 0 57 -2t53 -4q-4 -41 -9 -92.5t-8.5 -100t-5.5 -82.5q26 0 53.5 0.5t53.5 1.5v11q0 45 0.5 94.5t1.5 95t2 76.5q76 0 106 -3q-2 -32 -4.5 -77t-4.5 -95t-4 -98q35 2 58 5l2 -57h-62q-1 -45 -2 -79t-1 -49q-16 -1 -43 -1.5t-47 -0.5z" />
    <glyph glyph-name="onehalf" unicode="&#xbd;" horiz-adv-x="837" 
d="M242 379h-118q1 21 1.5 62.5t1 94.5t0.5 107.5v100.5l-71 3l-6 35q59 17 104.5 32.5t83.5 30.5q1 -19 1.5 -59.5t1 -93.5t1 -110.5t0.5 -110.5v-92zM139 -5l-80 50l550 720l80 -50zM784 -88l-320 11l-8 49q62 48 110 102t76 105t28 88q0 28 -15.5 45.5t-38.5 17.5
q-55 0 -112 -95l-59 66q29 37 74.5 57.5t95.5 20.5q48 0 85.5 -18t59 -49t21.5 -71q0 -56 -48 -120t-152 -147l206 13z" />
    <glyph glyph-name="threequarters" unicode="&#xbe;" horiz-adv-x="988" 
d="M234 377q-112 0 -184 80q11 17 30 41t35 40q47 -57 84 -83.5t68 -26.5q27 0 44 17.5t17 44.5q0 41 -42.5 66t-119.5 29l25 89q111 0 111 53q0 26 -21 46t-49 20q-25 0 -50 -21t-55 -69l-62 64q34 33 85.5 52.5t105.5 19.5q63 0 104 -27t41 -68q0 -35 -29 -63.5t-73 -36.5
q33 -7 59.5 -27t42 -48t15.5 -59q0 -38 -24 -68t-65 -47.5t-93 -17.5zM240 -5l-80 50l550 720l80 -50zM783 -80q-1 28 -1.5 63t-0.5 68q-59 1 -111.5 2.5t-91.5 2.5q0 35 1 88t3.5 114t4.5 119q26 0 57 -2t53 -4q-4 -41 -9 -92.5t-8.5 -100t-5.5 -82.5q26 0 53.5 0.5
t53.5 1.5v11q0 45 0.5 94.5t1.5 95t2 76.5q76 0 106 -3q-2 -32 -4.5 -77t-4.5 -95t-4 -98q35 2 58 5l2 -57h-62q-1 -45 -2 -79t-1 -49q-16 -1 -43 -1.5t-47 -0.5z" />
    <glyph glyph-name="questiondown" unicode="&#xbf;" horiz-adv-x="550" 
d="M337 790v-124h-140v124h140zM333 580q-4 -71 -22 -129t-47 -107q-25 -41 -39 -86t-14 -95q0 -55 15 -86.5t41 -31.5q35 0 54.5 58t23.5 148l155 -11q0 -125 -61.5 -198t-171.5 -73q-100 0 -158.5 63t-58.5 171t69 190q67 81 81 187h133z" />
    <glyph glyph-name="Agrave" unicode="&#xc0;" horiz-adv-x="750" 
d="M289 156q-26 0 -53.5 0.5t-56.5 2.5q-22 -78 -44 -163l-120 8q56 189 125 381.5t147 374.5q37 4 82.5 7t93.5 3q61 -148 130 -342t142 -418q-58 -10 -109.5 -15t-104.5 -5q-21 84 -47 177q-89 -11 -185 -11zM328 653q-21 -57 -52.5 -158t-69.5 -237q40 -5 82.5 -7
t91.5 -2q18 0 36.5 0.5t34.5 0.5q-22 80 -44.5 155.5t-42.5 139t-36 108.5zM514 797l-284 90l62 96l238 -146z" />
    <glyph glyph-name="Aacute" unicode="&#xc1;" horiz-adv-x="750" 
d="M289 156q-26 0 -53.5 0.5t-56.5 2.5q-22 -78 -44 -163l-120 8q56 189 125 381.5t147 374.5q37 4 82.5 7t93.5 3q61 -148 130 -342t142 -418q-58 -10 -109.5 -15t-104.5 -5q-21 84 -47 177q-89 -11 -185 -11zM328 653q-21 -57 -52.5 -158t-69.5 -237q40 -5 82.5 -7
t91.5 -2q18 0 36.5 0.5t34.5 0.5q-22 80 -44.5 155.5t-42.5 139t-36 108.5zM246 797l-16 40l238 146l62 -96z" />
    <glyph glyph-name="Acircumflex" unicode="&#xc2;" horiz-adv-x="750" 
d="M289 156q-26 0 -53.5 0.5t-56.5 2.5q-22 -78 -44 -163l-120 8q56 189 125 381.5t147 374.5q37 4 82.5 7t93.5 3q61 -148 130 -342t142 -418q-58 -10 -109.5 -15t-104.5 -5q-21 84 -47 177q-89 -11 -185 -11zM328 653q-21 -57 -52.5 -158t-69.5 -237q40 -5 82.5 -7
t91.5 -2q18 0 36.5 0.5t34.5 0.5q-22 80 -44.5 155.5t-42.5 139t-36 108.5zM223 789l-34 30l191 178l191 -178l-34 -30l-157 93z" />
    <glyph glyph-name="Atilde" unicode="&#xc3;" horiz-adv-x="750" 
d="M289 156q-26 0 -53.5 0.5t-56.5 2.5q-22 -78 -44 -163l-120 8q56 189 125 381.5t147 374.5q37 4 82.5 7t93.5 3q61 -148 130 -342t142 -418q-58 -10 -109.5 -15t-104.5 -5q-21 84 -47 177q-89 -11 -185 -11zM328 653q-21 -57 -52.5 -158t-69.5 -237q40 -5 82.5 -7
t91.5 -2q18 0 36.5 0.5t34.5 0.5q-22 80 -44.5 155.5t-42.5 139t-36 108.5zM445 807q-39 0 -83 42q-41 39 -71 39q-13 0 -25 -8.5t-35 -33.5l-25 44q51 79 108 79q42 0 84 -42q39 -39 70 -39q13 0 25.5 8.5t35.5 33.5l25 -44q-52 -79 -109 -79z" />
    <glyph glyph-name="Adieresis" unicode="&#xc4;" horiz-adv-x="750" 
d="M289 156q-26 0 -53.5 0.5t-56.5 2.5q-22 -78 -44 -163l-120 8q56 189 125 381.5t147 374.5q37 4 82.5 7t93.5 3q61 -148 130 -342t142 -418q-58 -10 -109.5 -15t-104.5 -5q-21 84 -47 177q-89 -11 -185 -11zM328 653q-21 -57 -52.5 -158t-69.5 -237q40 -5 82.5 -7
t91.5 -2q18 0 36.5 0.5t34.5 0.5q-22 80 -44.5 155.5t-42.5 139t-36 108.5zM425 813v144h120v-144h-120zM215 813v144h120v-144h-120z" />
    <glyph glyph-name="Aring" unicode="&#xc5;" horiz-adv-x="750" 
d="M289 156q-26 0 -53.5 0.5t-56.5 2.5q-22 -78 -44 -163l-120 8q56 189 125 381.5t147 374.5q37 4 82.5 7t93.5 3q61 -148 130 -342t142 -418q-58 -10 -109.5 -15t-104.5 -5q-21 84 -47 177q-89 -11 -185 -11zM328 653q-21 -57 -52.5 -158t-69.5 -237q40 -5 82.5 -7
t91.5 -2q18 0 36.5 0.5t34.5 0.5q-22 80 -44.5 155.5t-42.5 139t-36 108.5zM382 748q-54 0 -87 31.5t-33 82.5q0 50 32 80t84 30q54 0 87 -31.5t33 -82.5q0 -49 -31.5 -79.5t-84.5 -30.5zM386 786q26 0 26 62q0 38 -10.5 62t-27.5 24q-26 0 -26 -62q0 -37 11 -61.5t27 -24.5
z" />
    <glyph glyph-name="AE" unicode="&#xc6;" horiz-adv-x="985" 
d="M145 -8l-130 16q45 89 98.5 186t111.5 195.5t117 191.5t114 173h101t118 0.5t117 1t98 1t61 1.5l4 -100l-278 13v-125.5t1 -121.5l258 18l-8 -114l-250 9q1 -85 2 -151t2 -101l272 13l-5 -103q-70 5 -187.5 7.5t-269.5 2.5q0 73 -1 145q-37 -4 -69.5 -5.5t-69.5 -1.5
q-24 0 -55.5 1t-80.5 3q-20 -42 -38 -81t-33 -74zM275 269q96 -24 215 -34q-3 123 -8 229t-12 182q-41 -74 -93 -174.5t-102 -202.5z" />
    <glyph glyph-name="Ccedilla" unicode="&#xc7;" horiz-adv-x="690" 
d="M378 -5q-106 0 -186.5 46t-126 128t-45.5 190q0 86 29 160t80.5 129t121.5 86t151 31q85 0 159.5 -33.5t118.5 -90.5q-73 -85 -136 -119q-77 151 -185 151q-73 0 -117.5 -61t-44.5 -164q0 -67 18.5 -131.5t50 -116.5t71 -82.5t80.5 -30.5q30 0 62 15.5t60.5 43t47.5 61.5
l93 -73q-122 -139 -302 -139zM320 -232l-14 42q34 15 52.5 31t18.5 29q0 19 -31 37.5t-76 27.5q14 21 42 52.5t57 59.5l40 -20l-27 -46q42 -19 66 -45t24 -54q0 -35 -39.5 -64.5t-112.5 -49.5z" />
    <glyph glyph-name="Egrave" unicode="&#xc8;" horiz-adv-x="637" 
d="M602 -5q-35 3 -111.5 5.5t-183 3.5t-231.5 1q-2 28 -4.5 85.5t-5.5 131.5t-6 154t-5 154.5t-3.5 132.5t-1.5 87q44 0 101.5 0.5t120.5 1.5t125 2.5t115.5 3t90.5 2.5l4 -107l-357 12v-119.5t1 -118.5l336 11l-4 -110l-331 14q1 -71 2 -135t3 -116l349 12zM462 797
l-284 90l62 96l238 -146z" />
    <glyph glyph-name="Eacute" unicode="&#xc9;" horiz-adv-x="637" 
d="M602 -5q-35 3 -111.5 5.5t-183 3.5t-231.5 1q-2 28 -4.5 85.5t-5.5 131.5t-6 154t-5 154.5t-3.5 132.5t-1.5 87q44 0 101.5 0.5t120.5 1.5t125 2.5t115.5 3t90.5 2.5l4 -107l-357 12v-119.5t1 -118.5l336 11l-4 -110l-331 14q1 -71 2 -135t3 -116l349 12zM194 797l-16 40
l238 146l62 -96z" />
    <glyph glyph-name="Ecircumflex" unicode="&#xca;" horiz-adv-x="637" 
d="M602 -5q-35 3 -111.5 5.5t-183 3.5t-231.5 1q-2 28 -4.5 85.5t-5.5 131.5t-6 154t-5 154.5t-3.5 132.5t-1.5 87q44 0 101.5 0.5t120.5 1.5t125 2.5t115.5 3t90.5 2.5l4 -107l-357 12v-119.5t1 -118.5l336 11l-4 -110l-331 14q1 -71 2 -135t3 -116l349 12zM171 789l-34 30
l191 178l191 -178l-34 -30l-157 93z" />
    <glyph glyph-name="Edieresis" unicode="&#xcb;" horiz-adv-x="637" 
d="M602 -5q-35 3 -111.5 5.5t-183 3.5t-231.5 1q-2 28 -4.5 85.5t-5.5 131.5t-6 154t-5 154.5t-3.5 132.5t-1.5 87q44 0 101.5 0.5t120.5 1.5t125 2.5t115.5 3t90.5 2.5l4 -107l-357 12v-119.5t1 -118.5l336 11l-4 -110l-331 14q1 -71 2 -135t3 -116l349 12zM373 813v144
h120v-144h-120zM163 813v144h120v-144h-120z" />
    <glyph glyph-name="Igrave" unicode="&#xcc;" horiz-adv-x="360" 
d="M70 -1q12 243 12 494q0 42 -0.5 92.5t-1 95.5t-1.5 72q12 2 40.5 3t62.5 1q27 0 53.5 -1t45.5 -3q-2 -62 -3 -124t-1.5 -117.5t-0.5 -96.5q0 -136 3.5 -236t10.5 -177q-54 -2 -109.5 -2.5t-110.5 -0.5zM314 797l-284 90l62 96l238 -146z" />
    <glyph glyph-name="Iacute" unicode="&#xcd;" horiz-adv-x="360" 
d="M70 -1q12 243 12 494q0 42 -0.5 92.5t-1 95.5t-1.5 72q12 2 40.5 3t62.5 1q27 0 53.5 -1t45.5 -3q-2 -62 -3 -124t-1.5 -117.5t-0.5 -96.5q0 -136 3.5 -236t10.5 -177q-54 -2 -109.5 -2.5t-110.5 -0.5zM46 797l-16 40l238 146l62 -96z" />
    <glyph glyph-name="Icircumflex" unicode="&#xce;" horiz-adv-x="360" 
d="M70 -1q12 243 12 494q0 42 -0.5 92.5t-1 95.5t-1.5 72q12 2 40.5 3t62.5 1q27 0 53.5 -1t45.5 -3q-2 -62 -3 -124t-1.5 -117.5t-0.5 -96.5q0 -136 3.5 -236t10.5 -177q-54 -2 -109.5 -2.5t-110.5 -0.5zM23 789l-34 30l191 178l191 -178l-34 -30l-157 93z" />
    <glyph glyph-name="Idieresis" unicode="&#xcf;" horiz-adv-x="360" 
d="M70 -1q12 243 12 494q0 42 -0.5 92.5t-1 95.5t-1.5 72q12 2 40.5 3t62.5 1q27 0 53.5 -1t45.5 -3q-2 -62 -3 -124t-1.5 -117.5t-0.5 -96.5q0 -136 3.5 -236t10.5 -177q-54 -2 -109.5 -2.5t-110.5 -0.5zM225 813v144h120v-144h-120zM15 813v144h120v-144h-120z" />
    <glyph glyph-name="Eth" unicode="&#xd0;" horiz-adv-x="750" 
d="M232 -5q-29 0 -60.5 1.5t-61.5 3.5v169.5t1 166.5l-101 -3l4 106l98 -3q1 98 2 180.5t3 138.5q39 5 76 7.5t72 2.5q230 0 347.5 -94.5t117.5 -278.5q0 -194 -128.5 -295.5t-369.5 -101.5zM287 78q95 0 153.5 27.5t85.5 87.5t27 159q0 157 -63.5 238t-196.5 94
q-1 -32 -2 -101.5t-2 -152.5l117 -4l3 -80l-121 -4q0 -75 -0.5 -145t-0.5 -119z" />
    <glyph glyph-name="Ntilde" unicode="&#xd1;" horiz-adv-x="760" 
d="M50 3q0 45 1 109.5t2.5 139t3.5 151t4.5 146t4.5 123t4 81.5q26 2 73.5 3t118.5 1q82 -121 171.5 -257.5t182.5 -291.5l-22 550q26 0 56.5 -1.5t59.5 -3.5q0 -84 -1 -179.5t-2 -189.5t-3 -174.5t-3.5 -135.5t-3.5 -72q-21 -1 -56.5 -2t-71.5 -1.5t-59 -0.5
q-79 129 -175.5 272t-194.5 284l26 -557q-56 0 -116 6zM437 807q-39 0 -83 42q-41 39 -71 39q-13 0 -25 -8.5t-35 -33.5l-25 44q51 79 108 79q42 0 84 -42q39 -39 70 -39q13 0 25.5 8.5t35.5 33.5l25 -44q-52 -79 -109 -79z" />
    <glyph glyph-name="Ograve" unicode="&#xd2;" horiz-adv-x="760" 
d="M380 -5q-78 0 -143.5 28.5t-114 80.5t-75.5 122.5t-27 153.5t27 153.5t75.5 122.5t114 80.5t143.5 28.5t144 -28.5t114.5 -80.5t75 -122.5t26.5 -153.5t-26.5 -153.5t-75 -122.5t-114.5 -80.5t-144 -28.5zM401 79q49 0 85 33t56 93t20 140q0 95 -27 171t-73 120.5
t-103 44.5q-48 0 -84.5 -33t-56.5 -93t-20 -140q0 -94 27 -170.5t73 -121t103 -44.5zM514 797l-284 90l62 96l238 -146z" />
    <glyph glyph-name="Oacute" unicode="&#xd3;" horiz-adv-x="760" 
d="M380 -5q-78 0 -143.5 28.5t-114 80.5t-75.5 122.5t-27 153.5t27 153.5t75.5 122.5t114 80.5t143.5 28.5t144 -28.5t114.5 -80.5t75 -122.5t26.5 -153.5t-26.5 -153.5t-75 -122.5t-114.5 -80.5t-144 -28.5zM401 79q49 0 85 33t56 93t20 140q0 95 -27 171t-73 120.5
t-103 44.5q-48 0 -84.5 -33t-56.5 -93t-20 -140q0 -94 27 -170.5t73 -121t103 -44.5zM246 797l-16 40l238 146l62 -96z" />
    <glyph glyph-name="Ocircumflex" unicode="&#xd4;" horiz-adv-x="760" 
d="M380 -5q-78 0 -143.5 28.5t-114 80.5t-75.5 122.5t-27 153.5t27 153.5t75.5 122.5t114 80.5t143.5 28.5t144 -28.5t114.5 -80.5t75 -122.5t26.5 -153.5t-26.5 -153.5t-75 -122.5t-114.5 -80.5t-144 -28.5zM401 79q49 0 85 33t56 93t20 140q0 95 -27 171t-73 120.5
t-103 44.5q-48 0 -84.5 -33t-56.5 -93t-20 -140q0 -94 27 -170.5t73 -121t103 -44.5zM223 789l-34 30l191 178l191 -178l-34 -30l-157 93z" />
    <glyph glyph-name="Otilde" unicode="&#xd5;" horiz-adv-x="760" 
d="M380 -5q-78 0 -143.5 28.5t-114 80.5t-75.5 122.5t-27 153.5t27 153.5t75.5 122.5t114 80.5t143.5 28.5t144 -28.5t114.5 -80.5t75 -122.5t26.5 -153.5t-26.5 -153.5t-75 -122.5t-114.5 -80.5t-144 -28.5zM401 79q49 0 85 33t56 93t20 140q0 95 -27 171t-73 120.5
t-103 44.5q-48 0 -84.5 -33t-56.5 -93t-20 -140q0 -94 27 -170.5t73 -121t103 -44.5zM445 807q-39 0 -83 42q-41 39 -71 39q-13 0 -25 -8.5t-35 -33.5l-25 44q51 79 108 79q42 0 84 -42q39 -39 70 -39q13 0 25.5 8.5t35.5 33.5l25 -44q-52 -79 -109 -79z" />
    <glyph glyph-name="Odieresis" unicode="&#xd6;" horiz-adv-x="760" 
d="M380 -5q-78 0 -143.5 28.5t-114 80.5t-75.5 122.5t-27 153.5t27 153.5t75.5 122.5t114 80.5t143.5 28.5t144 -28.5t114.5 -80.5t75 -122.5t26.5 -153.5t-26.5 -153.5t-75 -122.5t-114.5 -80.5t-144 -28.5zM401 79q49 0 85 33t56 93t20 140q0 95 -27 171t-73 120.5
t-103 44.5q-48 0 -84.5 -33t-56.5 -93t-20 -140q0 -94 27 -170.5t73 -121t103 -44.5zM425 813v144h120v-144h-120zM215 813v144h120v-144h-120z" />
    <glyph glyph-name="multiply" unicode="&#xd7;" horiz-adv-x="500" 
d="M337 180l-113 113l-108 -108l-64 64l108 108l-110 110l113 113l110 -110l108 108l64 -64l-108 -108l113 -113z" />
    <glyph glyph-name="Oslash" unicode="&#xd8;" horiz-adv-x="760" 
d="M135 -30l-80 55l63 84q-46 51 -72 120.5t-26 150.5q0 83 27 153.5t75.5 122.5t114 80.5t143.5 28.5q53 0 100 -13.5t88 -38.5l57 77l80 -55l-63 -84q46 -51 72 -120.5t26 -150.5q0 -83 -26.5 -153.5t-75 -122.5t-114.5 -80.5t-144 -28.5q-53 0 -100 13.5t-88 38.5z
M198 415q0 -45 6.5 -86.5t18.5 -77.5l265 355q-26 36 -59 55.5t-70 19.5q-48 0 -84.5 -33t-56.5 -93t-20 -140zM401 79q49 0 85 33t56 93t20 140q0 45 -6.5 86.5t-18.5 77.5l-265 -355q26 -36 59 -55.5t70 -19.5z" />
    <glyph glyph-name="Ugrave" unicode="&#xd9;" horiz-adv-x="733" 
d="M372 -5q-95 0 -160.5 33.5t-105.5 107.5t-58 195.5t-18 297.5q0 40 1 73t2 55q65 0 114.5 -1t84.5 -3q-3 -91 -3 -169q0 -180 18 -286.5t59 -152.5t110 -46q64 0 101.5 38.5t54 127t16.5 237.5q0 47 -1.5 105.5t-5.5 146.5l119 4q2 -29 2.5 -66.5t0.5 -77.5
q0 -174 -17 -292.5t-55.5 -190.5t-102 -104t-156.5 -32zM544 797l-284 90l62 96l238 -146z" />
    <glyph glyph-name="Uacute" unicode="&#xda;" horiz-adv-x="733" 
d="M372 -5q-95 0 -160.5 33.5t-105.5 107.5t-58 195.5t-18 297.5q0 40 1 73t2 55q65 0 114.5 -1t84.5 -3q-3 -91 -3 -169q0 -180 18 -286.5t59 -152.5t110 -46q64 0 101.5 38.5t54 127t16.5 237.5q0 47 -1.5 105.5t-5.5 146.5l119 4q2 -29 2.5 -66.5t0.5 -77.5
q0 -174 -17 -292.5t-55.5 -190.5t-102 -104t-156.5 -32zM276 797l-16 40l238 146l62 -96z" />
    <glyph glyph-name="Ucircumflex" unicode="&#xdb;" horiz-adv-x="733" 
d="M372 -5q-95 0 -160.5 33.5t-105.5 107.5t-58 195.5t-18 297.5q0 40 1 73t2 55q65 0 114.5 -1t84.5 -3q-3 -91 -3 -169q0 -180 18 -286.5t59 -152.5t110 -46q64 0 101.5 38.5t54 127t16.5 237.5q0 47 -1.5 105.5t-5.5 146.5l119 4q2 -29 2.5 -66.5t0.5 -77.5
q0 -174 -17 -292.5t-55.5 -190.5t-102 -104t-156.5 -32zM253 789l-34 30l191 178l191 -178l-34 -30l-157 93z" />
    <glyph glyph-name="Udieresis" unicode="&#xdc;" horiz-adv-x="733" 
d="M372 -5q-95 0 -160.5 33.5t-105.5 107.5t-58 195.5t-18 297.5q0 40 1 73t2 55q65 0 114.5 -1t84.5 -3q-3 -91 -3 -169q0 -180 18 -286.5t59 -152.5t110 -46q64 0 101.5 38.5t54 127t16.5 237.5q0 47 -1.5 105.5t-5.5 146.5l119 4q2 -29 2.5 -66.5t0.5 -77.5
q0 -174 -17 -292.5t-55.5 -190.5t-102 -104t-156.5 -32zM455 813v144h120v-144h-120zM245 813v144h120v-144h-120z" />
    <glyph glyph-name="Yacute" unicode="&#xdd;" horiz-adv-x="770" 
d="M488 -2q-33 0 -71 0.5t-72.5 1.5t-58.5 2q0 48 1 107.5t3 120t4 110.5q-55 72 -109 146.5t-98.5 139.5t-71.5 108q29 10 83.5 19.5t118.5 16.5q34 -67 89.5 -158t125.5 -195q57 84 110.5 172t100.5 178l112 -24q-33 -55 -78.5 -122t-97 -138.5t-102.5 -138.5
q3 -48 5.5 -107.5t4 -121t1.5 -117.5zM266 797l-16 40l238 146l62 -96z" />
    <glyph glyph-name="Thorn" unicode="&#xde;" horiz-adv-x="660" 
d="M59 -2q-2 54 -3.5 139.5t-3 189.5t-2 215t-0.5 215q26 0 60.5 -0.5t68 -1.5t53.5 -2v-52v-56q208 -4 308 -58t100 -164q0 -81 -51 -143t-143.5 -97.5t-215.5 -38.5q-1 -45 -1.5 -81.5t-1.5 -60.5q-31 -1 -64 -2t-60.5 -1.5t-43.5 -0.5zM455 374q0 83 -59 132.5t-164 56.5
q0 -84 -0.5 -171.5t-1.5 -165.5q118 3 171.5 38t53.5 110z" />
    <glyph glyph-name="germandbls" unicode="&#xdf;" horiz-adv-x="610" 
d="M313 -10l-17 70q61 11 95 51t34 101q0 79 -56 123.5t-159 49.5v-9q0 -77 3.5 -177t8.5 -196q-38 -3 -79.5 -4.5t-82.5 -1.5q-5 86 -7.5 151t-2.5 120q0 183 27.5 292t90 157t167.5 48q103 0 161.5 -39t58.5 -107q0 -108 -160 -159q54 -8 96 -37t65.5 -72t23.5 -95
q0 -51 -22.5 -98.5t-60 -85.5t-85.5 -60t-99 -22zM308 685q-47 0 -69.5 -50.5t-27.5 -174.5q199 51 199 133q0 24 -14 45t-37.5 34t-50.5 13z" />
    <glyph glyph-name="agrave" unicode="&#xe0;" horiz-adv-x="630" 
d="M222 -5q-85 0 -138.5 41.5t-53.5 108.5q0 61 44.5 113t123.5 88.5t181 50.5q-36 88 -99 88q-38 0 -98 -29t-122 -76l-30 100q149 85 282 85q104 0 167 -56.5t92 -180t29 -326.5q-19 -1 -67.5 -2.5t-104.5 -1.5q0 32 -1 63q-103 -66 -205 -66zM195 152q0 -31 24.5 -49
t65.5 -18q72 0 139 62q-6 106 -23 179q-39 -8 -75.5 -26t-66 -42.5t-47 -52t-17.5 -53.5zM449 597l-284 90l62 96l238 -146z" />
    <glyph glyph-name="aacute" unicode="&#xe1;" horiz-adv-x="630" 
d="M222 -5q-85 0 -138.5 41.5t-53.5 108.5q0 61 44.5 113t123.5 88.5t181 50.5q-36 88 -99 88q-38 0 -98 -29t-122 -76l-30 100q149 85 282 85q104 0 167 -56.5t92 -180t29 -326.5q-19 -1 -67.5 -2.5t-104.5 -1.5q0 32 -1 63q-103 -66 -205 -66zM195 152q0 -31 24.5 -49
t65.5 -18q72 0 139 62q-6 106 -23 179q-39 -8 -75.5 -26t-66 -42.5t-47 -52t-17.5 -53.5zM181 597l-16 40l238 146l62 -96z" />
    <glyph glyph-name="acircumflex" unicode="&#xe2;" horiz-adv-x="630" 
d="M222 -5q-85 0 -138.5 41.5t-53.5 108.5q0 61 44.5 113t123.5 88.5t181 50.5q-36 88 -99 88q-38 0 -98 -29t-122 -76l-30 100q149 85 282 85q104 0 167 -56.5t92 -180t29 -326.5q-19 -1 -67.5 -2.5t-104.5 -1.5q0 32 -1 63q-103 -66 -205 -66zM195 152q0 -31 24.5 -49
t65.5 -18q72 0 139 62q-6 106 -23 179q-39 -8 -75.5 -26t-66 -42.5t-47 -52t-17.5 -53.5zM158 589l-34 30l191 178l191 -178l-34 -30l-157 93z" />
    <glyph glyph-name="atilde" unicode="&#xe3;" horiz-adv-x="630" 
d="M222 -5q-85 0 -138.5 41.5t-53.5 108.5q0 61 44.5 113t123.5 88.5t181 50.5q-36 88 -99 88q-38 0 -98 -29t-122 -76l-30 100q149 85 282 85q104 0 167 -56.5t92 -180t29 -326.5q-19 -1 -67.5 -2.5t-104.5 -1.5q0 32 -1 63q-103 -66 -205 -66zM195 152q0 -31 24.5 -49
t65.5 -18q72 0 139 62q-6 106 -23 179q-39 -8 -75.5 -26t-66 -42.5t-47 -52t-17.5 -53.5zM380 607q-39 0 -83 42q-41 39 -71 39q-13 0 -25 -8.5t-35 -33.5l-25 44q51 79 108 79q42 0 84 -42q39 -39 70 -39q13 0 25.5 8.5t35.5 33.5l25 -44q-52 -79 -109 -79z" />
    <glyph glyph-name="adieresis" unicode="&#xe4;" horiz-adv-x="630" 
d="M222 -5q-85 0 -138.5 41.5t-53.5 108.5q0 61 44.5 113t123.5 88.5t181 50.5q-36 88 -99 88q-38 0 -98 -29t-122 -76l-30 100q149 85 282 85q104 0 167 -56.5t92 -180t29 -326.5q-19 -1 -67.5 -2.5t-104.5 -1.5q0 32 -1 63q-103 -66 -205 -66zM195 152q0 -31 24.5 -49
t65.5 -18q72 0 139 62q-6 106 -23 179q-39 -8 -75.5 -26t-66 -42.5t-47 -52t-17.5 -53.5zM360 613v144h120v-144h-120zM150 613v144h120v-144h-120z" />
    <glyph glyph-name="aring" unicode="&#xe5;" horiz-adv-x="630" 
d="M222 -5q-85 0 -138.5 41.5t-53.5 108.5q0 61 44.5 113t123.5 88.5t181 50.5q-36 88 -99 88q-38 0 -98 -29t-122 -76l-30 100q149 85 282 85q104 0 167 -56.5t92 -180t29 -326.5q-19 -1 -67.5 -2.5t-104.5 -1.5q0 32 -1 63q-103 -66 -205 -66zM195 152q0 -31 24.5 -49
t65.5 -18q72 0 139 62q-6 106 -23 179q-39 -8 -75.5 -26t-66 -42.5t-47 -52t-17.5 -53.5zM317 548q-54 0 -87 31.5t-33 82.5q0 50 32 80t84 30q54 0 87 -31.5t33 -82.5q0 -49 -31.5 -79.5t-84.5 -30.5zM321 586q26 0 26 62q0 38 -10.5 62t-27.5 24q-26 0 -26 -62
q0 -37 11 -61.5t27 -24.5z" />
    <glyph glyph-name="ae" unicode="&#xe6;" horiz-adv-x="960" 
d="M217 -5q-86 0 -136.5 41.5t-50.5 111.5q0 63 41 116t114 88t170 47q-40 86 -105 86q-38 0 -84 -28.5t-86 -76.5l-50 100q73 46 128.5 65.5t113.5 19.5q133 0 205 -96q39 44 93.5 70t117.5 26q72 0 126.5 -34t85 -94t30.5 -140l-372 -74q15 -65 54 -105.5t91 -40.5
q45 0 86 30.5t69 85.5l72 -60q-103 -138 -261 -138q-65 0 -118 23.5t-89 64.5q-54 -42 -118 -65t-127 -23zM659 485q-30 0 -53.5 -22.5t-38.5 -62t-17 -89.5l217 32q-2 39 -17.5 71t-39 51.5t-51.5 19.5zM180 164q0 -36 24.5 -60t60.5 -24q64 0 134 83q-3 95 -20 166
q-53 -7 -98.5 -31.5t-73 -60t-27.5 -73.5z" />
    <glyph glyph-name="ccedilla" unicode="&#xe7;" horiz-adv-x="590" 
d="M321 -5q-59 0 -111.5 22.5t-93 61.5t-63.5 90.5t-23 108.5q0 59 23.5 110.5t65.5 91.5t96.5 62.5t116.5 22.5q130 0 248 -108l-95 -104q-32 59 -81.5 95.5t-97.5 36.5q-52 0 -83.5 -44t-31.5 -118q0 -67 23.5 -123t63.5 -89.5t87 -33.5q41 0 81.5 26t67.5 70l61 -60
q-118 -118 -254 -118zM265 -232l-14 42q34 15 52.5 31t18.5 29q0 19 -31 37.5t-76 27.5q14 21 42 52.5t57 59.5l40 -20l-27 -46q42 -19 66 -45t24 -54q0 -35 -39.5 -64.5t-112.5 -49.5z" />
    <glyph glyph-name="egrave" unicode="&#xe8;" horiz-adv-x="620" 
d="M315 -5q-81 0 -145.5 37.5t-102 102t-37.5 146.5t36.5 146t100 101t144.5 37q76 0 136.5 -33.5t98 -93.5t44.5 -141l-397 -74q19 -65 60 -105.5t92 -40.5q47 0 93 32.5t71 83.5l71 -60q-49 -66 -118 -102t-147 -36zM180 321v-10l233 32q-7 64 -41 103t-83 39
q-51 0 -80 -43.5t-29 -120.5zM444 597l-284 90l62 96l238 -146z" />
    <glyph glyph-name="eacute" unicode="&#xe9;" horiz-adv-x="620" 
d="M315 -5q-81 0 -145.5 37.5t-102 102t-37.5 146.5t36.5 146t100 101t144.5 37q76 0 136.5 -33.5t98 -93.5t44.5 -141l-397 -74q19 -65 60 -105.5t92 -40.5q47 0 93 32.5t71 83.5l71 -60q-49 -66 -118 -102t-147 -36zM180 321v-10l233 32q-7 64 -41 103t-83 39
q-51 0 -80 -43.5t-29 -120.5zM176 597l-16 40l238 146l62 -96z" />
    <glyph glyph-name="ecircumflex" unicode="&#xea;" horiz-adv-x="620" 
d="M315 -5q-81 0 -145.5 37.5t-102 102t-37.5 146.5t36.5 146t100 101t144.5 37q76 0 136.5 -33.5t98 -93.5t44.5 -141l-397 -74q19 -65 60 -105.5t92 -40.5q47 0 93 32.5t71 83.5l71 -60q-49 -66 -118 -102t-147 -36zM180 321v-10l233 32q-7 64 -41 103t-83 39
q-51 0 -80 -43.5t-29 -120.5zM153 589l-34 30l191 178l191 -178l-34 -30l-157 93z" />
    <glyph glyph-name="edieresis" unicode="&#xeb;" horiz-adv-x="620" 
d="M315 -5q-81 0 -145.5 37.5t-102 102t-37.5 146.5t36.5 146t100 101t144.5 37q76 0 136.5 -33.5t98 -93.5t44.5 -141l-397 -74q19 -65 60 -105.5t92 -40.5q47 0 93 32.5t71 83.5l71 -60q-49 -66 -118 -102t-147 -36zM180 321v-10l233 32q-7 64 -41 103t-83 39
q-51 0 -80 -43.5t-29 -120.5zM355 613v144h120v-144h-120zM145 613v144h120v-144h-120z" />
    <glyph glyph-name="igrave" unicode="&#xec;" horiz-adv-x="272" 
d="M55 -2q-1 33 -2 89.5t-1.5 130t-1 157.5t-0.5 172q45 0 94.5 -1t77.5 -3q0 -73 -0.5 -153t-1 -155.5t-1.5 -136.5t-2 -96q-46 -2 -88 -3t-74 -1zM270 597l-284 90l62 96l238 -146z" />
    <glyph glyph-name="iacute" unicode="&#xed;" horiz-adv-x="272" 
d="M55 -2q-1 33 -2 89.5t-1.5 130t-1 157.5t-0.5 172q45 0 94.5 -1t77.5 -3q0 -73 -0.5 -153t-1 -155.5t-1.5 -136.5t-2 -96q-46 -2 -88 -3t-74 -1zM2 597l-16 40l238 146l62 -96z" />
    <glyph glyph-name="icircumflex" unicode="&#xee;" horiz-adv-x="272" 
d="M55 -2q-1 33 -2 89.5t-1.5 130t-1 157.5t-0.5 172q45 0 94.5 -1t77.5 -3q0 -73 -0.5 -153t-1 -155.5t-1.5 -136.5t-2 -96q-46 -2 -88 -3t-74 -1zM-21 589l-34 30l191 178l191 -178l-34 -30l-157 93z" />
    <glyph glyph-name="idieresis" unicode="&#xef;" horiz-adv-x="272" 
d="M55 -2q-1 33 -2 89.5t-1.5 130t-1 157.5t-0.5 172q45 0 94.5 -1t77.5 -3q0 -73 -0.5 -153t-1 -155.5t-1.5 -136.5t-2 -96q-46 -2 -88 -3t-74 -1zM181 613v144h120v-144h-120zM-29 613v144h120v-144h-120z" />
    <glyph glyph-name="eth" unicode="&#xf0;" horiz-adv-x="600" 
d="M289 -5q-77 0 -135.5 33t-91 92t-32.5 138q0 78 31.5 138.5t87.5 94.5t128 34q28 0 56 -6q-18 35 -40 73l-229 -25l-11 60l192 45q-19 30 -41 63l101 40q35 -37 67 -74l119 28l37 -111l-85 -9q62 -90 94.5 -175t32.5 -160q0 -81 -36.5 -144t-99.5 -99t-145 -36zM181 304
q0 -63 19.5 -114.5t51.5 -82t71 -30.5q44 0 68 40.5t24 113.5q0 76 -28 161q-19 24 -47 38.5t-60 14.5q-48 0 -73.5 -36t-25.5 -105z" />
    <glyph glyph-name="ntilde" unicode="&#xf1;" horiz-adv-x="631" 
d="M35 -2q-1 32 -2 88.5t-1.5 131t-1 161t-0.5 178.5q22 0 54 -0.5t64.5 -1.5t53.5 -2v-51q85 63 173 63q81 0 131 -57t72.5 -182t22.5 -328q-23 0 -55 0.5t-63 1.5t-54 2q0 177 -10 283t-33 153t-62 47q-32 0 -65 -27t-57 -71q-1 -85 -1.5 -161t-1.5 -134.5t-2 -89.5
q-31 -1 -75.5 -2.5t-86.5 -1.5zM380 607q-39 0 -83 42q-41 39 -71 39q-13 0 -25 -8.5t-35 -33.5l-25 44q51 79 108 79q42 0 84 -42q39 -39 70 -39q13 0 25.5 8.5t35.5 33.5l25 -44q-52 -79 -109 -79z" />
    <glyph glyph-name="ograve" unicode="&#xf2;" horiz-adv-x="640" 
d="M312 -5q-79 0 -143 37t-101.5 100t-37.5 140q0 61 23 114t64.5 93.5t95.5 63t115 22.5q79 0 143 -37t101.5 -99.5t37.5 -140.5q0 -61 -23 -114t-64.5 -93.5t-95 -63t-115.5 -22.5zM341 76q53 0 83 45.5t30 126.5q0 68 -20 121t-55 84t-80 31q-53 0 -83 -45.5t-30 -126.5
q0 -67 20 -120.5t55.5 -84.5t79.5 -31zM454 597l-284 90l62 96l238 -146z" />
    <glyph glyph-name="oacute" unicode="&#xf3;" horiz-adv-x="640" 
d="M312 -5q-79 0 -143 37t-101.5 100t-37.5 140q0 61 23 114t64.5 93.5t95.5 63t115 22.5q79 0 143 -37t101.5 -99.5t37.5 -140.5q0 -61 -23 -114t-64.5 -93.5t-95 -63t-115.5 -22.5zM341 76q53 0 83 45.5t30 126.5q0 68 -20 121t-55 84t-80 31q-53 0 -83 -45.5t-30 -126.5
q0 -67 20 -120.5t55.5 -84.5t79.5 -31zM186 597l-16 40l238 146l62 -96z" />
    <glyph glyph-name="ocircumflex" unicode="&#xf4;" horiz-adv-x="640" 
d="M312 -5q-79 0 -143 37t-101.5 100t-37.5 140q0 61 23 114t64.5 93.5t95.5 63t115 22.5q79 0 143 -37t101.5 -99.5t37.5 -140.5q0 -61 -23 -114t-64.5 -93.5t-95 -63t-115.5 -22.5zM341 76q53 0 83 45.5t30 126.5q0 68 -20 121t-55 84t-80 31q-53 0 -83 -45.5t-30 -126.5
q0 -67 20 -120.5t55.5 -84.5t79.5 -31zM163 589l-34 30l191 178l191 -178l-34 -30l-157 93z" />
    <glyph glyph-name="otilde" unicode="&#xf5;" horiz-adv-x="640" 
d="M312 -5q-79 0 -143 37t-101.5 100t-37.5 140q0 61 23 114t64.5 93.5t95.5 63t115 22.5q79 0 143 -37t101.5 -99.5t37.5 -140.5q0 -61 -23 -114t-64.5 -93.5t-95 -63t-115.5 -22.5zM341 76q53 0 83 45.5t30 126.5q0 68 -20 121t-55 84t-80 31q-53 0 -83 -45.5t-30 -126.5
q0 -67 20 -120.5t55.5 -84.5t79.5 -31zM385 607q-39 0 -83 42q-41 39 -71 39q-13 0 -25 -8.5t-35 -33.5l-25 44q51 79 108 79q42 0 84 -42q39 -39 70 -39q13 0 25.5 8.5t35.5 33.5l25 -44q-52 -79 -109 -79z" />
    <glyph glyph-name="odieresis" unicode="&#xf6;" horiz-adv-x="640" 
d="M312 -5q-79 0 -143 37t-101.5 100t-37.5 140q0 61 23 114t64.5 93.5t95.5 63t115 22.5q79 0 143 -37t101.5 -99.5t37.5 -140.5q0 -61 -23 -114t-64.5 -93.5t-95 -63t-115.5 -22.5zM341 76q53 0 83 45.5t30 126.5q0 68 -20 121t-55 84t-80 31q-53 0 -83 -45.5t-30 -126.5
q0 -67 20 -120.5t55.5 -84.5t79.5 -31zM365 613v144h120v-144h-120zM155 613v144h120v-144h-120z" />
    <glyph glyph-name="divide" unicode="&#xf7;" horiz-adv-x="500" 
d="M304 477q-36 5 -67.5 7t-54.5 2q0 47 1 79t2 61q40 0 75.5 -2t56.5 -6q-4 -33 -7.5 -68t-5.5 -73zM50 335v90h400v-90h-400zM199 134q-7 37 -11.5 71t-7.5 67q50 10 131 10q3 -75 9 -141q-25 0 -56 -1.5t-65 -5.5z" />
    <glyph glyph-name="oslash" unicode="&#xf8;" horiz-adv-x="640" 
d="M145 -35l-80 55l44 58q-37 38 -58 87.5t-21 106.5q0 61 23 114t64.5 93.5t95.5 63t115 22.5q66 0 124 -27l43 57l80 -55l-44 -58q37 -38 58 -87.5t21 -106.5q0 -61 -23 -114t-64.5 -93.5t-95 -63t-115.5 -22.5q-66 0 -124 27zM186 312q0 -59 16 -109l183 244
q-38 37 -86 37q-53 0 -83 -45.5t-30 -126.5zM341 76q53 0 83 45.5t30 126.5q0 59 -16 109l-183 -244q38 -37 86 -37z" />
    <glyph glyph-name="ugrave" unicode="&#xf9;" horiz-adv-x="630" 
d="M253 -5q-223 0 -223 407q0 68 6 146q24 2 65.5 3t106.5 1q-6 -100 -6 -178q0 -154 24.5 -226.5t75.5 -72.5q34 0 68.5 28t59.5 74q-1 79 -1.5 177.5t-0.5 202.5q41 0 90.5 -1t81.5 -3q0 -81 -0.5 -164t-1 -159t-1.5 -135.5t-2 -92.5q-39 -2 -81 -3t-81 -1q-1 24 -2 62
q-86 -65 -178 -65zM452 597l-284 90l62 96l238 -146z" />
    <glyph glyph-name="uacute" unicode="&#xfa;" horiz-adv-x="630" 
d="M253 -5q-223 0 -223 407q0 68 6 146q24 2 65.5 3t106.5 1q-6 -100 -6 -178q0 -154 24.5 -226.5t75.5 -72.5q34 0 68.5 28t59.5 74q-1 79 -1.5 177.5t-0.5 202.5q41 0 90.5 -1t81.5 -3q0 -81 -0.5 -164t-1 -159t-1.5 -135.5t-2 -92.5q-39 -2 -81 -3t-81 -1q-1 24 -2 62
q-86 -65 -178 -65zM184 597l-16 40l238 146l62 -96z" />
    <glyph glyph-name="ucircumflex" unicode="&#xfb;" horiz-adv-x="630" 
d="M253 -5q-223 0 -223 407q0 68 6 146q24 2 65.5 3t106.5 1q-6 -100 -6 -178q0 -154 24.5 -226.5t75.5 -72.5q34 0 68.5 28t59.5 74q-1 79 -1.5 177.5t-0.5 202.5q41 0 90.5 -1t81.5 -3q0 -81 -0.5 -164t-1 -159t-1.5 -135.5t-2 -92.5q-39 -2 -81 -3t-81 -1q-1 24 -2 62
q-86 -65 -178 -65zM161 589l-34 30l191 178l191 -178l-34 -30l-157 93z" />
    <glyph glyph-name="udieresis" unicode="&#xfc;" horiz-adv-x="630" 
d="M253 -5q-223 0 -223 407q0 68 6 146q24 2 65.5 3t106.5 1q-6 -100 -6 -178q0 -154 24.5 -226.5t75.5 -72.5q34 0 68.5 28t59.5 74q-1 79 -1.5 177.5t-0.5 202.5q41 0 90.5 -1t81.5 -3q0 -81 -0.5 -164t-1 -159t-1.5 -135.5t-2 -92.5q-39 -2 -81 -3t-81 -1q-1 24 -2 62
q-86 -65 -178 -65zM363 613v144h120v-144h-120zM153 613v144h120v-144h-120z" />
    <glyph glyph-name="yacute" unicode="&#xfd;" horiz-adv-x="620" 
d="M80 -132l-10 94q53 3 95.5 13.5t77.5 32.5q-42 84 -85 179t-81.5 187.5t-66.5 169.5q36 6 90 12t106 10q25 -77 66 -185t89 -227q33 67 63 167t65 241l121 -14q-49 -180 -102.5 -307.5t-116 -208.5t-139.5 -120t-172 -44zM216 597l-16 40l238 146l62 -96z" />
    <glyph glyph-name="thorn" unicode="&#xfe;" horiz-adv-x="600" 
d="M222 -117q-31 0 -80.5 1.5t-91.5 2.5v158t0.5 177t1 177.5t1 159.5t1 124t1.5 70q30 2 70 3t92 1q1 -22 1.5 -84.5t1.5 -150.5q61 43 128 43q64 0 114 -36t79 -98.5t29 -142.5q0 -81 -30.5 -147.5t-82 -106t-115.5 -39.5q-57 0 -120 33v-145zM302 483q-44 0 -82 -51
q1 -68 1 -141.5t1 -146.5q17 -32 42.5 -50.5t54.5 -18.5q47 0 73.5 48t26.5 133q0 65 -15.5 116.5t-41.5 81t-60 29.5z" />
    <glyph glyph-name="ydieresis" unicode="&#xff;" horiz-adv-x="620" 
d="M80 -132l-10 94q53 3 95.5 13.5t77.5 32.5q-42 84 -85 179t-81.5 187.5t-66.5 169.5q36 6 90 12t106 10q25 -77 66 -185t89 -227q33 67 63 167t65 241l121 -14q-49 -180 -102.5 -307.5t-116 -208.5t-139.5 -120t-172 -44zM395 613v144h120v-144h-120zM185 613v144h120
v-144h-120z" />
    <glyph glyph-name="dotlessi" unicode="&#x131;" horiz-adv-x="272" 
d="M55 -2q-1 33 -2 89.5t-1.5 130t-1 157.5t-0.5 172q45 0 94.5 -1t77.5 -3q0 -73 -0.5 -153t-1 -155.5t-1.5 -136.5t-2 -96q-46 -2 -88 -3t-74 -1z" />
    <glyph glyph-name="Lslash" unicode="&#x141;" horiz-adv-x="722" 
d="M52 235l-42 80l126 66q-2 97 -3 189.5t-1 183.5q23 1 80 1.5t128 0.5q0 -59 -0.5 -127.5t-1.5 -141.5l110 58l42 -80l-153 -80q-1 -84 -3 -163.5t-4 -147.5q104 0 202 2.5t172 6.5l3 -88q-23 1 -76 2t-128.5 1.5t-166 1t-187.5 0.5q-6 144 -10 281z" />
    <glyph glyph-name="lslash" unicode="&#x142;" horiz-adv-x="444" 
d="M52 251l-42 80l121 60q-1 46 -1 100q0 57 1.5 124.5t3.5 137.5q29 2 69 3t98 1q-2 -57 -3 -112t-1 -102v-70l94 46l42 -80l-133 -65q7 -148 28 -221t61 -93l-70 -80q-57 7 -94.5 39.5t-59 99t-29.5 174.5z" />
    <glyph glyph-name="OE" unicode="&#x152;" horiz-adv-x="990" 
d="M360 -5q-74 0 -136.5 28.5t-108 80t-70.5 121.5t-25 154q0 113 45 200t124 136.5t181 49.5q42 0 79 -9q52 1 120.5 2.5t141 3.5t137 4t108.5 4l4 -112l-278 13v-125.5t1 -121.5l258 18l-8 -114l-250 9q1 -85 2 -151t2 -101l272 13l-5 -108q-73 3 -163 6t-182 5.5
t-171 2.5q-36 -9 -78 -9zM381 82q68 0 105.5 68t37.5 191q0 99 -23.5 175t-65 119t-96.5 43q-67 0 -105 -68t-38 -191q0 -98 23.5 -174.5t65.5 -119.5t96 -43z" />
    <glyph glyph-name="oe" unicode="&#x153;" horiz-adv-x="990" 
d="M292 -5q-75 0 -134.5 34t-93.5 94t-34 136q0 64 23 119.5t64 97.5t95 65.5t116 23.5t113 -23.5t87 -64.5q39 41 90 64.5t108 23.5q69 0 122 -34t82.5 -94.5t29.5 -139.5l-362 -72q14 -68 51 -108t89 -40q44 0 83 30.5t67 85.5l72 -60q-102 -138 -256 -138
q-64 0 -116.5 23t-87.5 63q-40 -40 -93.5 -63t-114.5 -23zM689 485q-43 0 -70 -47.5t-29 -124.5l207 30q-2 39 -17.5 71t-39 51.5t-51.5 19.5zM326 76q51 0 82 49.5t31 130.5q0 64 -19.5 115.5t-52 82t-73.5 30.5q-51 0 -82 -49.5t-31 -130.5q0 -64 19.5 -115.5t52.5 -82
t73 -30.5z" />
    <glyph glyph-name="Scaron" unicode="&#x160;" horiz-adv-x="650" 
d="M328 -5q-55 0 -113.5 15t-111 41.5t-88.5 60.5q23 33 51 66.5t62 66.5q39 -42 86 -77.5t94.5 -57.5t87.5 -22q36 0 64.5 19.5t28.5 56.5q0 35 -27 62.5t-70.5 51t-92.5 46.5q-43 20 -85 42t-76.5 48t-55 58.5t-20.5 73.5t21.5 80t60.5 70.5t92.5 50t117.5 18.5
q73 0 147.5 -25t129.5 -72q-18 -34 -48.5 -67t-59.5 -56q-61 58 -121 97.5t-113 39.5q-39 0 -58.5 -19.5t-19.5 -41.5q0 -24 22 -44t58 -39t79 -39q45 -21 91.5 -45t86 -54.5t63.5 -69.5t24 -89t-24.5 -94.5t-67 -78.5t-98 -53.5t-117.5 -19.5zM335 789l-191 178l34 30
l157 -93l157 93l34 -30z" />
    <glyph glyph-name="scaron" unicode="&#x161;" horiz-adv-x="610" 
d="M316 -5q-41 0 -93 6.5t-103 17t-90 22.5l44 121q38 -22 84.5 -41.5t91.5 -31.5t77 -12q43 0 63 19.5t20 41.5q0 26 -22 43.5t-57.5 31t-76.5 25.5q-37 11 -74 24t-67.5 30.5t-49 42.5t-18.5 60q0 45 32 83.5t91 62.5t140 24q66 0 133.5 -17t123.5 -48l-56 -95
q-55 35 -106.5 57.5t-97.5 22.5q-44 0 -67 -19t-23 -39q0 -19 18 -31.5t48.5 -21.5t65.5 -18q39 -9 80 -21.5t76 -31.5t56 -48.5t21 -73.5q0 -54 -34 -96t-93.5 -66t-136.5 -24zM305 589l-191 178l34 30l157 -93l157 93l34 -30z" />
    <glyph glyph-name="Ydieresis" unicode="&#x178;" horiz-adv-x="770" 
d="M488 -2q-33 0 -71 0.5t-72.5 1.5t-58.5 2q0 48 1 107.5t3 120t4 110.5q-55 72 -109 146.5t-98.5 139.5t-71.5 108q29 10 83.5 19.5t118.5 16.5q34 -67 89.5 -158t125.5 -195q57 84 110.5 172t100.5 178l112 -24q-33 -55 -78.5 -122t-97 -138.5t-102.5 -138.5
q3 -48 5.5 -107.5t4 -121t1.5 -117.5zM445 813v144h120v-144h-120zM235 813v144h120v-144h-120z" />
    <glyph glyph-name="Zcaron" unicode="&#x17d;" horiz-adv-x="660" 
d="M630 -2h-124t-140.5 0.5t-136 1t-111.5 1t-66 1.5l-22 87q129 181 225.5 328t165.5 266q-54 -2 -118.5 -6t-129.5 -8.5t-121 -10.5l-7 100h162t157 -0.5t134.5 -1.5t94.5 -2l22 -71q-31 -55 -67 -115t-80 -131.5t-100 -159.5t-127 -199q94 4 194 11.5t191 15.5zM330 789
l-191 178l34 30l157 -93l157 93l34 -30z" />
    <glyph glyph-name="zcaron" unicode="&#x17e;" horiz-adv-x="610" 
d="M580 -4q-119 0 -225.5 1t-186 3t-119.5 4l-19 99q35 31 78.5 76t91 97.5t92.5 105.5t81 100q-55 0 -116 -2.5t-116.5 -6.5t-95.5 -8l-7 95q84 0 164 -0.5t149 -2t121 -3.5t79 -4l21 -97q-45 -54 -103.5 -120t-121 -133t-120.5 -126q93 0 186 5t161 12zM305 589l-191 178
l34 30l157 -93l157 93l34 -30z" />
    <glyph glyph-name="florin" unicode="&#x192;" horiz-adv-x="630" 
d="M50 -30l-20 80q49 0 81.5 11.5t53 40t33 80t20.5 132.5q3 29 6 56h-134v90h149q22 111 61.5 177.5t102.5 97.5t157 35l20 -80q-62 0 -98 -18.5t-55.5 -68.5t-30.5 -143h124v-90h-134q-19 -146 -57.5 -232t-105.5 -124.5t-173 -43.5z" />
    <glyph glyph-name="uni02BB" unicode="&#x2bb;" horiz-adv-x="236" 
d="M143 874l39 -36l-49 -53q17 -23 39.5 -48t53.5 -53q-23 -25 -52 -50t-53 -42q-32 41 -59.5 82.5t-51.5 82.5q31 26 66 56.5t67 60.5z" />
    <glyph glyph-name="uni02BC" unicode="&#x2bc;" horiz-adv-x="236" 
d="M93 592l-39 37l49 52q-16 23 -39 48.5t-54 52.5q24 26 52.5 51t52.5 41q32 -40 60 -82t51 -83q-31 -25 -66 -56t-67 -61z" />
    <glyph glyph-name="circumflex" unicode="&#x2c6;" horiz-adv-x="402" 
d="M44 729l-34 30l191 178l191 -178l-34 -30l-157 93z" />
    <glyph glyph-name="caron" unicode="&#x2c7;" horiz-adv-x="402" 
d="M201 729l-191 178l34 30l157 -93l157 93l34 -30z" />
    <glyph glyph-name="uni02C9" unicode="&#x2c9;" horiz-adv-x="360" 
d="M10 780v80h340v-80h-340z" />
    <glyph glyph-name="breve" unicode="&#x2d8;" horiz-adv-x="380" 
d="M280 915l90 -10q0 -83 -47 -129t-133 -46q-85 0 -132.5 46t-47.5 129l90 10q0 -70 23 -107.5t67 -37.5t67 37.5t23 107.5z" />
    <glyph glyph-name="dotaccent" unicode="&#x2d9;" horiz-adv-x="150" 
d="M10 760v150h130v-150h-130z" />
    <glyph glyph-name="ring" unicode="&#x2da;" horiz-adv-x="256" 
d="M130 688q-54 0 -87 31.5t-33 82.5q0 50 32 80t84 30q54 0 87 -31.5t33 -82.5q0 -49 -31.5 -79.5t-84.5 -30.5zM134 726q26 0 26 62q0 38 -10.5 62t-27.5 24q-26 0 -26 -62q0 -37 11 -61.5t27 -24.5z" />
    <glyph glyph-name="ogonek" unicode="&#x2db;" horiz-adv-x="250" 
d="M125 -190q-50 0 -82.5 29t-32.5 73q0 43 29.5 85t72.5 62l57 -46q-19 -6 -34.5 -32.5t-15.5 -54.5q0 -22 12 -36t32 -14q13 0 27 6.5t18 13.5l32 -29q-16 -26 -47.5 -41.5t-67.5 -15.5z" />
    <glyph glyph-name="tilde" unicode="&#x2dc;" horiz-adv-x="368" 
d="M249 747q-39 0 -83 42q-41 39 -71 39q-13 0 -25 -8.5t-35 -33.5l-25 44q51 79 108 79q42 0 84 -42q39 -39 70 -39q13 0 25.5 8.5t35.5 33.5l25 -44q-52 -79 -109 -79z" />
    <glyph glyph-name="hungarumlaut" unicode="&#x2dd;" horiz-adv-x="406" 
d="M396 882l-159 -151l-34 30l106 178zM203 880l-159 -151l-34 30l106 178z" />
    <glyph glyph-name="uni0394" unicode="&#x394;" horiz-adv-x="760" 
d="M38 -14q-7 9 -14 40.5t-9 59.5q26 83 61.5 178.5t86.5 216.5t121 279q70 10 181 10q58 -137 128 -326.5t152 -433.5q-19 -4 -69 -7.5t-122.5 -6.5t-158.5 -5t-177.5 -3.5t-179.5 -1.5zM321 653q-25 -64 -52 -140t-53 -155.5t-48 -154.5t-37 -137q50 0 114.5 2.5t131.5 7
t125 9.5q-24 86 -54 185t-63 198t-64 185z" />
    <glyph glyph-name="Pi" unicode="&#x3a0;" horiz-adv-x="800" 
d="M283 -3q-65 0 -108.5 1t-81.5 3q6 131 9 300t3 361q-56 0 -72 1l-3 84q54 2 126 3.5t153.5 2.5t164.5 2t159.5 1.5t136.5 0.5l-4 -100h-71q0 -249 1.5 -412.5t4.5 -243.5q-37 -2 -81.5 -3t-109.5 -1q0 454 7 661q-121 1 -239 2q3 -87 4 -247t1 -416z" />
    <glyph glyph-name="Sigma" unicode="&#x3a3;" horiz-adv-x="645" 
d="M594 762l8 -109l-380 13q22 -20 53 -53.5t64.5 -72.5t62.5 -76.5t47 -64.5q-15 -24 -43.5 -61t-65.5 -80.5t-77 -87.5t-78 -82l430 14l-4 -109q-38 2 -93.5 4t-119.5 4t-129 3t-124.5 2t-104.5 1q-10 40 -10 83q58 48 108.5 92.5t88.5 81t56 58.5q-22 29 -54.5 64.5
t-67.5 71.5t-66.5 66t-52.5 46q0 13 3 36.5t7.5 51t10 52t9.5 38.5q90 0 183.5 1.5t180.5 5t158 7.5z" />
    <glyph glyph-name="uni03A9" unicode="&#x3a9;" horiz-adv-x="790" 
d="M30 -3q0 30 3 61t9 55q47 -26 164 -41l10 46q-84 44 -133 125.5t-49 183.5q0 76 27 140t75.5 111t114 73t143.5 26t144 -26t114.5 -73t75 -111t26.5 -140q0 -100 -46 -179.5t-126 -124.5l5 -56q29 1 61 5t61 10t47 12q2 -17 3 -46t1 -55l-318 11l15 162q56 18 87.5 79.5
t31.5 149.5q0 84 -27 151.5t-73 107t-103 39.5q-48 0 -84.5 -29.5t-56.5 -82t-20 -123.5q0 -90 32.5 -163.5t87.5 -108.5l7 -180z" />
    <glyph glyph-name="uni03BC" unicode="&#x3bc;" horiz-adv-x="684" 
d="M50 -116q0 60 1.5 136.5t3.5 158.5t5 158t6 135.5t6 90.5l149 -5q0 -237 25 -360.5t72 -123.5t71 122t24 362l150 5q0 -208 24 -344t67 -177l-74 -62l-75 86q-28 -38 -68.5 -59.5t-85.5 -21.5q-37 0 -77 12.5t-60 29.5l5 -150z" />
    <glyph glyph-name="pi" unicode="&#x3c0;" horiz-adv-x="730" 
d="M64 3q7 60 12 139t8.5 164.5t5.5 165.5h-60l4 97q62 -2 158.5 -3t213.5 -1.5t241 -0.5l3 -84q-39 -1 -83 -2q-9 -78 -9 -183q0 -86 6 -136.5t20.5 -72t38.5 -21.5q11 0 31 3.5t25 6.5l21 -67q-22 -10 -58.5 -16.5t-67.5 -6.5q-97 0 -140 81.5t-43 264.5q0 35 1.5 72.5
t4.5 70.5q-70 -1 -145 -1q-1 -75 -4.5 -148t-8 -138t-10.5 -114t-13 -76q-55 0 -95 1.5t-57 4.5z" />
    <glyph glyph-name="uni2002" unicode="&#x2002;" horiz-adv-x="600" 
 />
    <glyph glyph-name="uni2009" unicode="&#x2009;" horiz-adv-x="200" 
 />
    <glyph glyph-name="uni200B" unicode="&#x200b;" horiz-adv-x="0" 
 />
    <glyph glyph-name="endash" unicode="&#x2013;" horiz-adv-x="600" 
d="M50 335v90h500v-90h-500z" />
    <glyph glyph-name="emdash" unicode="&#x2014;" horiz-adv-x="800" 
d="M50 335v90h700v-90h-700z" />
    <glyph glyph-name="uni2015" unicode="&#x2015;" 
d="M0 330v100h1000v-100h-1000z" />
    <glyph glyph-name="uni2016" unicode="&#x2016;" horiz-adv-x="850" 
d="M490 -100v960h160v-960h-160zM200 -100v960h160v-960h-160z" />
    <glyph glyph-name="quoteleft" unicode="&#x2018;" horiz-adv-x="340" 
d="M198 858l43 -41l-54 -58q18 -26 43.5 -54t59.5 -59q-26 -28 -58 -55.5t-59 -46.5q-35 45 -66 91.5t-57 92.5q35 28 73.5 62t74.5 68z" />
    <glyph glyph-name="quoteright" unicode="&#x2019;" horiz-adv-x="340" 
d="M142 544l-43 41l54 58q-18 26 -43 54t-60 59q26 28 58 55.5t59 46.5q35 -45 66 -91t57 -93q-34 -28 -73 -62t-75 -68z" />
    <glyph glyph-name="quotesinglbase" unicode="&#x201a;" horiz-adv-x="340" 
d="M142 -76l-43 41l54 58q-18 26 -43 54t-60 59q26 28 58 55.5t59 46.5q35 -45 66 -91t57 -93q-34 -28 -73 -62t-75 -68z" />
    <glyph glyph-name="quotedblleft" unicode="&#x201c;" horiz-adv-x="570" 
d="M428 858l43 -41l-54 -58q18 -26 43.5 -54t59.5 -59q-26 -28 -58 -55.5t-59 -46.5q-35 45 -66 91.5t-57 92.5q35 28 73.5 62t74.5 68zM198 828l43 -41l-54 -58q18 -26 43.5 -54t59.5 -59q-26 -28 -58 -55.5t-59 -46.5q-35 45 -66 91.5t-57 92.5q35 28 73.5 62t74.5 68z
" />
    <glyph glyph-name="quotedblright" unicode="&#x201d;" horiz-adv-x="570" 
d="M372 544l-43 41l54 58q-18 26 -43 54t-60 59q26 28 58 55.5t59 46.5q35 -45 66 -91t57 -93q-34 -28 -73 -62t-75 -68zM142 514l-43 41l54 58q-18 26 -43 54t-60 59q26 28 58 55.5t59 46.5q35 -45 66 -91t57 -93q-34 -28 -73 -62t-75 -68z" />
    <glyph glyph-name="quotedblbase" unicode="&#x201e;" horiz-adv-x="570" 
d="M372 -46l-43 41l54 58q-18 26 -43 54t-60 59q26 28 58 55.5t59 46.5q35 -45 66 -91t57 -93q-34 -28 -73 -62t-75 -68zM142 -76l-43 41l54 58q-18 26 -43 54t-60 59q26 28 58 55.5t59 46.5q35 -45 66 -91t57 -93q-34 -28 -73 -62t-75 -68z" />
    <glyph glyph-name="dagger" unicode="&#x2020;" horiz-adv-x="580" 
d="M265 615l-45 125v90h140v-90l-45 -125h-50zM50 503v130h80l105 -40v-50l-105 -40h-80zM450 503l-105 40v50l105 40h80v-130h-80zM265 -70l-40 465l40 125h50l40 -125l-40 -465h-50z" />
    <glyph glyph-name="daggerdbl" unicode="&#x2021;" horiz-adv-x="580" 
d="M265 615l-45 125v90h140v-90l-45 -125h-50zM50 503v130h80l105 -40v-50l-105 -40h-80zM450 503l-105 40v50l105 40h80v-130h-80zM265 240l-55 140l55 140h50l55 -140l-55 -140h-50zM50 127v130h80l105 -40v-50l-105 -40h-80zM450 127l-105 40v50l105 40h80v-130h-80z
M220 -70v90l45 125h50l45 -125v-90h-140z" />
    <glyph glyph-name="bullet" unicode="&#x2022;" horiz-adv-x="570" 
d="M285 245q-37 0 -68 18t-49 49t-18 68q0 38 18 68.5t49 48.5t68 18q38 0 68.5 -18t48.5 -48.5t18 -68.5q0 -37 -18 -68t-48.5 -49t-68.5 -18z" />
    <glyph glyph-name="twodotenleader" unicode="&#x2025;" horiz-adv-x="756" 
d="M262 292h-168q-2 34 -3 73t-1 101q32 0 69 -0.5t67 -1t39 -1.5q0 -73 -0.5 -110.5t-2.5 -60.5zM663 294q-37 0 -82.5 1.5t-81.5 4.5v40t0.5 49t1 45.5t0.5 28.5q14 1 60.5 1.5t104.5 0.5q0 -30 -0.5 -63.5t-1 -62.5t-1.5 -45z" />
    <glyph glyph-name="ellipsis" unicode="&#x2026;" horiz-adv-x="910" 
d="M526 307q-73 0 -138 6q-3 43 -4 75.5t-1 63.5q19 0 50 0.5t59 1t36 0.5q0 -16 -0.5 -46.5t-0.5 -59.5t-1 -41zM233 307q-43 0 -81.5 1t-57.5 2q-1 19 -2 44.5t-1.5 51.5t-0.5 45q16 1 55 1h91q0 -43 -0.5 -83t-2.5 -62zM818 309q-31 0 -69 1.5t-69 2.5q0 23 0.5 50t1 51
t1.5 37q54 0 90.5 -0.5t46.5 -1.5q0 -52 -0.5 -89.5t-1.5 -50.5z" />
    <glyph glyph-name="perthousand" unicode="&#x2030;" horiz-adv-x="990" 
d="M175 -15l-70 40l410 550l70 -40zM188 289q-60 0 -99 41t-39 105q0 62 37.5 99.5t98.5 37.5q59 0 96.5 -39.5t37.5 -104.5q0 -62 -36.5 -100.5t-95.5 -38.5zM190 343q14 0 22.5 21.5t8.5 55.5q0 43 -11 70.5t-29 27.5q-15 0 -23.5 -20t-8.5 -53q0 -42 12 -72t29 -30z
M504 -12q-59 0 -96.5 40t-37.5 104q0 62 37 100.5t95 38.5q60 0 99 -41t39 -105q0 -61 -37.5 -99t-98.5 -38zM804 -12q-59 0 -96.5 40t-37.5 104q0 62 37 100.5t95 38.5q60 0 99 -41t39 -105q0 -61 -37.5 -99t-98.5 -38zM509 42q15 0 23.5 20t8.5 53q0 42 -12 72t-29 30
q-14 0 -22.5 -21t-8.5 -56q0 -43 11 -70.5t29 -27.5zM809 42q15 0 23.5 20t8.5 53q0 42 -12 72t-29 30q-14 0 -22.5 -21t-8.5 -56q0 -43 11 -70.5t29 -27.5z" />
    <glyph glyph-name="minute" unicode="&#x2032;" horiz-adv-x="389" 
d="M134 485l-84 39q40 73 80.5 154t71.5 161l137 -50q-60 -121 -205 -304z" />
    <glyph glyph-name="second" unicode="&#x2033;" horiz-adv-x="619" 
d="M364 465l-84 39q40 73 80.5 154t71.5 161l137 -50q-60 -121 -205 -304zM134 485l-84 39q40 73 80.5 154t71.5 161l137 -50q-60 -121 -205 -304z" />
    <glyph glyph-name="guilsinglleft" unicode="&#x2039;" horiz-adv-x="444" 
d="M350 100l-300 280l300 280l44 -40l-164 -240l164 -240z" />
    <glyph glyph-name="guilsinglright" unicode="&#x203a;" horiz-adv-x="444" 
d="M94 100l-44 40l164 240l-164 240l44 40l300 -280z" />
    <glyph glyph-name="uni203B" unicode="&#x203b;" 
d="M417 766l151 14l12 -136l-152 -13zM267 69l-71 47l229 245l-249 231l110 96l238 -220l208 223l72 -47l-218 -234l249 -231l-111 -96l-238 221zM748 472l152 -14l-12 -136l-151 14zM100 424l152 14l11 -136l-151 -14zM432 129l151 -13l-11 -136l-152 14z" />
    <glyph glyph-name="fraction" unicode="&#x2044;" horiz-adv-x="730" 
d="M130 -5l-80 50l550 720l80 -50z" />
    <glyph glyph-name="uni2074" unicode="&#x2074;" horiz-adv-x="400" 
d="M235 379q-1 28 -1.5 63t-0.5 68q-59 1 -111.5 2.5t-91.5 2.5q0 35 1 88t3.5 114t4.5 119q26 0 57 -2t53 -4q-4 -41 -9 -92.5t-8.5 -100t-5.5 -82.5q26 0 53.5 0.5t53.5 1.5v11q0 45 0.5 94.5t1.5 95t2 76.5q76 0 106 -3q-2 -32 -4.5 -77t-4.5 -95t-4 -98q35 2 58 5l2 -57
h-62q-1 -45 -2 -79t-1 -49q-16 -1 -43 -1.5t-47 -0.5z" />
    <glyph glyph-name="Euro" unicode="&#x20ac;" horiz-adv-x="790" 
d="M30 245v90h91q-1 14 -1 29q0 26 2 51h-92v90h108q22 81 68.5 140.5t112 92t145.5 32.5q84 0 157 -36.5t119 -102.5q-54 -65 -125 -104q-78 151 -184 151q-57 0 -93 -45.5t-47 -127.5h239v-90h-243q2 -41 8 -80h235v-90h-211q26 -73 69.5 -118t95.5 -45q46 0 94.5 35
t78.5 90l83 -63q-58 -74 -137 -114t-166 -40q-116 0 -196 68.5t-108 186.5h-103z" />
    <glyph glyph-name="uni2113" unicode="&#x2113;" horiz-adv-x="640" 
d="M358 -5q-50 0 -93 16t-77 47q-45 -22 -93 -40l-45 117q37 0 72 6q-24 45 -37 101.5t-13 122.5q0 85 21 158t58.5 127t88.5 84.5t110 30.5q60 0 106 -31.5t72 -87t26 -128.5q0 -110 -62 -209.5t-178 -178.5q18 -24 38 -37t41 -13t47.5 12.5t50.5 32t37 40.5l62 -101
q-55 -32 -117 -50.5t-115 -18.5zM227 450q0 -67 12 -129.5t32 -112.5q61 50 94.5 128.5t33.5 179.5q0 78 -19.5 122t-54.5 44q-28 0 -50.5 -30t-35 -82t-12.5 -120z" />
    <glyph glyph-name="trademark" unicode="&#x2122;" horiz-adv-x="897" 
d="M504 440l-66 4l13 377q28 4 53 5t45 1q25 -67 50.5 -130.5t46.5 -110.5q23 50 47 108.5t52 132.5q25 0 52 -1.5t46 -4.5v-84t0.5 -105t1.5 -105t2 -85q-17 -1 -45 -1.5t-51 -0.5q2 70 4 147t2 142q-19 -49 -42.5 -103t-52.5 -117l-76 -4q-28 56 -53 114.5t-45 111.5z
M285 440q-19 0 -47.5 0.5t-52.5 1.5v70t0.5 87t1 91t0.5 81q-77 -1 -137 -1l2 50h54.5t82 -0.5t91 -0.5t82 -0.5t55.5 -1.5l3 -42q-27 -1 -62.5 -1.5t-74.5 -1.5q0 -28 0.5 -70t1 -89t0.5 -92.5v-80.5z" />
    <glyph glyph-name="uni2126" unicode="&#x2126;" horiz-adv-x="790" 
d="M30 -3q0 30 3 61t9 55q47 -26 164 -41l10 46q-84 44 -133 125.5t-49 183.5q0 76 27 140t75.5 111t114 73t143.5 26t144 -26t114.5 -73t75 -111t26.5 -140q0 -100 -46 -179.5t-126 -124.5l5 -56q29 1 61 5t61 10t47 12q2 -17 3 -46t1 -55l-318 11l15 162q56 18 87.5 79.5
t31.5 149.5q0 84 -27 151.5t-73 107t-103 39.5q-48 0 -84.5 -29.5t-56.5 -82t-20 -123.5q0 -90 32.5 -163.5t87.5 -108.5l7 -180z" />
    <glyph glyph-name="estimated" unicode="&#x212e;" horiz-adv-x="900" 
d="M449 20q-82 0 -154.5 28t-127.5 77t-86 114.5t-31 140.5t31 140.5t86 114.5t127.5 77t154.5 28q83 0 155.5 -28t127.5 -77t86.5 -114.5t31.5 -140.5h-644q-4 0 -7.5 -3t-3.5 -7v-191q0 -24 16 -40q45 -45 106.5 -71t131.5 -26q80 0 149.5 34.5t115.5 93.5h60
q-55 -68 -140 -109t-185 -41zM206 400h486q10 0 10 11v171q0 11 -3 21t-11 18q-45 45 -107 71t-132 26t-131 -26t-106 -71q-17 -17 -17 -39v-171q0 -5 3.5 -8t7.5 -3z" />
    <glyph glyph-name="arrowup" unicode="&#x2191;" horiz-adv-x="760" 
d="M300 -55v631l-210 -155l-40 44l330 350l330 -350l-40 -44l-210 155v-631h-160z" />
    <glyph glyph-name="arrowdown" unicode="&#x2193;" horiz-adv-x="760" 
d="M380 -55l-330 350l40 44l210 -155v631h160v-631l210 155l40 -44z" />
    <glyph glyph-name="partialdiff" unicode="&#x2202;" horiz-adv-x="618" 
d="M282 765q86 0 150 -46t100 -129.5t36 -194.5q0 -85 -21 -158t-58.5 -127t-88.5 -84.5t-110 -30.5t-105.5 30.5t-72.5 84t-26 122.5q0 79 33.5 147t94 119.5t141.5 79.5q-25 47 -56 74.5t-65 27.5q-44 0 -122 -55l-62 71q55 32 117 50.5t115 18.5zM241 244
q0 -77 20 -121.5t54 -44.5q29 0 51 30t34.5 82.5t12.5 119.5q0 50 -7 97.5t-19 89.5q-146 -52 -146 -253z" />
    <glyph glyph-name="uni2206" unicode="&#x2206;" horiz-adv-x="790" 
d="M60 0l-30 90l280 670h170l280 -645l-47 -115h-653zM150 110h394l-208 493z" />
    <glyph glyph-name="product" unicode="&#x220f;" horiz-adv-x="880" 
d="M295 -30h-185v730h-60v90h780v-90h-60v-730h-185v730h-290v-730z" />
    <glyph glyph-name="summation" unicode="&#x2211;" horiz-adv-x="700" 
d="M650 790v-90h-403l247 -292l-276 -348h432v-90h-579l-21 90l256 272l-256 288l52 170h548z" />
    <glyph glyph-name="minus" unicode="&#x2212;" horiz-adv-x="500" 
d="M50 335v90h400v-90h-400z" />
    <glyph glyph-name="uni2215" unicode="&#x2215;" horiz-adv-x="730" 
d="M130 -5l-80 50l550 720l80 -50z" />
    <glyph glyph-name="uni2219" unicode="&#x2219;" horiz-adv-x="400" 
d="M294 280q-70 0 -118.5 0.5t-68.5 1.5q-4 42 -5.5 89t-1.5 104q22 2 55.5 3t72 1.5t72.5 0.5q0 -22 -1.5 -77t-4.5 -123z" />
    <glyph glyph-name="radical" unicode="&#x221a;" horiz-adv-x="810" 
d="M290 -30l-85 8l-175 376l173 62l67 -230l190 604l4 -1h296v-90h-251z" />
    <glyph glyph-name="infinity" unicode="&#x221e;" horiz-adv-x="840" 
d="M220 194q-49 0 -87.5 22t-60.5 61t-22 89q0 57 27 102.5t72.5 71.5t103.5 26q49 0 91.5 -23t92.5 -80q48 55 91.5 79t91.5 24q50 0 88 -22t60 -60.5t22 -89.5q0 -57 -27 -102t-72.5 -71.5t-103.5 -26.5q-49 0 -91.5 23t-92.5 80q-48 -55 -91.5 -79t-91.5 -24zM170 421
q0 -64 23.5 -108.5t59.5 -44.5q20 0 44 18t59 69q-13 16 -27 36q-46 64 -71 87.5t-46 23.5q-42 0 -42 -81zM511 369q46 -64 71 -87.5t46 -23.5q42 0 42 81q0 65 -23.5 109t-59.5 44q-19 0 -43.5 -18t-59.5 -69q13 -16 27 -36z" />
    <glyph glyph-name="integral" unicode="&#x222b;" horiz-adv-x="546" 
d="M77 -70l-27 80q54 0 83.5 27t41 95t11.5 192q0 140 14.5 236t47 154t87 85.5t134.5 30.5l27 -80q-53 0 -83 -27t-41.5 -95t-11.5 -192q0 -140 -14.5 -236t-47 -154t-87 -85.5t-134.5 -30.5z" />
    <glyph glyph-name="approxequal" unicode="&#x2248;" horiz-adv-x="568" 
d="M390 375q-47 0 -98 54q-50 53 -99 53q-47 0 -109 -61l-30 50q38 50 82.5 77t87.5 27q59 0 110 -55q45 -48 83 -48q15 0 29.5 10.5t41.5 41.5l30 -50q-28 -46 -62 -72.5t-66 -26.5zM344 185q-59 0 -110 55q-45 48 -83 48q-15 0 -29.5 -10.5t-41.5 -41.5l-30 50
q28 46 62.5 72.5t65.5 26.5q47 0 98 -54q50 -53 99 -53q47 0 109 61l30 -50q-38 -50 -82 -77t-88 -27z" />
    <glyph glyph-name="notequal" unicode="&#x2260;" horiz-adv-x="500" 
d="M170 80l-75 15l58 145h-103v90h139l41 100h-180v90h216l64 160l75 -15l-58 -145h103v-90h-139l-41 -100h180v-90h-216z" />
    <glyph glyph-name="lessequal" unicode="&#x2264;" horiz-adv-x="500" 
d="M328 215l-278 219l320 231l55 -41l-190 -161l205 -141zM50 95v90h400v-90h-400z" />
    <glyph glyph-name="greaterequal" unicode="&#x2265;" horiz-adv-x="500" 
d="M130 215l-55 41l190 161l-205 141l112 107l278 -219zM50 95v90h400v-90h-400z" />
    <glyph glyph-name="lozenge" unicode="&#x25ca;" horiz-adv-x="660" 
d="M315 5l-265 345l295 405l265 -345zM300 593l-119 -181l179 -245l119 181z" />
    <glyph glyph-name="uni3000" unicode="&#x3000;" 
 />
    <glyph glyph-name="uni3001" unicode="&#x3001;" horiz-adv-x="514" 
d="M183 -50q-31 64 -64.5 123t-68.5 114l97 61q47 -43 88.5 -97.5t78.5 -121.5z" />
    <glyph glyph-name="uni3002" unicode="&#x3002;" horiz-adv-x="548" 
d="M192 -53q-64 0 -103 36t-39 96q0 63 42.5 101.5t110.5 38.5q65 0 105 -36t40 -95q0 -62 -43.5 -101.5t-112.5 -39.5zM195 1q45 0 45 85q0 79 -38 79q-21 0 -32.5 -24t-11.5 -67q0 -73 37 -73z" />
    <glyph glyph-name="uni3003" unicode="&#x3003;" horiz-adv-x="805" 
d="M493 84l-113 19q58 129 92.5 276.5t41.5 292.5q50 0 102.5 -0.5t88.5 -2.5q-11 -172 -65.5 -323.5t-146.5 -261.5zM213 84l-113 16q31 103 50.5 196.5t28.5 184.5t9 186q61 0 114.5 -0.5t87.5 -2.5q-16 -166 -61.5 -313.5t-115.5 -266.5z" />
    <glyph glyph-name="uni3004" unicode="&#x3004;" 
d="M500 -70q-93 0 -175 35t-144 96l45 45q53 -52 123.5 -82.5t150.5 -30.5t150 30t123.5 83.5t83.5 123.5t30 150t-30 150t-83.5 123.5t-123.5 83.5t-150 30t-150 -30t-123.5 -83.5t-83.5 -123.5t-30 -150q0 -14 1.5 -28t3.5 -28q5 -31 29.5 -52.5t57.5 -21.5q36 0 62 25.5
t26 62.5v244h81v-244q0 -44 -21.5 -80.5t-58 -58t-80.5 -21.5q-40 0 -75 18t-57.5 49.5t-27.5 69.5q-2 16 -3 32.5t-1 32.5q0 93 35 174.5t97 143.5t143.5 97t174.5 35t174.5 -35t143.5 -97t97 -143.5t35 -174.5t-35 -174.5t-97 -143.5t-143.5 -97t-174.5 -35zM455 178v404
h90v-404h-90zM612 178v72h59q20 0 34.5 14.5t14.5 34.5t-15 35l-52 50q-16 17 -28.5 38.5t-12.5 47.5q0 31 15.5 56.5t41 40.5t56.5 15h54v-72h-41q-19 0 -31.5 -12.5t-12.5 -31.5q0 -11 5.5 -20t12.5 -16l47 -46q17 -16 30 -39.5t13 -50.5q0 -32 -16 -58.5t-42.5 -42
t-59.5 -15.5h-72z" />
    <glyph glyph-name="uni3005" unicode="&#x3005;" 
d="M137 236l-78 64q95 119 186 247.5t176 266.5l184 -106q-39 -46 -80 -91l382 -27l34 -71q-51 -77 -116 -151.5t-154 -158.5q31 -29 58 -57.5t48 -55.5l-191 -150q-51 79 -96.5 140t-89 108.5t-89.5 87.5l138 106q62 -42 125 -93q87 116 133 214l-250 33
q-159 -169 -320 -306z" />
    <glyph glyph-name="uni3006" unicode="&#x3006;" 
d="M222 -37l-92 21q-21 51 -38 109.5t-26.5 115t-9.5 99.5q0 67 23 125t64 101.5t95.5 68t117.5 24.5q47 0 98.5 -14.5t103.5 -41.5q67 68 132.5 126t121.5 100l132 -114q-54 -45 -114 -99t-123 -114q70 -59 128 -133t93 -155q-43 -27 -93.5 -62t-117.5 -84
q-31 72 -76.5 142.5t-96.5 130.5q-82 -83 -163.5 -170.5t-158.5 -175.5zM147 315q0 -34 9 -84t23 -93q44 62 106.5 137.5t134.5 153.5q-39 30 -75.5 47.5t-66.5 17.5q-36 0 -65.5 -24.5t-47.5 -65t-18 -89.5z" />
    <glyph glyph-name="uni3007" unicode="&#x3007;" 
d="M499 -40q-91 0 -169.5 32t-137 88.5t-91.5 133t-33 164.5q0 89 33 165.5t92 134t138 90t170 32.5t169.5 -32t137 -88.5t91.5 -132.5t33 -165t-33 -165.5t-92 -134t-137.5 -90t-170.5 -32.5zM540 52q63 0 112 36.5t77.5 99.5t28.5 142q0 74 -24.5 142t-66.5 121t-95.5 84
t-111.5 31q-62 0 -111.5 -36.5t-78 -99t-28.5 -142.5q0 -74 24.5 -142t66.5 -121t95.5 -84t111.5 -31z" />
    <glyph glyph-name="uni3008" unicode="&#x3008;" horiz-adv-x="645" 
d="M490 -105q-35 48 -83 122.5t-101 164t-106 183.5q66 117 147 245t170 255l62 -53q-25 -34 -56 -81t-63.5 -99.5t-62 -103t-50.5 -91.5q20 -37 51 -89.5t66.5 -111t69.5 -112.5t61 -94q-26 -36 -51.5 -68.5t-53.5 -66.5z" />
    <glyph glyph-name="uni3009" unicode="&#x3009;" horiz-adv-x="645" 
d="M128 -105l-62 53q25 34 56 81t63.5 99.5t62 103t50.5 91.5q-20 37 -51 89.5t-66.5 111t-69.5 112.5t-61 94q26 36 51.5 68.5t53.5 66.5q36 -48 83.5 -122.5t101 -164t105.5 -183.5q-66 -117 -147 -244.5t-170 -255.5z" />
    <glyph glyph-name="uni300A" unicode="&#x300a;" horiz-adv-x="740" 
d="M606 -70q-77 130 -136.5 253t-99.5 216q70 137 136 255.5t120 210.5l57 -38q-37 -57 -92 -148t-116 -202q13 -30 43 -94.5t74 -151.5t98 -187q-42 -64 -84 -114zM426 -105q-75 116 -128.5 222.5t-97.5 205.5q72 155 139 286t117 221l57 -38q-22 -38 -56 -100.5
t-73.5 -138t-78.5 -152.5q17 -35 46.5 -96.5t70 -138t88.5 -157.5q-42 -64 -84 -114z" />
    <glyph glyph-name="uni300B" unicode="&#x300b;" horiz-adv-x="740" 
d="M284 -70l-57 38q22 38 56 100.5t74 138t78 152.5q-16 36 -46 97t-70.5 137.5t-88.5 157.5q42 64 84 114q75 -116 128.5 -222.5t97.5 -205.5q-72 -155 -139 -286t-117 -221zM114 -105l-57 38q37 57 92 148t116 202q-13 30 -43 94.5t-74 152t-98 186.5q42 64 84 114
q77 -130 136.5 -253t99.5 -216q-70 -136 -136 -255t-120 -211z" />
    <glyph glyph-name="uni300C" unicode="&#x300c;" horiz-adv-x="595" 
d="M200 219v613h345v-100h-165v-513h-180z" />
    <glyph glyph-name="uni300D" unicode="&#x300d;" horiz-adv-x="595" 
d="M50 -72v100h165v513h180v-613h-345z" />
    <glyph glyph-name="uni300E" unicode="&#x300e;" horiz-adv-x="665" 
d="M200 219v613h415v-135h-158v-478h-257zM285 259h87v478h158v55h-245v-533z" />
    <glyph glyph-name="uni300F" unicode="&#x300f;" horiz-adv-x="665" 
d="M50 -72v135h158v478h257v-613h-415zM135 -32h245v533h-87v-478h-158v-55z" />
    <glyph glyph-name="uni3010" unicode="&#x3010;" horiz-adv-x="590" 
d="M200 -75v910h340v-50q-64 -32 -113.5 -94.5t-78 -143.5t-28.5 -167t28.5 -166.5t78 -143.5t113.5 -95v-50h-340z" />
    <glyph glyph-name="uni3011" unicode="&#x3011;" horiz-adv-x="590" 
d="M50 -75v50q64 32 113.5 95t78 143.5t28.5 166.5t-28.5 167t-78 143.5t-113.5 94.5v50h340v-910h-340z" />
    <glyph glyph-name="uni3012" unicode="&#x3012;" 
d="M100 660v100h800v-100h-800zM410 0v470h-310v100h800v-100h-310v-470h-180z" />
    <glyph glyph-name="uni3013" unicode="&#x3013;" horiz-adv-x="800" 
d="M100 465v240h600v-240h-600zM100 55v240h600v-240h-600z" />
    <glyph glyph-name="uni3014" unicode="&#x3014;" horiz-adv-x="625" 
d="M470 -105l-270 242v466l325 262l35 -63l-200 -166v-445l215 -176z" />
    <glyph glyph-name="uni3015" unicode="&#x3015;" horiz-adv-x="625" 
d="M100 -105l-35 63l200 166v445l-215 176l105 120l270 -242v-466z" />
    <glyph glyph-name="uni3016" unicode="&#x3016;" horiz-adv-x="660" 
d="M200 -75v910h410v-50q-64 -32 -113.5 -94.5t-78 -143.5t-28.5 -167t28.5 -166.5t78 -143.5t113.5 -95v-50h-410zM285 -35h193q-52 49 -91 115.5t-60.5 143t-21.5 156.5t21.5 156.5t60.5 143t91 115.5h-193v-830z" />
    <glyph glyph-name="uni3017" unicode="&#x3017;" horiz-adv-x="660" 
d="M50 -75v50q64 32 113.5 95t78 143.5t28.5 166.5t-28.5 167t-78 143.5t-113.5 94.5v50h410v-910h-410zM182 -35h193v830h-193q53 -49 91.5 -115.5t60 -143t21.5 -156.5t-21.5 -156.5t-60 -143t-91.5 -115.5z" />
    <glyph glyph-name="uni3018" unicode="&#x3018;" horiz-adv-x="655" 
d="M470 -105l-270 242v466l325 262l57 -103l-152 -126v-445l175 -143zM525 25l-180 146v453l148 124l-12 24l-196 -157v-458l199 -176z" />
    <glyph glyph-name="uni3019" unicode="&#x3019;" horiz-adv-x="655" 
d="M185 865l270 -242v-466l-325 -262l-57 103l152 126v445l-175 143zM130 735l180 -146v-453l-148 -124l12 -24l196 157v458l-199 176z" />
    <glyph glyph-name="uni301A" unicode="&#x301a;" horiz-adv-x="570" 
d="M150 -65v890h370v-120h-140v-650h140v-120h-370zM235 -25h200v40h-140v730h140v40h-200v-810z" />
    <glyph glyph-name="uni301B" unicode="&#x301b;" horiz-adv-x="570" 
d="M50 -65v120h140v650h-140v120h370v-890h-370zM135 -25h200v810h-200v-40h140v-730h-140v-40z" />
    <glyph glyph-name="uni301C" unicode="&#x301c;" 
d="M676 215q-112 0 -216 86q-45 38 -91.5 59t-84.5 21q-37 0 -88.5 -21t-92.5 -53l-53 74q65 65 135.5 99.5t138.5 34.5q112 0 216 -86q45 -37 92 -58.5t84 -21.5q38 0 89 21t92 53l53 -74q-65 -65 -135.5 -99.5t-138.5 -34.5z" />
    <glyph glyph-name="uni301D" unicode="&#x301d;" horiz-adv-x="615" 
d="M491 559q-55 69 -94 127.5t-62 104.5l114 58q24 -61 55 -122.5t61 -117.5zM306 524q-55 69 -94 127.5t-62 104.5l114 58q24 -61 54.5 -122.5t61.5 -117.5z" />
    <glyph glyph-name="uni301E" unicode="&#x301e;" horiz-adv-x="615" 
d="M124 559l-74 50q30 56 61 117.5t55 122.5l114 -58q-22 -46 -61.5 -104.5t-94.5 -127.5zM309 524l-74 50q31 56 61.5 117.5t54.5 122.5l114 -58q-22 -46 -61.5 -104.5t-94.5 -127.5z" />
    <glyph glyph-name="uni301F" unicode="&#x301f;" horiz-adv-x="615" 
d="M351 -54q-24 62 -54.5 123.5t-61.5 116.5l74 50q55 -69 94.5 -127t61.5 -105zM166 -89q-24 62 -55 123.5t-61 116.5l74 50q55 -69 94.5 -127t61.5 -105z" />
    <glyph glyph-name="uni3020" unicode="&#x3020;" 
d="M115 720v60h770v-60h-770zM440 260v335h-325v60h770v-60h-325v-335h-120zM500 -40q-72 0 -138 24.5t-118 67t-84.5 97.5t-38.5 118q-40 14 -65.5 53t-25.5 90q0 42 17.5 76t46.5 54t66 20v-30q-33 0 -56.5 -35t-23.5 -85q0 -49 23.5 -84.5t56.5 -35.5h10q0 -62 26 -116.5
t71.5 -95.5t105 -64.5t127.5 -23.5t127.5 23.5t105 64.5t71.5 95.5t26 116.5h10q33 0 56.5 35.5t23.5 84.5q0 50 -23.5 85t-56.5 35v30q37 0 66 -20t46.5 -54t17.5 -76q0 -51 -25.5 -90t-65.5 -53q-6 -63 -38 -118t-84.5 -97.5t-118.5 -67t-138 -24.5zM295 327q-34 0 -57 22
t-23 53q0 14 5 26l-38 19l19 32l36 -25q3 3 7 6l-25 37l32 19l21 -42q4 1 7 2l-3 47h38l-3 -47q3 -1 7 -2l21 42l32 -19l-25 -37q4 -3 7 -6l36 25l19 -32l-38 -19q5 -12 5 -26q0 -31 -23 -53t-57 -22zM705 327q-34 0 -57 22t-23 53q0 14 5 26l-38 19l19 32l36 -25q3 3 7 6
l-25 37l32 19l21 -42q4 1 7 2l-3 47h38l-3 -47q3 -1 7 -2l21 42l32 -19l-25 -37q4 -3 7 -6l36 25l19 -32l-38 -19q5 -12 5 -26q0 -31 -23 -53t-57 -22zM295 362q11 0 18 11.5t7 28.5t-7 28.5t-18 11.5q-10 0 -17.5 -11.5t-7.5 -28.5t7.5 -28.5t17.5 -11.5zM705 362
q11 0 18 11.5t7 28.5t-7 28.5t-18 11.5q-10 0 -17.5 -11.5t-7.5 -28.5t7.5 -28.5t17.5 -11.5zM501 70q-58 0 -105.5 24t-75.5 65t-28 91h86q0 -61 35 -100.5t88 -39.5t87 39.5t34 100.5h86q0 -50 -27.5 -91t-74.5 -65t-105 -24z" />
    <glyph glyph-name="uni3030" unicode="&#x3030;" 
d="M363 144q-32 0 -66 24t-84 82q-34 39 -53 54t-36 15q-18 0 -42 -17t-67 -60l-30 83q14 12 30 30q52 55 89 78t72 23q32 0 66 -20.5t92 -73.5q41 -37 62 -51.5t37 -14.5q15 0 33 13t49 46q52 55 89 78t72 23q32 0 66 -20.5t92 -73.5q41 -37 62 -51.5t37 -14.5q11 0 23 6.5
t29 22.5l30 -83q-55 -55 -88.5 -76.5t-63.5 -21.5q-32 0 -66 24t-84 82q-34 39 -53 54t-36 15q-18 0 -42 -17t-67 -60q-55 -55 -88.5 -76.5t-63.5 -21.5z" />
    <glyph glyph-name="uni3031" unicode="&#x3031;" 
d="M498 -110q-55 124 -88.5 212t-48.5 151t-15 113q0 53 16.5 118t55.5 158t104 228q33 0 65.5 -3t52.5 -8q-66 -125 -105.5 -208.5t-57 -135.5t-17.5 -85q0 -62 57 -187.5t172 -319.5q-37 -8 -88.5 -17.5t-102.5 -15.5z" />
    <glyph glyph-name="uni3032" unicode="&#x3032;" 
d="M488 -110q-55 124 -88.5 212t-48.5 151t-15 113q0 53 16.5 118t55.5 158t104 228q33 0 65.5 -3t52.5 -8q-66 -125 -105.5 -208.5t-57 -135.5t-17.5 -85q0 -62 57 -187.5t172 -319.5q-37 -8 -88.5 -17.5t-102.5 -15.5zM770 475l-33 228l118 17q11 -53 22.5 -113.5
t18.5 -108.5zM608 451l-29 229l118 18q8 -46 15.5 -99.5t17.5 -127.5z" />
    <glyph glyph-name="uni3033" unicode="&#x3033;" 
d="M297 -120q0 49 7 106.5t23 133t43.5 178t69 240.5t98.5 322q29 0 61 -6t57 -16q-57 -169 -98.5 -295t-68.5 -217.5t-43 -157.5t-23 -114.5t-7 -87.5q0 -24 2 -46.5t5 -39.5h-126z" />
    <glyph glyph-name="uni3034" unicode="&#x3034;" 
d="M297 -120q0 49 7 106.5t23 133t43.5 178t69 240.5t98.5 322q29 0 61 -6t57 -16q-57 -169 -98.5 -295t-68.5 -217.5t-43 -157.5t-23 -114.5t-7 -87.5q0 -24 2 -46.5t5 -39.5h-126zM770 212l-33 228l118 17q11 -53 22.5 -113.5t18.5 -108.5zM608 188l-29 229l118 18
q8 -46 15.5 -99.5t17.5 -127.5z" />
    <glyph glyph-name="uni3035" unicode="&#x3035;" 
d="M510 -100q-73 236 -120.5 418t-70 320.5t-22.5 241.5h126q8 -63 28.5 -145.5t55.5 -191.5t86.5 -251.5t121.5 -325.5q-49 -22 -102.5 -39.5t-102.5 -26.5z" />
    <glyph glyph-name="uni3036" unicode="&#x3036;" 
d="M481 -70q-94 0 -174 32.5t-140 91.5t-93.5 137.5t-33.5 169.5q0 97 37 182t103 149.5t153 101t186 36.5q94 0 174 -32.5t140 -91.5t93.5 -137t33.5 -170q0 -97 -37 -182t-103 -149.5t-153 -101t-186 -36.5zM530 -10q152 0 236 94t84 263q0 65 -13 122t-37 105v-29h-600
v75h572q-50 71 -127 110.5t-175 39.5q-151 0 -235.5 -94t-84.5 -263q0 -127 47.5 -222t133 -148t199.5 -53zM433 50v353h-233v75h600v-75h-232v-353h-135z" />
    <glyph glyph-name="uni303B" unicode="&#x303b;" 
d="M285 657l159 101q24 -16 60 -49.5t74 -76.5t71.5 -88t52.5 -83q-33 -12 -83 -34t-101 -47.5t-89 -49.5q27 -35 68.5 -72.5t90 -73t96.5 -65.5q-13 -20 -42 -48.5t-63.5 -55.5t-66.5 -43q-28 26 -63.5 65t-72 84.5t-67.5 91t-51 84.5q31 30 70.5 62.5t82 62t80.5 50.5
q-19 28 -51 61t-72 66t-83 58z" />
    <glyph glyph-name="uni303C" unicode="&#x303c;" 
d="M100 30v700h800v-700h-800zM255 655v-459l486 459h-486zM745 105v458l-486 -458h486z" />
    <glyph glyph-name="uni303D" unicode="&#x303d;" 
d="M950 85l-144 -100q-19 37 -43.5 94.5t-48 124.5t-43.5 132q-37 125 -73.5 202.5t-66.5 97.5q-15 -18 -32 -54.5t-31 -76.5t-20 -71q-21 -19 -48 -36t-50 -25q-4 19 -21 47.5t-40 58.5t-45.5 53t-37.5 31q-14 -30 -29 -81t-26 -108t-16 -108l-85 16q21 93 51.5 173.5
t66 140.5t71.5 89q29 -6 61.5 -25t61 -45.5t46.5 -56.5q23 45 53 87t62 76t62 54q50 -18 103 -106.5t103 -240.5q17 -51 42.5 -111t56 -120t60.5 -112z" />
    <glyph glyph-name="uni3041" unicode="&#x3041;" horiz-adv-x="734" 
d="M262 -91q-119 0 -175.5 42.5t-56.5 131.5q0 161 188 218v61.5t1 31.5q-42 -2 -87.5 -3.5t-89.5 -1.5l3 79q45 -6 91 -8.5t85 -2.5q2 24 7 62t9 72q45 -4 85 -6t78 -2q-6 -31 -11 -59.5t-9 -57.5q65 7 117.5 16t98.5 20l9 -72q-46 -10 -103 -17t-129 -12q-2 -18 -4 -38
l-4 -40q14 0 36 -1t35 -3v39q50 0 140 -15q-1 -22 -2.5 -43t-1.5 -34q35 -26 62.5 -73t46 -107.5t23.5 -127.5q-37 -13 -72 -20.5t-68 -7.5q0 48 -1.5 79t-5 53t-9.5 42q-27 -103 -95.5 -149t-190.5 -46zM285 -36q47 0 82.5 30.5t55.5 83t20 118.5q0 14 -1 29t-3 27
q-19 5 -38 7t-37 2q-1 -17 -1 -46.5v-54.5q0 -30 0.5 -58.5t1.5 -52.5q-23 0 -50 -4t-57 -12q-14 47 -23.5 95t-14.5 100q-33 -18 -50.5 -49t-17.5 -70q0 -40 17.5 -73t48 -52.5t67.5 -19.5z" />
    <glyph glyph-name="uni3042" unicode="&#x3042;" horiz-adv-x="903" 
d="M321 -25q-149 0 -220 53t-71 165q0 203 236 273v76.5t1 39.5q-52 -3 -108.5 -4.5t-112.5 -1.5l4 99q56 -7 113.5 -10.5t106.5 -3.5q3 30 8.5 77.5t11.5 89.5q111 -9 203 -9q-7 -40 -13.5 -75t-11.5 -72q82 9 147 20t123 25l12 -90q-58 -12 -129 -20.5t-161 -15.5
q-6 -48 -11 -97q18 0 45.5 -2t43.5 -4v49q62 0 176 -18q-5 -65 -6 -97q44 -32 78.5 -91t57.5 -134.5t29 -159.5q-46 -16 -90 -25.5t-85 -9.5q0 60 -1.5 99t-5.5 66.5t-12 51.5q-34 -128 -119.5 -186t-238.5 -58zM350 44q58 0 102.5 38t69.5 104t25 149q0 17 -1.5 34.5
t-3.5 35.5q-24 6 -47.5 8.5t-46.5 2.5q-1 -22 -1 -58.5v-67.5q0 -38 0.5 -73.5t1.5 -65.5q-56 0 -133 -20q-18 58 -30 118t-18 125q-41 -22 -63 -60.5t-22 -87.5q0 -51 22 -92t60 -65.5t85 -24.5z" />
    <glyph glyph-name="uni3043" unicode="&#x3043;" horiz-adv-x="682" 
d="M72 -54q-20 66 -31 150t-11 172q0 46 3.5 92.5t12.5 113.5q32 -1 67 -3.5t74 -7.5q-5 -42 -7.5 -86.5t-2.5 -91.5q0 -62 4.5 -120t11.5 -108l82 19l11 -51q-59 -25 -112.5 -44.5t-101.5 -34.5zM515 35q0 85 -12 182t-32 203q53 18 123 24q30 -88 44 -183t14 -211
q-28 -4 -61.5 -7.5t-75.5 -7.5z" />
    <glyph glyph-name="uni3044" unicode="&#x3044;" horiz-adv-x="838" 
d="M83 21q-25 83 -39 188t-14 214q0 58 4.5 116.5t15.5 141.5q41 -1 84 -4.5t92 -9.5q-12 -105 -12 -222q0 -159 20 -285l103 24l13 -64q-148 -61 -267 -99zM637 132q0 106 -15 227.5t-41 253.5q65 23 155 31q38 -111 55 -229t17 -264q-69 -10 -171 -19z" />
    <glyph glyph-name="uni3045" unicode="&#x3045;" horiz-adv-x="606" 
d="M413 390q-23 19 -62.5 40t-83.5 40.5t-83 31.5q27 34 47 55t45 41q36 -14 75 -36t73 -47.5t55 -48.5zM292 -129q-100 44 -171 90q145 70 221.5 139.5t76.5 131.5q0 69 -99 69q-88 0 -268 -55l-22 77q179 40 301 40q120 0 182.5 -38.5t62.5 -112.5q0 -55 -34.5 -115
t-98 -118t-151.5 -108z" />
    <glyph glyph-name="uni3046" unicode="&#x3046;" horiz-adv-x="742" 
d="M509 575q-29 23 -78 50t-104.5 51t-103.5 39q34 42 59 68.5t56 51.5q45 -17 93.5 -45t91 -59.5t68.5 -60.5zM357 -74q-125 56 -213 113q181 87 276.5 174t95.5 165q0 86 -123 86q-108 0 -336 -69l-27 96q113 26 206.5 38t169.5 12q150 0 228 -48t78 -140q0 -69 -43 -144
t-122.5 -147.5t-189.5 -135.5z" />
    <glyph glyph-name="uni3047" unicode="&#x3047;" horiz-adv-x="677" 
d="M308 413q-6 38 -15.5 83t-26.5 104q18 3 60 4.5t86 1.5q7 -45 12 -96.5t5 -93.5q-7 0 -30.5 -0.5t-49 -1t-41.5 -1.5zM548 -120q-96 0 -141.5 41.5t-45.5 127.5q0 14 1 30t3 34q-23 0 -41.5 -9t-37 -33.5t-40.5 -69t-53 -115.5q-32 9 -68.5 22.5t-94.5 36.5
q59 99 109 168.5t99.5 119.5t104.5 88q-74 -4 -146 -14.5t-141 -25.5l-8 82q44 2 105 4t129.5 3.5t135 2.5t122.5 1l8 -74q-91 -17 -195 -133q27 0 65 -1.5t63 -6.5q0 -76 23 -110t75 -34q12 0 31 1.5t37 2.5q0 -29 -2 -68.5t-4 -63.5q-26 -4 -49.5 -5.5t-43.5 -1.5z" />
    <glyph glyph-name="uni3048" unicode="&#x3048;" horiz-adv-x="831" 
d="M377 604q-7 47 -19.5 104t-32.5 131q15 2 44 3.5t65.5 2.5t72.5 1q9 -56 15.5 -120.5t6.5 -117.5q-9 0 -37 -0.5t-60 -1.5t-55 -2zM677 -62q-120 0 -177 51.5t-57 159.5q0 37 6 80q-29 0 -52 -11.5t-46 -41.5t-51 -86t-66 -145q-40 12 -86 29t-118 45q74 124 136.5 211
t124 149.5t130.5 110.5q-186 -12 -358 -51l-11 103q56 3 132 5.5t161 4.5t168.5 3t153.5 1l10 -93q-112 -21 -244 -166q23 0 52.5 -1t58 -3t49.5 -6q0 -95 29 -137.5t94 -42.5q35 0 85 5q0 -24 -1 -55t-3 -60.5t-4 -49.5q-64 -9 -116 -9z" />
    <glyph glyph-name="uni3049" unicode="&#x3049;" horiz-adv-x="739" 
d="M241 -85q-96 0 -153.5 42t-57.5 112q0 47 26.5 90.5t73.5 79.5t110 58l-5 95q-43 -3 -89 -9.5t-99 -17.5l-6 72q12 2 40 4t60 3.5t57.5 3t32.5 1.5l-5 114h164l-4 -108q42 0 88.5 -1t75.5 -3l-4 -62q-53 5 -90 6.5t-72 1.5v-77q8 1 17 1.5t18 0.5q35 0 73 -9t72 -26
q7 35 13 86.5t10 103.5l122 -16q-7 -55 -16.5 -112t-17.5 -96l-64 10q41 -49 58 -93t17 -100q0 -29 -4.5 -65.5t-13.5 -83.5q-84 3 -148 12q8 41 11.5 78t3.5 70q0 188 -120 188q-14 0 -31 -3q0 -42 2 -97.5t6 -116.5t8 -121q-63 -9 -98.5 -12.5t-60.5 -3.5zM275 -31
q-10 65 -17.5 132.5t-12.5 139.5q-37 -19 -59 -56t-22 -81q0 -55 31 -92.5t80 -42.5z" />
    <glyph glyph-name="uni304A" unicode="&#x304a;" horiz-adv-x="929" 
d="M294 -18q-80 0 -139.5 24t-92 67t-32.5 101q0 59 33 114t92 99.5t138 71.5l-7 119q-53 -4 -110.5 -11.5t-124.5 -21.5l-7 90q12 1 37.5 3t56.5 4t61 4t52.5 3t29.5 1l-6 142h205l-5 -135q35 0 73.5 -0.5t73 -1.5t58.5 -3l-5 -77q-67 5 -112.5 7t-89.5 2v-96q21 3 43 3
q44 0 91.5 -11.5t90.5 -32.5q8 44 16 108.5t12 129.5l153 -21q-10 -69 -21.5 -140t-21.5 -120l-80 13q51 -61 72.5 -116t21.5 -125q0 -71 -22 -187q-55 2 -100.5 6t-84.5 10q10 51 14.5 97.5t4.5 86.5q0 235 -151 235q-18 0 -38 -3q0 -53 2.5 -122.5t7.5 -145.5t10 -151
q-79 -11 -123.5 -15.5t-75.5 -4.5zM336 49q-13 82 -22 166.5t-15 173.5q-47 -24 -74.5 -69.5t-27.5 -101.5q0 -68 39 -115.5t100 -53.5z" />
    <glyph glyph-name="uni304B" unicode="&#x304b;" horiz-adv-x="979" 
d="M607 -34q-57 6 -90 8.5t-56 4.5t-51 4q17 55 32 117.5t27 124t19 113t7 83.5q0 61 -28 88t-93 27q-19 -134 -35 -268t-27 -250q-60 8 -105.5 12t-83.5 5q5 33 13.5 82.5t18.5 107t20 112.5t19 99.5t14 68.5q-77 -28 -156 -62l-22 83q29 11 65.5 22.5t72 21.5t60.5 16
q8 41 20 95.5t30 134.5q36 -4 77.5 -6.5t63.5 -2.5q-10 -38 -19.5 -90t-15.5 -105q20 3 41 3q122 0 185.5 -72.5t63.5 -210.5q0 -69 -16 -158.5t-51 -207.5zM765 153q-7 90 -13 157t-12 117.5t-13 92t-15 80.5q42 8 75 15.5t68 16.5q22 -74 36.5 -145.5t23.5 -148t14 -168.5
q-40 -3 -78.5 -7t-85.5 -10z" />
    <glyph glyph-name="uni304C" unicode="&#x304c;" horiz-adv-x="942" 
d="M692 606q0 17 -1.5 44t-3.5 57t-4 54t-4 34l121 8q13 -104 18 -190zM549 -43q-52 10 -96.5 18t-98.5 18q27 63 51 128t41.5 124t27.5 105.5t10 74.5q0 47 -28.5 73.5t-81.5 26.5q-31 -121 -60 -245t-54 -244q-110 24 -186 34q8 31 21 76t28 96.5t30.5 102.5t29 95
t23.5 72q-41 -9 -85.5 -21.5t-76.5 -23.5l-14 81q34 9 75 17t76.5 14.5t52.5 7.5q19 59 35.5 108.5t36.5 106.5q31 -7 63 -12t76 -10q-16 -46 -29.5 -93t-23.5 -91q129 -4 196 -65.5t67 -177.5q0 -141 -106 -396zM546 595q-2 34 -5.5 79t-10.5 109l115 9q6 -37 10.5 -86.5
t6.5 -103.5zM723 121q2 56 3 104t1 92q0 76 -2.5 134t-7.5 102q28 2 70 7t75 11q16 -88 23 -166.5t7 -164.5q0 -54 -3 -119h-166z" />
    <glyph glyph-name="uni304D" unicode="&#x304d;" horiz-adv-x="780" 
d="M533 -63q-141 11 -245 44t-161 83t-57 112q0 72 78 118.5t223 60.5q0 17 -2 41t-5 50q-141 -12 -289 -55l-16 91q64 11 136.5 20t158.5 17l-13 79q-53 -4 -123 -13t-177 -26l-11 87q46 6 102 11.5t109 9.5t88 5q-7 35 -17 74t-19 66q62 11 116.5 17.5t99.5 7.5
q4 -21 8 -50t7.5 -58t4.5 -50q131 0 221 -10l-10 -79q-46 9 -98 13.5t-105 4.5l7 -84q25 0 61.5 -2.5t73 -6.5t59.5 -9l-14 -79q-103 23 -175 26q2 -34 3 -78t1 -101q-29 5 -64 7.5t-71 2.5q-97 0 -148 -17.5t-51 -51.5q0 -91 388 -118q-16 -48 -34 -87t-40 -73z" />
    <glyph glyph-name="uni304E" unicode="&#x304e;" horiz-adv-x="780" 
d="M770 683l-107 3q-4 45 -7 92.5t-3 78.5l113 5q2 -25 3 -66t1 -113zM530 684q-4 44 -9.5 90.5t-10.5 78.5l113 7q5 -49 7 -95.5t2 -78.5zM516 -68q-217 18 -331.5 74.5t-114.5 144.5q0 50 34 89.5t96.5 65.5t147.5 34q-3 17 -5 39t-3 44q-107 -7 -269 -49l-15 87
q126 22 275 33l-11 79q-68 -4 -140 -12t-140 -20l-10 82q99 16 275 22q-15 91 -28 139q53 11 103 17.5t95 7.5q5 -24 10.5 -56t9.5 -60t4 -41h48.5t61 -0.5t101.5 -2.5l-3 -80q-47 7 -93 9.5t-110 2.5l5 -82q40 0 88 -3.5t111 -11.5l-9 -74q-53 9 -98 13t-92 4
q2 -18 3.5 -61.5t1.5 -96.5q-10 2 -30 2.5t-45 0.5q-227 0 -227 -76q0 -44 84.5 -69t277.5 -38q-19 -91 -58 -157z" />
    <glyph glyph-name="uni304F" unicode="&#x304f;" horiz-adv-x="570" 
d="M441 -73q-60 80 -122 147t-136.5 133.5t-172.5 141.5q49 91 99 168t107.5 148t126.5 142q51 -17 101.5 -42.5t99.5 -57.5q-107 -79 -197 -169.5t-175 -203.5q58 -40 105 -74.5t90.5 -69.5t89.5 -76.5t103 -94.5q-29 -24 -57.5 -46t-61.5 -46z" />
    <glyph glyph-name="uni3050" unicode="&#x3050;" horiz-adv-x="790" 
d="M451 -79q-51 66 -98.5 120.5t-96.5 103t-104.5 95t-121.5 96.5q42 89 76 153.5t66.5 117t69.5 101.5t85 106q43 -12 92.5 -35.5t105.5 -58.5q-67 -59 -123 -118t-107.5 -125.5t-106.5 -150.5q53 -36 98 -69t88 -68t89 -76t101 -94q-28 -25 -54.5 -48t-58.5 -50zM680 496
q-16 38 -35 83t-45 106l101 46q19 -40 37.5 -84.5t41.5 -102.5zM549 432q-50 110 -80 189l101 46q23 -50 45 -101t34 -85z" />
    <glyph glyph-name="uni3051" unicode="&#x3051;" horiz-adv-x="880" 
d="M655 -54q-35 5 -75 13t-98 21q32 115 47 232.5t15 248.5q-46 -4 -96.5 -11.5t-97.5 -15.5l-14 91q64 8 114 13t87 6q-12 102 -45 230q75 22 174 22q16 -69 25 -134t9 -112q48 0 85 -1t65 -3l-3 -87q-40 5 -74 7.5t-68 2.5q0 -88 -6 -183.5t-17.5 -183.5t-26.5 -156z
M104 9q-26 84 -40 182t-14 195q0 93 13 182t38 170q38 -5 81 -14.5t95 -23.5q-25 -95 -37.5 -188t-12.5 -185q0 -46 3 -101.5t8 -102.5l82 11l20 -67q-124 -43 -236 -58z" />
    <glyph glyph-name="uni3052" unicode="&#x3052;" horiz-adv-x="990" 
d="M637 -74q-49 8 -93.5 16t-84.5 18q31 107 47.5 231.5t16.5 249.5q-81 -8 -181 -27l-14 91q45 6 92.5 10.5t95.5 8.5q-12 112 -48 230q95 22 181 22q15 -61 25.5 -125.5t13.5 -117.5q29 0 69 -1.5t87 -5.5l-3 -82q-37 4 -77.5 7t-69.5 4q0 -62 -4 -132t-12 -141.5
t-18.5 -137t-22.5 -118.5zM874 573q-2 58 -5.5 106.5t-7.5 90.5l112 4q3 -40 5 -91.5t2 -107.5zM729 565q-3 43 -7.5 92t-11.5 105l114 7q7 -44 11.5 -94t6.5 -102zM107 -11q-28 86 -42.5 182.5t-14.5 193.5q0 95 13.5 185.5t40.5 167.5q44 -7 89.5 -16.5t91.5 -21.5
q-25 -88 -38.5 -183.5t-13.5 -196.5q0 -48 3 -99t8 -98l85 11l21 -67q-141 -44 -243 -58z" />
    <glyph glyph-name="uni3053" unicode="&#x3053;" horiz-adv-x="718" 
d="M582 511l-136 31l19 93q-37 6 -70 9t-69 3q-54 0 -117 -6.5t-131 -18.5l-18 84q41 9 96 13.5t118 4.5q81 0 157.5 -8t139 -21.5t100.5 -32.5q-43 -96 -89 -151zM317 -16q-137 0 -212 46.5t-75 131.5q0 50 27 110l79 -19v-12q0 -43 51.5 -67.5t139.5 -24.5q68 0 150.5 15
t173.5 44q14 -46 23 -89t14 -83q-26 -10 -70.5 -19t-97.5 -16.5t-106 -12t-97 -4.5z" />
    <glyph glyph-name="uni3054" unicode="&#x3054;" horiz-adv-x="790" 
d="M554 538l-130 28l16 94q-66 9 -123 9q-47 0 -108 -7t-141 -22l-18 84q107 22 230 22q73 0 142.5 -7t125.5 -19.5t90 -29.5q-41 -99 -84 -152zM668 315q-4 28 -10.5 62t-12.5 67t-11 57l110 16q10 -34 18.5 -78t17.5 -106zM518 289q-5 39 -13.5 84t-21.5 103l122 19
q10 -42 19 -90t17 -97zM297 6q-126 0 -196.5 47t-70.5 130q0 49 24 107l77 -18v-5q0 -46 46 -71t129 -25q68 0 150.5 17t170.5 48q22 -72 38 -171q-27 -11 -71.5 -21.5t-97.5 -19t-105 -13.5t-94 -5z" />
    <glyph glyph-name="uni3055" unicode="&#x3055;" horiz-adv-x="733" 
d="M459 -70q-198 44 -303.5 115.5t-105.5 161.5q0 57 40 101t113 72t172 34q-4 10 -11 32t-15 49t-15 51.5t-11 39.5l-286 -26l-7 94q100 0 162.5 2t107.5 6q-18 68 -33 152q65 5 102.5 7.5t61 5t44.5 4.5q6 -76 18 -144q53 5 96.5 12t95.5 19l18 -87q-10 -2 -35.5 -5.5
t-56.5 -7.5t-58.5 -6.5t-42.5 -3.5q17 -95 66 -287q-93 9 -165 9q-214 0 -214 -83q0 -31 34 -55.5t113.5 -47.5t215.5 -50q-22 -46 -47 -86.5t-54 -77.5z" />
    <glyph glyph-name="uni3056" unicode="&#x3056;" horiz-adv-x="900" 
d="M425 -70q-121 25 -208.5 65.5t-135 92t-47.5 109.5q0 55 41.5 99.5t114.5 72t168 32.5l-43 185l-279 -31l-6 94q56 0 124.5 3.5t143.5 9.5q-17 70 -29 152l204 17q3 -76 12 -144l99 11l3 -79l-87 -11q19 -127 55 -284q-64 6 -116 6q-114 0 -179 -21.5t-65 -59.5
q0 -30 41.5 -58.5t117 -51.5t177.5 -37q-48 -99 -106 -172zM732 578h-118l-8 201h131q0 -55 -1.5 -110.5t-3.5 -90.5zM881 571l-117 7q2 26 3 71t1 128l122 -4q0 -42 -2 -96t-7 -106z" />
    <glyph glyph-name="uni3057" unicode="&#x3057;" horiz-adv-x="746" 
d="M341 -62q-106 0 -170 43t-92.5 139t-28.5 256q0 152 24 374q20 2 57.5 4t79.5 3t74 1q-21 -147 -31.5 -258t-10.5 -193q0 -145 33.5 -213t104.5 -68q109 0 270 152l65 -85q-90 -79 -181 -117t-194 -38z" />
    <glyph glyph-name="uni3058" unicode="&#x3058;" horiz-adv-x="759" 
d="M346 -57q-108 0 -173 43t-94 139t-29 256q0 148 24 374q23 2 61.5 4t80 3t73.5 1q-22 -154 -32.5 -262.5t-10.5 -188.5q0 -145 34 -213t107 -68q111 0 275 152l67 -85q-92 -79 -185.5 -117t-197.5 -38zM603 506l-33 201l122 18q8 -45 15.5 -94.5t15.5 -105.5zM445 482
q-14 80 -29 203l120 17q8 -47 15.5 -95t14.5 -107z" />
    <glyph glyph-name="uni3059" unicode="&#x3059;" horiz-adv-x="910" 
d="M563 -90q-52 2 -104 7.5t-108 15.5q16 38 31.5 89t25.5 100q-8 -1 -16 -1.5t-16 -0.5q-55 0 -98.5 23t-68 64t-24.5 94q0 60 30 104.5t84.5 69.5t126.5 25l-10 96q-76 -7 -167 -22.5t-200 -40.5l-19 96q86 13 178.5 23t196.5 18l-26 139q103 22 220 22l6 -155
q68 0 137 -4t138 -11l-5 -98q-132 28 -269 36q0 -9 0.5 -32.5t1 -53.5t0.5 -58.5v-47.5q0 -69 -2.5 -127.5t-8 -114.5t-14 -117.5t-20.5 -137.5zM425 203q6 63 6 113q0 24 -1.5 51.5t-3.5 58.5q-12 14 -29 14q-25 0 -41 -27.5t-16 -75.5q0 -58 23.5 -96t61.5 -38z" />
    <glyph glyph-name="uni305A" unicode="&#x305a;" 
d="M545 -90q-130 7 -204 22q16 38 29 86.5t23 101.5q-6 -1 -15 -1.5t-18 -0.5q-51 0 -91 24.5t-63 68t-23 99.5q0 62 28.5 107.5t79.5 71t120 25.5l-10 91q-76 -7 -166 -24t-188 -42l-17 101q77 13 165 23t195 20l-24 145q56 11 107 17t100 6l6 -162q24 0 54 -1t60 -3
l-6 -88q-33 5 -107 11q1 -17 1.5 -51.5t1 -72.5t0.5 -69q0 -73 -2 -132t-6.5 -115t-11.5 -118t-18 -140zM822 548l-119 15q4 46 7 108.5t3 117.5l127 -12q-5 -120 -18 -229zM964 531l-114 11l18 233l122 -16zM410 205q2 38 3.5 67.5t1.5 57.5q0 24 -1 50t-3 57
q-16 16 -31 16q-22 0 -36.5 -30.5t-14.5 -80.5q0 -61 22 -99t59 -38z" />
    <glyph glyph-name="uni305B" unicode="&#x305b;" horiz-adv-x="961" 
d="M500 -15q-106 0 -167 25t-89.5 79.5t-36.5 142t-8 212.5q-37 -7 -76 -17t-78 -21l-15 113q44 6 87 11t83 9q2 55 6.5 109t10.5 109q50 4 99 6t97 2l-22 -212l160 3q2 47 3.5 104t1.5 112q20 2 43.5 2.5t44.5 0.5q60 0 106 -6q0 -57 -2 -114t-4 -105q47 -2 93 -5.5
t94 -8.5l-17 -96q-46 8 -90 13.5t-85 9.5q-4 -59 -9.5 -116t-13.5 -110q-26 0 -75.5 1.5t-98.5 2.5q4 48 5.5 104t1.5 129q-40 0 -84 -0.5t-80 -2.5q-9 -93 -9 -160q0 -130 34 -186t113 -56q50 0 122.5 19.5t155.5 54.5l31 -104q-88 -28 -170 -41t-162 -13z" />
    <glyph glyph-name="uni305C" unicode="&#x305c;" 
d="M824 561l-114 10q2 47 4 104t2 108l124 -7q0 -39 -4 -96.5t-12 -118.5zM969 549l-113 12l13 215l121 -11q-2 -44 -7.5 -97.5t-13.5 -118.5zM488 -27q-94 0 -153.5 19.5t-92.5 69t-46 139.5t-13 230q-79 -13 -150 -38l-13 113q46 7 85 11.5t80 8.5l10 220q44 5 89.5 6.5
t100.5 1.5l-16 -215q15 2 50 2.5t81 0.5v219q49 0 96.5 -2t75.5 -4q0 -113 -6 -221q86 -3 199 -13l-10 -99q-55 10 -104 17t-90 11q-3 -48 -8.5 -104t-15.5 -131q-44 0 -84.5 1.5t-65.5 4.5l11 241q-34 0 -73 -1.5t-61 -3.5q-2 -37 -3 -72t-1 -62q0 -104 13 -161t45.5 -79.5
t89.5 -22.5q51 0 119.5 14t137.5 38l28 -97q-81 -22 -156 -32t-149 -10z" />
    <glyph glyph-name="uni305D" unicode="&#x305d;" horiz-adv-x="841" 
d="M347 -47q-20 50 -20 108q0 74 26.5 140t75.5 117.5t116 81.5q-148 -7 -270.5 -22t-223.5 -38l-21 107q34 8 82.5 15.5t91.5 11.5q23 17 56.5 47t71.5 67.5t74 75.5t63 71q-67 -9 -142.5 -28t-146.5 -45l-31 107q59 8 128.5 15.5t140.5 13t134 9t108 3.5l26 -61
q-12 -18 -43.5 -51t-72.5 -73t-84.5 -79t-79.5 -69q105 0 211 -4.5t194 -12.5l-10 -81q-79 0 -137.5 -30.5t-90.5 -86t-32 -131.5q0 -39 9.5 -80t26.5 -84q-82 -2 -136 -5.5t-94 -8.5z" />
    <glyph glyph-name="uni305E" unicode="&#x305e;" horiz-adv-x="952" 
d="M343 -54q-10 25 -15.5 57t-5.5 67q0 110 53.5 195t150.5 131q-276 -13 -474 -60l-22 107q38 9 84 16.5t83 11.5q21 16 52 46t67 67.5t70 76t61 72.5q-62 -9 -134.5 -28t-141.5 -45l-32 107q58 8 125 15.5t135 13t127.5 9t102.5 3.5l26 -61q-12 -18 -41.5 -51t-68 -73.5
t-79.5 -79.5t-75 -69q98 0 200 -5t189 -13l-8 -81q-115 0 -180 -63.5t-65 -175.5q0 -42 10.5 -87t27.5 -88q-85 -2 -135.5 -5.5t-86.5 -9.5zM765 511l-129 9q4 25 8 60.5t8.5 73t7.5 67.5l127 -10q-4 -57 -10 -109t-12 -91zM919 492l-121 12q8 59 13 107t8 97l123 -13
q-4 -41 -9 -86.5t-14 -116.5z" />
    <glyph glyph-name="uni305F" unicode="&#x305f;" horiz-adv-x="884" 
d="M312 -34q-114 11 -216 21q12 70 27 149.5t30.5 157.5t30.5 143.5t27 108.5q-30 -7 -73 -19t-91 -29l-17 83q28 9 64 17.5t72.5 16.5t64.5 13q10 37 26.5 89.5t32.5 100.5q106 0 182 -15q-16 -54 -26 -89t-17 -61q85 8 184 12t188 4l-10 -97q-64 8 -109 10.5t-89 2.5
q-37 0 -80.5 -1.5t-99.5 -6.5q-22 -91 -48 -249t-53 -362zM489 367l-24 78q44 14 111 22t140 8q75 0 135 -9q-7 -28 -15 -50t-20 -48q-66 22 -140 22q-37 0 -82.5 -5.5t-104.5 -17.5zM720 -11q-130 0 -197.5 32.5t-67.5 94.5q0 32 16.5 63t44.5 50l62 -18q-12 -25 -12 -43
q0 -51 109 -51q32 0 71.5 4t93.5 11q11 -48 14 -136q-34 -4 -68 -5.5t-66 -1.5z" />
    <glyph glyph-name="uni3060" unicode="&#x3060;" horiz-adv-x="920" 
d="M302 -46q-110 13 -209 21q9 56 23 127t29.5 147.5t31.5 148t30 127.5q-13 -3 -42 -11.5t-61 -18t-55 -17.5l-19 83q53 14 88.5 22.5t61 13.5t47.5 8l52 198q44 0 91 -4t87 -11q-16 -58 -26 -94.5t-16 -62.5q67 9 114.5 14t88.5 6l3 -82q-47 0 -99 -3t-123 -10
q-21 -90 -46 -246.5t-51 -355.5zM801 547q0 104 -6 198l115 2v-200h-109zM655 543q0 47 -1.5 98.5t-4.5 98.5l116 4l7 -193zM473 354l-23 77q47 14 114 21.5t133 7.5q74 0 131 -9q-9 -34 -16 -54.5t-18 -41.5q-65 22 -137 22q-39 0 -83.5 -6t-100.5 -17zM697 -16
q-126 0 -191.5 31.5t-65.5 92.5q0 32 17 63t43 48l61 -18q-12 -24 -12 -42q0 -50 105 -50q29 0 68.5 3.5t94.5 11.5q11 -50 14 -133q-37 -4 -70.5 -5.5t-63.5 -1.5z" />
    <glyph glyph-name="uni3061" unicode="&#x3061;" horiz-adv-x="730" 
d="M435 -92q-83 55 -153 113q118 47 183 106t65 117q0 70 -98 70q-26 0 -60 -6t-83 -20t-122 -39q0 44 1 76t3.5 61.5t7 64t12.5 81.5q-32 -4 -70.5 -10.5t-77.5 -17.5l-13 104q56 8 101 13t79 7q9 47 23 98t33 112q62 0 117 -4t94 -12q-24 -56 -41 -98t-32 -82q48 3 109 3
q51 0 100.5 -2t92.5 -7l-5 -86q-52 5 -105.5 7.5t-98.5 2.5q-32 0 -64 -1.5t-57 -4.5q-28 -87 -40 -179q37 7 71 10.5t66 3.5q113 0 180 -41t67 -110q0 -39 -21.5 -84t-60 -89.5t-90.5 -85t-113 -71.5z" />
    <glyph glyph-name="uni3062" unicode="&#x3062;" horiz-adv-x="873" 
d="M456 -97q-29 17 -64.5 43t-90.5 69q112 49 171 107.5t59 120.5q0 72 -91 72q-22 0 -50.5 -5.5t-78 -20.5t-135.5 -44q0 68 4 147t11 142q-23 -3 -60 -11t-85 -20l-16 103q32 6 78.5 13t95.5 13q22 119 47 216q41 0 95 -1.5t100 -7.5q-17 -51 -29.5 -93t-26.5 -95
q55 6 100.5 8.5t79.5 2.5l6 -91q-61 0 -119.5 -2.5t-87.5 -7.5q-11 -43 -19 -89t-13 -94q27 8 64.5 12.5t75.5 4.5q112 0 176 -43t64 -116q0 -53 -33.5 -113t-92 -117.5t-135.5 -102.5zM756 537q-2 26 -4.5 58t-5 63.5t-5 55.5t-3.5 33l104 7q5 -41 8 -74t6.5 -65t6.5 -72z
M606 526q0 48 -3.5 103t-9.5 107l112 8q5 -48 9.5 -100t8.5 -109z" />
    <glyph glyph-name="uni3063" unicode="&#x3063;" horiz-adv-x="740" 
d="M420 -98q-69 51 -137 129q146 85 209.5 142.5t63.5 103.5q0 38 -35 60t-93 22q-57 0 -154.5 -23t-225.5 -67l-18 91q67 18 142 32t143.5 22t116.5 8q83 0 145.5 -23.5t97.5 -66t35 -98.5q0 -57 -36.5 -118t-102 -117t-151.5 -97z" />
    <glyph glyph-name="uni3064" unicode="&#x3064;" horiz-adv-x="910" 
d="M517 -35q-83 61 -171 161q122 71 197 126t109.5 99.5t34.5 82.5q0 47 -43.5 74.5t-115.5 27.5q-71 0 -193 -28.5t-282 -83.5l-23 114q63 17 132 31t137 24t128.5 16t105.5 6q103 0 181 -29.5t122 -82.5t44 -123q0 -71 -46 -147.5t-127.5 -146t-189.5 -121.5z" />
    <glyph glyph-name="uni3065" unicode="&#x3065;" horiz-adv-x="990" 
d="M846 530q-4 47 -12 95t-19 97l115 14q21 -89 30 -193zM699 511q-6 47 -12.5 93t-15.5 100l114 11q9 -53 16.5 -101t12.5 -90zM500 -44q-43 35 -85 76.5t-81 89.5q174 109 252.5 184.5t78.5 133.5q0 45 -41.5 71t-113.5 26q-75 0 -194 -29t-264 -82l-22 119
q88 26 182 44.5t185 28.5t171 10q20 0 43 -0.5t39 -1.5l24 -151l173 20q6 -15 6 -45q0 -119 -91 -246.5t-262 -247.5z" />
    <glyph glyph-name="uni3066" unicode="&#x3066;" horiz-adv-x="850" 
d="M497 -45q-93 86 -135.5 169t-42.5 180q0 208 190 358q-63 -4 -118 -10t-108 -15.5t-111 -23t-128 -32.5l-14 108q150 23 273.5 34t243.5 11q71 0 143.5 -3.5t129.5 -9.5l-5 -78q-94 0 -165 -31t-110.5 -86t-39.5 -128q0 -46 18.5 -93t59.5 -102t109 -125q-37 -31 -84 -61
t-106 -62z" />
    <glyph glyph-name="uni3067" unicode="&#x3067;" horiz-adv-x="910" 
d="M492 -48q-92 86 -134.5 170t-42.5 183q0 203 176 354q-60 -5 -111.5 -12t-102.5 -17t-107 -24.5t-124 -34.5l-16 107q147 28 280.5 41.5t263.5 13.5q106 0 215 -9l-3 -79q-89 -1 -156.5 -32.5t-105 -86.5t-37.5 -127q0 -47 18.5 -94.5t59.5 -102t108 -124.5
q-35 -30 -79 -60.5t-102 -65.5zM773 362q-10 47 -21.5 94.5t-25.5 102.5l108 29q14 -48 25 -96.5t21 -103.5zM628 326l-44 194l111 30q22 -107 46 -193z" />
    <glyph glyph-name="uni3068" unicode="&#x3068;" horiz-adv-x="699" 
d="M372 -31q-138 0 -212 54.5t-74 157.5q0 51 21 99.5t71 117.5l-101 -11q-13 84 -20 179.5t-7 192.5q78 15 201 19q-4 -33 -8 -87t-6.5 -113t-2.5 -109q126 111 324 232q35 -35 66.5 -74.5t57.5 -80.5q-155 -80 -253.5 -148.5t-145 -128.5t-46.5 -117q0 -100 123 -100
q36 0 88.5 8t110 22.5t107.5 32.5l23 -97q-79 -23 -163.5 -36t-153.5 -13z" />
    <glyph glyph-name="uni3069" unicode="&#x3069;" horiz-adv-x="830" 
d="M710 548q-22 128 -45 231l118 16q10 -42 18.5 -96t18.5 -132zM370 -34q-133 0 -205.5 55.5t-72.5 158.5q0 51 20 102t63 113l-80 -19q-13 53 -23 120t-16 134t-6 121q31 6 57.5 10.5t56 9.5t68.5 10q-2 -40 -3.5 -85t-1.5 -86q0 -40 1.5 -76.5t4.5 -63.5q74 79 137 133.5
t126 95.5l49 -208q-109 -74 -173 -129.5t-91.5 -102t-27.5 -94.5q0 -56 33 -87.5t92 -31.5q34 0 81.5 9.5t99 26.5t94.5 37l37 -91q-184 -62 -320 -62zM568 524q-13 67 -25.5 123.5t-24.5 101.5l118 22q16 -63 26 -117t17 -110z" />
    <glyph glyph-name="uni306A" unicode="&#x306a;" horiz-adv-x="911" 
d="M218 10q-64 23 -98 36t-53 21t-37 16q79 283 161 470q-18 -1 -48 -4.5t-62 -8.5l-6 89q30 5 71 10t85 9q26 54 49.5 100t46.5 88q85 -10 155 -40q-22 -49 -34 -79t-20 -56q18 1 51.5 2t76.5 2t87.5 1.5t84.5 0.5l7 -96q-19 1 -48.5 2t-61 1.5t-58.5 0.5q-40 0 -83.5 -1.5
t-90.5 -3.5q-31 -82 -63 -178t-61 -194.5t-51 -187.5zM540 -54q-235 0 -235 155q0 82 62.5 130.5t167.5 50.5q-2 62 -7 120.5t-10 89.5q68 0 136 -1t123.5 -2.5t85.5 -3.5l-3 -89q-51 8 -93.5 14.5t-86.5 12.5q4 -49 9 -169q92 -28 192 -113l-44 -101q-87 83 -145 116
q0 -38 -3 -88t-10 -109q-74 -13 -139 -13zM530 -4l7 200q-40 0 -62 -25t-22 -70q0 -43 20.5 -71.5t56.5 -33.5z" />
    <glyph glyph-name="uni306B" unicode="&#x306b;" horiz-adv-x="903" 
d="M82 -39q-32 125 -32 304q0 126 16 256.5t46 249.5q120 -16 200 -37q-37 -116 -58 -255t-21 -274q0 -70 6 -135l94 7l8 -68q-107 -38 -259 -48zM828 542q-67 18 -127 26.5t-116 8.5q-93 0 -180 -24l-10 81q65 18 141 28t149 10q58 0 104 -6.5t74 -18.5q-6 -24 -14 -47.5
t-21 -57.5zM638 -2q-120 0 -182 45t-62 132q0 25 5 52.5t12 49.5q18 -2 35.5 -5.5t38.5 -8.5q0 -55 23.5 -79t77.5 -24q27 0 70 5t93.5 13t97.5 18q3 -13 8 -43t10.5 -62t7.5 -53q-126 -40 -235 -40z" />
    <glyph glyph-name="uni306C" unicode="&#x306c;" horiz-adv-x="1010" 
d="M736 0q-174 0 -174 132q0 71 47 116t124 47q-6 144 -66 207q-58 -238 -167 -366t-254 -128q-102 0 -159 63.5t-57 175.5q0 207 204 324l-8 163q45 6 87 8t81 2q-1 -20 -1 -50v-65q38 6 69 9t62 3q1 8 3.5 32t5.5 51.5t4 45.5q91 -6 174 -27q-3 -22 -7.5 -50.5t-8.5 -51.5
t-6 -32q59 -16 103.5 -60t69 -106.5t24.5 -135.5q0 -23 -3 -47q26 -12 50 -27t47 -32l-51 -86l-57 59q-8 -55 -16.5 -95t-19.5 -70q-55 -9 -100 -9zM285 92q52 0 96 56.5t78 162t54 253.5q-27 0 -58 -2t-62 -9q0 -108 2.5 -193.5t7.5 -155.5q-34 -6 -69.5 -10t-64.5 -4
q-9 59 -16 132t-12 149q-63 -86 -63 -204q0 -79 29 -127t78 -48zM720 57q5 39 7.5 84.5t2.5 99.5q-22 -2 -38.5 -32t-16.5 -68q0 -61 45 -84z" />
    <glyph glyph-name="uni306D" unicode="&#x306d;" horiz-adv-x="990" 
d="M292 -47q-10 63 -16.5 129.5t-10.5 133.5q-16 -30 -40 -79t-64 -132q-75 51 -131 141q34 71 90.5 154.5t138.5 186.5v37q-56 -8 -102 -16t-93 -17l-4 103q38 5 90 7.5t112 2.5q6 140 12 219q114 0 162 -9q-3 -27 -7 -75t-7 -93q27 18 65.5 32.5t80.5 23t78 8.5
q74 0 118.5 -42t64.5 -135.5t20 -249.5q24 -13 50.5 -34t60.5 -54l-53 -96l-68 67q-4 -46 -11 -91.5t-17 -87.5q-51 -8 -94 -8q-100 0 -155.5 46.5t-55.5 128.5q0 77 49 121t137 47q0 156 -22.5 231.5t-66.5 75.5q-26 0 -63 -23.5t-72 -60.5t-58 -79q-1 -44 -1.5 -70.5
t-0.5 -55.5q0 -57 1.5 -112t5.5 -116t10 -139q-35 -8 -68 -13t-65 -7zM681 40q5 62 7.5 122t2.5 99q-32 -5 -51 -36.5t-19 -81.5q0 -40 14.5 -64.5t45.5 -38.5z" />
    <glyph glyph-name="uni306E" unicode="&#x306e;" horiz-adv-x="909" 
d="M863 -13q-57 0 -108 3t-79 8q12 116 12 209q0 207 -59.5 307t-182.5 100q-77 0 -135 -36.5t-90 -103t-32 -155.5q0 -59 13.5 -106t37.5 -73.5t54 -26.5q39 0 62 43.5t23 116.5q0 50 -11.5 115t-35.5 147q62 14 128 14q29 0 56 -3q8 -46 12.5 -89t4.5 -81
q0 -107 -32.5 -185t-92.5 -119.5t-144 -41.5q-110 0 -172 73.5t-62 203.5q0 119 51.5 203.5t148 130t230.5 45.5q212 0 315.5 -119.5t103.5 -364.5q0 -47 -4 -100.5t-12 -114.5z" />
    <glyph glyph-name="uni306F" unicode="&#x306f;" horiz-adv-x="939" 
d="M647 -23q-152 0 -217 37t-65 123q0 89 58.5 138t161.5 49q-7 90 -21 214q-103 -13 -208 -40l-12 90q45 9 95.5 16t115.5 14q-2 28 -7.5 62.5t-13.5 80.5q56 9 102.5 15t95.5 10q4 -29 7.5 -70.5t5.5 -84.5q26 2 41.5 2.5t25.5 0.5q11 0 25.5 -0.5t39.5 -2.5l-3 -89
q-22 3 -51.5 5t-71.5 2q4 -67 5.5 -125.5t1.5 -128.5q40 -13 77.5 -30t73.5 -38l-47 -97q-25 20 -51 38.5t-54 34.5q-4 -138 -15 -222q-23 -2 -47.5 -3t-47.5 -1zM72 2q-11 72 -16.5 146t-5.5 150q0 222 49 458q43 -5 89 -14t98 -22q-19 -59 -33.5 -138t-22 -166.5
t-7.5 -174.5q0 -37 1.5 -74t3.5 -81l70 6l9 -59q-95 -15 -235 -31zM594 44q0 51 -1.5 99t-4.5 116q-40 -4 -62 -30.5t-22 -70.5q0 -46 23.5 -76t66.5 -38z" />
    <glyph glyph-name="uni3070" unicode="&#x3070;" horiz-adv-x="990" 
d="M673 -24q-130 0 -208.5 17t-113.5 55.5t-35 101.5q0 87 56 136.5t154 52.5q0 26 -1.5 52.5t-4.5 61.5t-9 86q-31 -5 -71 -13t-98 -20l-14 93q38 5 79 10t96 10q-5 49 -10.5 91.5t-10.5 67.5q68 11 193 18l10 -169l23 2l6 -81h-22q1 -23 1.5 -62t0.5 -68t-0.5 -61.5
t-1.5 -51.5q101 -31 210 -105l-44 -102q-46 38 -88 68t-82 52q-2 -50 -4.5 -99t-5 -87t-5.5 -56zM66 -4q-7 62 -11.5 134.5t-4.5 149.5q0 255 44 475q115 -10 193 -33q-19 -67 -33 -149.5t-21.5 -171.5t-7.5 -177q0 -35 1.5 -73.5t3.5 -79.5l57 3l4 -62q-75 -9 -225 -16z
M975 534l-105 4q0 68 -1 114.5t-3 93.5l114 -2q0 -32 -0.5 -71t-1.5 -76t-3 -63zM737 539q-3 66 -5.5 112t-5.5 91l112 2q2 -30 3 -67.5t2 -73.5t1 -64h-107zM535 45q0 46 -1.5 95t-4.5 124q-37 -2 -59 -29.5t-22 -73.5t23 -76.5t64 -39.5z" />
    <glyph glyph-name="uni3071" unicode="&#x3071;" horiz-adv-x="1002" 
d="M859 571q-57 0 -94 35t-37 89q0 52 33.5 84t86.5 32q56 0 90 -34t34 -90q0 -52 -30.5 -84t-82.5 -32zM580 -22q-262 0 -262 187q0 167 209 167q-4 51 -10 103.5t-14 110.5q-32 -4 -72 -12t-98 -21l-15 94q37 7 86.5 13t87.5 9l-24 160q35 6 89.5 11t106.5 6q4 -34 7 -70
t7 -94h28q5 -22 20.5 -43.5t40.5 -39.5l-78 2q3 -76 4.5 -134t1.5 -121q48 -13 104 -39.5t122 -65.5l-48 -106q-42 34 -87.5 65t-95.5 59q0 -86 -1.5 -138.5t-5.5 -96.5q-55 -6 -103 -6zM844 617q17 0 28 24.5t11 61.5q0 63 -28 63q-17 0 -27 -19.5t-10 -54.5q0 -75 26 -75z
M77 -9q-27 153 -27 335q0 221 38 435q24 -2 57.5 -6.5t69 -10.5t65.5 -13q-25 -95 -38.5 -220t-13.5 -261q0 -44 1.5 -90t3.5 -92l58 8l5 -60q-58 -8 -111.5 -14t-107.5 -11zM546 43q0 51 -3.5 105.5t-9.5 116.5q-84 -4 -84 -86q0 -50 27 -88t70 -48z" />
    <glyph glyph-name="uni3072" unicode="&#x3072;" horiz-adv-x="960" 
d="M428 -29q-104 0 -178.5 36t-114.5 103.5t-40 161.5q0 86 34 194t95 215q-8 0 -31.5 -2.5t-54 -5.5t-59.5 -6t-49 -6l5 112q101 -2 201.5 -9t180.5 -18q-142 -350 -142 -510q0 -79 34.5 -128t89.5 -49q85 0 125.5 125t40.5 384q0 73 -3 160q86 -11 178.5 -31.5
t189.5 -49.5l-33 -116q-52 27 -88 42.5t-67 25.5q0 -180 -15.5 -301t-51.5 -193t-96.5 -103t-150.5 -31z" />
    <glyph glyph-name="uni3073" unicode="&#x3073;" horiz-adv-x="940" 
d="M787 572q-4 36 -8.5 83.5t-9.5 105.5l104 6q12 -79 16 -190zM647 564q0 8 -1.5 33t-3.5 57t-4 59t-4 39l105 6l15 -189zM429 -35q-104 0 -180.5 35.5t-118 101t-41.5 156.5q0 59 17 128t47.5 138.5t70.5 129.5q-28 -1 -68 -3.5t-75 -4.5t-51 -3l8 106q133 -9 226 -17.5
t158 -17.5q-33 -65 -60 -134t-47.5 -135.5t-31.5 -124.5t-11 -101q0 -75 34.5 -121.5t90.5 -46.5q84 0 125 122.5t41 373.5q0 68 -3 140l49 -10l13 -145l116 8q0 -163 -15.5 -274t-51 -177t-95 -95t-147.5 -29zM890 487q-37 20 -64 32t-53 21l137 9z" />
    <glyph glyph-name="uni3074" unicode="&#x3074;" horiz-adv-x="960" 
d="M761 553q-55 0 -87.5 33t-32.5 88q0 54 32.5 85.5t87.5 31.5q56 0 90 -32.5t34 -86.5q0 -53 -34 -86t-90 -33zM772 597q14 0 19.5 13.5t5.5 40.5q0 42 -10 69.5t-26 27.5q-14 0 -22.5 -22t-8.5 -53q0 -39 12.5 -57.5t29.5 -18.5zM434 -45q-161 0 -244.5 77.5t-83.5 225.5
q0 58 11.5 124t33 132.5t50.5 125.5q-49 -4 -89.5 -9t-81.5 -12l4 109q188 -3 359 -18q-31 -86 -54 -175t-36 -169t-13 -139q0 -89 33 -138t92 -49q51 0 82.5 43t46 136.5t14.5 245.5q0 51 -1.5 110t-5.5 118q32 -3 62 -9q0 -67 32.5 -110t88.5 -46q0 -168 -14 -279
t-48 -175.5t-92 -91.5t-146 -27zM901 502l-77 34q29 8 52 33.5t27 55.5l27 -10z" />
    <glyph glyph-name="uni3075" unicode="&#x3075;" horiz-adv-x="921" 
d="M206 -31q-26 0 -59.5 0.5t-64.5 2t-52 2.5q9 198 36 381q25 0 56.5 -1t63.5 -4t56 -8q-8 -61 -13.5 -109.5t-8.5 -80.5q34 -24 74.5 -37t71.5 -13q48 0 74 28.5t26 70.5q0 41 -22 85t-58.5 82.5t-80.5 61.5q31 38 67 75t68 64q-53 55 -164 105q26 36 57.5 65.5t68.5 53.5
q57 -38 94 -70t64.5 -67t55.5 -84q-33 -18 -65.5 -40t-64.5 -49q57 -57 90 -103t47.5 -88t14.5 -89q0 -92 -50 -137.5t-145 -45.5q-53 0 -114 13t-116 35q-2 -28 -3.5 -50.5t-3.5 -48.5zM709 -30q0 89 -5.5 187.5t-15.5 190.5q34 5 73 6.5t97 1.5q20 -175 33 -375
q-80 -11 -182 -11z" />
    <glyph glyph-name="uni3076" unicode="&#x3076;" horiz-adv-x="918" 
d="M210 -28q-43 0 -85.5 1.5t-94.5 4.5q0 96 5 184t15 189q92 -5 173 -15q-4 -38 -7 -83.5t-7 -113.5q74 -42 140 -42q51 0 79.5 23t28.5 63q0 30 -15 65t-40 69.5t-56 62t-64 42.5q36 42 59 68.5t39 44.5t31 33q-55 52 -170 98q51 74 122 125q62 -38 101 -68t67.5 -63
t57.5 -80q-69 -42 -126 -96q61 -55 97.5 -101.5t52.5 -91.5t16 -96q0 -91 -49 -133.5t-155 -42.5q-55 0 -114.5 10t-103.5 26q3 -49 3 -83zM760 485l-115 5l7 214l115 -7q-3 -46 -5 -98.5t-2 -113.5zM904 476l-113 7q0 42 1 91t4 123l112 -6q-1 -18 -1.5 -47.5t-1 -62.5
t-1 -61.5t-0.5 -43.5zM712 -18q-4 86 -13.5 178t-25.5 198q59 9 100 13t72 4q8 -49 15 -100.5t15.5 -116.5t19.5 -157q-33 -7 -79.5 -12t-103.5 -7z" />
    <glyph glyph-name="uni3077" unicode="&#x3077;" horiz-adv-x="935" 
d="M208 -32q-94 6 -178 6q0 170 30 381q46 -2 89 -7t82 -12q-5 -47 -10 -96.5t-9 -100.5q35 -20 74 -33t73 -13q50 0 77 28t27 70q0 36 -17 72t-43.5 68.5t-56 57t-54.5 37.5q32 37 67 74t68 68q-53 52 -168 100q27 38 58 68t66 55q74 -45 130.5 -96.5t96.5 -111.5
q-34 -24 -68 -49t-66 -52q46 -40 83 -80.5t59 -89.5t22 -117q0 -30 -7 -61t-28 -57t-61.5 -42t-106.5 -16q-30 0 -70 4t-81.5 12t-77.5 20v-87zM778 456q-56 0 -91 30t-35 87q0 59 35.5 87t88.5 28q59 0 94 -31.5t35 -86.5q0 -58 -37 -86t-90 -28zM783 499q17 0 23 19.5
t6 44.5q0 47 -11 64.5t-26 17.5q-31 0 -31 -62q0 -37 10.5 -60.5t28.5 -23.5zM717 -26q-4 95 -11 188t-18 185q49 8 92.5 12t80.5 4q14 -88 23.5 -181.5t16.5 -191.5q-43 -8 -89.5 -12t-94.5 -4z" />
    <glyph glyph-name="uni3078" unicode="&#x3078;" horiz-adv-x="970" 
d="M811 65q-142 137 -256 242t-208 181q-81 -89 -141.5 -159.5t-100.5 -122.5l-95 110q71 69 167.5 159t202.5 184q114 -73 210.5 -137.5t186.5 -128t183 -133.5q-54 -91 -149 -195z" />
    <glyph glyph-name="uni3079" unicode="&#x3079;" horiz-adv-x="990" 
d="M762 510l-116 4q5 96 9 207l114 -4q0 -59 -1.5 -110.5t-5.5 -96.5zM911 503h-110v213l116 -3q0 -64 -1.5 -118t-4.5 -92zM811 45q-142 137 -256 242t-208 181q-81 -89 -141.5 -159.5t-100.5 -122.5l-95 110q71 69 167.5 159t202.5 184q114 -73 210.5 -137.5t186.5 -128
t183 -133.5q-54 -91 -149 -195z" />
    <glyph glyph-name="uni307A" unicode="&#x307a;" horiz-adv-x="990" 
d="M773 497q-58 0 -92.5 29t-34.5 76q0 49 35.5 79t92.5 30q56 0 89.5 -29t33.5 -78t-33.5 -78t-90.5 -29zM771 540q15 0 23.5 17t8.5 46t-7.5 47.5t-19.5 18.5q-13 0 -24.5 -23.5t-11.5 -52.5q0 -24 8.5 -38.5t22.5 -14.5zM811 64q-150 146 -262.5 248t-201.5 175
q-83 -91 -143 -161.5t-99 -120.5l-95 110q78 76 175.5 166t194.5 177q115 -73 212 -138t186.5 -128.5t181.5 -132.5q-26 -45 -64 -94.5t-85 -100.5z" />
    <glyph glyph-name="uni307B" unicode="&#x307b;" horiz-adv-x="921" 
d="M81 8q-15 106 -23 207t-8 199q0 94 7.5 186t21.5 183q102 -6 195 -25q-22 -124 -34 -243.5t-12 -230.5q0 -50 2.5 -98.5t7.5 -94.5l68 3l12 -59q-102 -16 -237 -27zM590 -19q-106 0 -162 36.5t-56 106.5q0 76 60 121.5t159 45.5q0 27 -2 67t-7 82q-49 -4 -101 -11.5
t-105 -18.5l-11 85q81 14 209 26q-4 44 -9.5 82t-12.5 78q-51 -5 -97.5 -13t-93.5 -19l-15 82q83 13 169.5 22.5t169.5 16t154 8.5v-85l-105 2q5 -49 6.5 -92.5t1.5 -76.5q44 0 74 -1.5t54 -3.5l-3 -85q-38 4 -67 6t-57 2v-170q32 -6 67 -16t81 -25l-36 -99
q-26 17 -54.5 32.5t-60.5 28.5q-3 -56 -7 -104.5t-11 -98.5q-37 -6 -70 -8.5t-62 -2.5zM587 39q3 59 4 103t1 83q-79 -3 -79 -79q0 -37 19.5 -65t54.5 -42z" />
    <glyph glyph-name="uni307C" unicode="&#x307c;" horiz-adv-x="960" 
d="M811 607h-105q0 41 -0.5 94t-2.5 110l115 -4zM939 598l-103 6q2 35 3 73t2 73.5t1 60.5l108 -5q-1 -42 -3.5 -95t-7.5 -113zM82 -27q-16 108 -24 214.5t-8 212.5q0 95 6.5 189.5t18.5 189.5q41 -1 89 -6t105 -14q-21 -118 -31 -232t-10 -228q0 -60 3 -120t8 -121l56 4
l8 -61q-98 -19 -221 -28zM532 -39q-100 0 -153.5 38t-53.5 110q0 75 55 120.5t144 45.5q-2 28 -7 72t-11 91q-28 -4 -75 -11.5t-97 -18.5l-9 93q19 3 53.5 7t68.5 7.5t51 4.5q-4 41 -8.5 84.5t-9.5 77.5q-28 -3 -63.5 -8t-88.5 -15l-5 89q81 10 170 15.5t189 7.5v-81h-33
q5 -42 8.5 -85t4.5 -76q33 0 80.5 -1.5t84.5 -3.5l-6 -92q-32 7 -71.5 10t-85.5 3q2 -32 4 -80t2 -109q95 -21 209 -73l-37 -108q-47 34 -89.5 59.5t-82.5 41.5q-1 -30 -2.5 -67t-3.5 -72.5t-5 -62.5q-35 -6 -66.5 -9.5t-60.5 -3.5zM528 17v35v53t-0.5 56.5t-1.5 46.5
q-71 -3 -71 -76q0 -38 19.5 -68.5t53.5 -46.5z" />
    <glyph glyph-name="uni307D" unicode="&#x307d;" horiz-adv-x="970" 
d="M819 580q-55 0 -89.5 34t-34.5 89q0 54 33.5 86.5t88.5 32.5q56 0 89.5 -33.5t33.5 -87.5t-33 -87.5t-88 -33.5zM819 629q17 0 26.5 24.5t9.5 65.5q0 62 -27 62q-18 0 -28.5 -20.5t-10.5 -57.5q0 -35 8 -54.5t22 -19.5zM80 -11q-15 105 -22.5 212t-7.5 211q0 183 24 358
q47 0 97.5 -4t96.5 -11q-19 -123 -28.5 -239.5t-9.5 -225.5q0 -121 12 -231l55 5l4 -54q-55 -8 -110 -13.5t-111 -7.5zM528 -33q-96 0 -149 37.5t-53 105.5q0 48 25.5 84.5t71 57.5t104.5 21q-3 45 -6.5 87.5t-6.5 70.5q-43 -4 -84.5 -10t-89.5 -17l-7 91q68 13 172 16
q-6 89 -18 161q-39 -3 -77 -8.5t-76 -13.5l-10 88q141 21 358 28q-7 -19 -9 -40t-2 -41h-14l7 -166q7 1 14.5 1.5t23.5 0.5h47h47.5h23.5t16 -1v-90q-87 9 -165 9q2 -46 2.5 -94.5t0.5 -88.5q43 -7 94.5 -23.5t115.5 -43.5l-37 -106q-61 39 -102 61.5t-73 33.5
q0 -40 -3.5 -91.5t-8.5 -104.5q-75 -15 -132 -15zM528 21q2 25 2 43.5v49.5v52.5t-2 40.5q-34 0 -53 -20.5t-19 -55.5q0 -36 20 -66t52 -44z" />
    <glyph glyph-name="uni307E" unicode="&#x307e;" horiz-adv-x="810" 
d="M354 -40q-151 0 -230 42t-79 122q0 58 38 100.5t107 66.5t160 24l-3 84q-64 0 -136.5 1t-149.5 2v95q92 -5 158 -8t123 -3q-1 18 -4.5 48.5t-5.5 49.5q-73 0 -153.5 1t-148.5 2l3 88q68 -4 138.5 -7t152.5 -3l-7 42t-7 46.5t-5 36.5l213 10q2 -18 5 -54t5 -77
q74 3 128.5 7.5t97.5 11.5l4 -90q-66 -5 -117.5 -8t-106.5 -5l4 -97q71 4 120 7t91 7l-3 -89q-50 -3 -84.5 -5t-63 -3t-61.5 -2q0 -25 -2 -61.5t-4 -59.5q140 -43 249 -133l-72 -108q-82 88 -184 151q-4 -50 -14 -110t-21 -110q-32 -6 -64.5 -9t-70.5 -3zM345 37
q2 38 3 78.5t2 75.5t1 55q-59 0 -95.5 -30.5t-36.5 -80.5q0 -47 33 -72.5t93 -25.5z" />
    <glyph glyph-name="uni307F" unicode="&#x307f;" horiz-adv-x="970" 
d="M682 -67q-29 7 -67 16.5t-73 19.5q62 170 97 334q-29 9 -60.5 17.5t-67.5 16.5q-30 -128 -56 -216.5t-48 -138.5q-192 0 -284.5 49t-92.5 149q0 68 39 120.5t111 84t169 37.5q20 151 20 234q-118 0 -230 -23l-6 95q48 5 100.5 7.5t107.5 2.5q123 0 237 -12
q-15 -142 -52 -313q34 -3 67 -8t64 -11q8 37 14.5 71t10.5 63q57 -5 105.5 -12t92.5 -16q-1 -8 -6.5 -29t-12.5 -47t-13.5 -48.5t-9.5 -33.5l102 -42l-45 -112q-39 26 -89 49q-24 -79 -54.5 -153t-69.5 -151zM277 58q29 107 60 283q-153 -18 -153 -150q0 -51 25 -86.5
t68 -46.5z" />
    <glyph glyph-name="uni3080" unicode="&#x3080;" horiz-adv-x="980" 
d="M563 -33q-85 0 -154 25.5t-103 69.5q-48 -19 -93 -19q-84 0 -133.5 58t-49.5 156q0 101 54.5 154.5t157.5 53.5l9 98q-19 -2 -50 -4t-64.5 -3.5t-62.5 -1.5l-3 90q98 0 189 3q1 12 4 41t7.5 62t7.5 56q74 0 133.5 -1.5t81.5 -3.5l-25 -140q41 3 85 8.5t103 15.5v-94
q-36 -5 -76.5 -9t-74 -6.5t-51.5 -2.5q-17 -103 -25.5 -182.5t-8.5 -132.5q0 -108 35 -165t101 -57q68 0 97 66t29 220q23 0 57.5 -0.5t71.5 -1.5t69 -2q0 -172 -81.5 -261.5t-236.5 -89.5zM940 408q-44 10 -86 15t-95 7t-132 2l-5 81q41 4 87 6t93 2q38 0 75 -1.5t73 -3.5z
M261 133q-7 30 -13 72t-9 90.5t-3 94.5q-40 -9 -62.5 -44t-22.5 -88q0 -59 29 -92t81 -33z" />
    <glyph glyph-name="uni3081" unicode="&#x3081;" horiz-adv-x="961" 
d="M905 -3q-49 3 -97 8t-95 12q13 33 22.5 77t15 92t5.5 92q0 122 -42 189q-40 -229 -147 -348t-273 -119q-126 0 -195 67.5t-69 190.5q0 211 218 319q-2 29 -4 66t-4 72q50 9 95.5 15t84.5 7l-4 -113q34 4 68.5 5t70.5 1l5 117q96 -5 184 -27q-5 -84 -12 -136
q96 -52 147.5 -152.5t51.5 -235.5q0 -48 -6.5 -97t-19.5 -102zM311 83q65 0 115 56t82 160.5t42 251.5q-24 0 -56 -2t-76 -9q0 -50 3 -111.5t8 -124.5t11 -118q-37 -9 -72.5 -14.5t-70.5 -8.5q-11 57 -21.5 135.5t-19.5 173.5q-33 -42 -48.5 -91t-15.5 -113q0 -91 30.5 -138
t88.5 -47z" />
    <glyph glyph-name="uni3082" unicode="&#x3082;" horiz-adv-x="851" 
d="M455 -63q-93 0 -149.5 34.5t-83 113t-31.5 210.5q-90 -10 -135 -20l-13 95q60 10 146 19q0 64 3 137q-90 -5 -154 -15l-8 98q35 4 73 7t93 7q4 53 8 100l8 94q49 -1 98.5 -4.5t106.5 -9.5q-6 -53 -10 -93t-7 -81q65 0 123.5 -2t115.5 -7l-4 -96q-43 5 -105 7t-138 2
q-6 -53 -9 -130q41 0 88 -1t88.5 -3t65.5 -5l-8 -93q-34 5 -85.5 7.5t-99.5 2.5h-27.5t-25.5 -1q-1 -12 -1.5 -29.5t-0.5 -31.5q0 -115 25 -169t77 -54q37 0 84 24t93.5 65.5t83.5 92.5l81 -86q-142 -185 -366 -185z" />
    <glyph glyph-name="uni3083" unicode="&#x3083;" horiz-adv-x="780" 
d="M274 -102q-67 203 -101 369l-122 -49l-21 87l129 41q-3 18 -8.5 48.5t-11 65t-9.5 63.5q17 4 41 7.5t48 5.5t40 3q5 -34 11.5 -74t15.5 -87q20 7 52.5 13t57.5 8q-3 54 -6 92t-8 68q18 3 43.5 5t51 3.5t43.5 1.5q2 -18 2.5 -37.5t1 -47.5t0.5 -73q119 -1 172.5 -49
t53.5 -154q0 -51 -12 -101q-16 0 -45 1t-58.5 3.5t-49.5 5.5q13 59 17.5 88.5t4.5 49.5q0 44 -19.5 65.5t-63.5 26.5v-151q-11 -2 -34.5 -4t-48 -3t-39.5 -1q0 43 -0.5 70t-1 46.5t-2.5 36.5q-31 -7 -54.5 -13.5t-43.5 -12.5q48 -180 124 -383q-47 -12 -88 -21t-62 -13z" />
    <glyph glyph-name="uni3084" unicode="&#x3084;" horiz-adv-x="960" 
d="M335 -39q-82 252 -126 462l-153 -62l-26 109l161 51q-4 23 -11 61t-13.5 81t-11.5 79q22 5 51.5 9t59.5 7t50 4q12 -84 34 -201q24 8 65 16t72 10q-3 68 -7 115.5t-10 84.5q22 4 54 6.5t64 4.5t54 2q2 -23 3 -47.5t1.5 -59.5t0.5 -91q149 -1 216 -61t67 -193
q0 -64 -15 -126q-20 0 -56 1.5t-73 4.5t-62 7q16 73 21.5 110t5.5 63q0 54 -24 81t-79 34v-189q-14 -2 -44 -4.5t-60.5 -4t-48.5 -1.5q0 53 -0.5 87t-1.5 58t-3 46q-75 -17 -122 -33q59 -221 154 -478q-58 -15 -109.5 -26.5t-77.5 -16.5z" />
    <glyph glyph-name="uni3085" unicode="&#x3085;" horiz-adv-x="779" 
d="M439 -117q-15 0 -37.5 1.5t-46 3.5t-41.5 5q6 41 12 85q-31 6 -61 16l9 79q34 -13 60 -20q9 82 13.5 162.5t4.5 148.5q-41 -28 -74 -71.5t-51.5 -93.5t-18.5 -99q0 -20 3 -43t8 -40q-19 -6 -52.5 -14t-66.5 -13q-20 60 -33.5 111.5t-21.5 101t-11.5 103.5t-3.5 120
q14 2 40.5 3.5t54 3t43.5 1.5q-1 -13 -1.5 -29t-0.5 -27q0 -14 1 -37t3 -49q41 52 90.5 88t90.5 44q0 30 -3 65t-7 57q42 4 86.5 6.5t69.5 2.5q2 -12 3.5 -32.5t2.5 -41.5t1 -35q71 0 126.5 -29.5t87 -81.5t31.5 -118q0 -70 -35 -123t-99.5 -85t-151.5 -38q-12 -57 -24 -88z
M504 381q0 -79 -8 -170.5t-21 -170.5q68 10 104 54t36 119q0 71 -30.5 118t-80.5 50z" />
    <glyph glyph-name="uni3086" unicode="&#x3086;" horiz-adv-x="959" 
d="M541 -59q-18 0 -46.5 2t-58 5t-51.5 6q8 51 15 105q-39 8 -76 21l11 98q42 -16 76 -25q10 103 16 203t6 186q-52 -35 -93 -89t-64.5 -117t-23.5 -124q0 -25 4 -54t10 -50q-23 -7 -65.5 -16.5t-83.5 -16.5q-25 75 -42 139.5t-27 126.5t-14 129.5t-4 149.5q18 2 51 4.5
t67 4t54 1.5q-1 -17 -1.5 -36.5t-0.5 -33.5q0 -19 1.5 -46t3.5 -62q52 65 113.5 110t112.5 55q0 38 -3.5 82t-8.5 71q53 5 108 8t87 3q2 -15 4 -40.5t3.5 -51.5t1.5 -44q89 0 158 -37t108.5 -102t39.5 -148q0 -87 -44 -153.5t-124.5 -106.5t-189.5 -48q-15 -70 -30 -109z
M623 564q0 -66 -4.5 -140t-12.5 -147.5t-19 -138.5q85 12 130 67t45 148q0 60 -17.5 106.5t-49 74t-72.5 30.5z" />
    <glyph glyph-name="uni3087" unicode="&#x3087;" horiz-adv-x="620" 
d="M273 -103q-118 0 -180.5 34t-62.5 100q0 60 55.5 97t158.5 44q-6 105 -19.5 204t-33.5 193q63 17 163 17q5 -40 10.5 -87.5t9.5 -109.5q22 4 54.5 8.5t65.5 8t58 4.5l5 -77l-179 -2q2 -22 2.5 -67t0.5 -105q59 -14 113.5 -38.5t95.5 -56.5l-49 -84q-81 71 -161 112
q-1 -31 -3 -67.5t-5 -69.5t-6 -53q-25 -2 -48.5 -3.5t-44.5 -1.5zM247 -43v158q-44 -4 -68 -23t-24 -51q0 -36 26.5 -60t65.5 -24z" />
    <glyph glyph-name="uni3088" unicode="&#x3088;" horiz-adv-x="760" 
d="M334 -41q-148 0 -226 42.5t-78 124.5q0 76 69 121.5t198 55.5q-15 262 -66 496q39 11 91 16t113 5q7 -49 13 -109t12 -137q28 5 68 10.5t82 9.5t73 6l6 -96l-224 -3q2 -28 3 -84t1 -130q74 -18 141.5 -49t119.5 -70l-61 -105q-101 88 -201 140q-1 -42 -4 -88t-6.5 -85.5
t-7.5 -64.5q-63 -6 -116 -6zM301 34v197q-55 -4 -85 -27.5t-30 -64.5q0 -45 33 -75t82 -30z" />
    <glyph glyph-name="uni3089" unicode="&#x3089;" horiz-adv-x="670" 
d="M490 561q-128 90 -263 134q27 71 52 114q86 -22 154 -51t129 -70zM347 -82q-78 57 -146 140q137 55 197.5 101t60.5 95q0 38 -30.5 60.5t-83.5 22.5q-33 0 -86.5 -9t-113.5 -24t-115 -34q0 101 7.5 194.5t20.5 163.5q98 0 192 -18q-5 -23 -10.5 -54.5t-10.5 -63.5
t-8 -58.5t-3 -40.5q91 17 165 17q121 0 189 -47.5t68 -131.5q0 -87 -74.5 -166.5t-218.5 -146.5z" />
    <glyph glyph-name="uni308A" unicode="&#x308a;" horiz-adv-x="659" 
d="M467 -65q-100 19 -226 51q72 98 116 188t64.5 184t20.5 202q0 56 -5 114t-14 113q47 8 88 12.5t84 5.5q7 -70 10.5 -134t3.5 -126q0 -190 -34.5 -339.5t-107.5 -270.5zM56 343q-26 78 -26 202q0 139 32 252q24 -3 47 -6.5t55 -9t81 -14.5q-9 -30 -16.5 -72t-13.5 -89.5
t-9.5 -94t-3.5 -84.5l88 5l6 -68q-46 -5 -101.5 -10t-138.5 -11z" />
    <glyph glyph-name="uni308B" unicode="&#x308b;" horiz-adv-x="760" 
d="M388 -41q-94 0 -145.5 34t-51.5 95q0 46 26 83.5t70 59.5t97 22q58 0 99.5 -26.5t59.5 -73.5q14 20 21 41t7 41q0 41 -23.5 77t-64.5 58.5t-94 22.5q-58 0 -104 -33t-92 -107l-163 100q65 76 130.5 143.5t125.5 120t106 83.5q-55 -7 -111 -16.5t-122 -22.5l-5 113
q86 7 176.5 11t160.5 4q58 0 92 -3l4 -78q-40 -23 -83 -60t-84 -82t-75 -94q51 13 102 13q80 0 144 -31.5t101.5 -87.5t37.5 -130q0 -80 -44.5 -142.5t-121.5 -98.5t-176 -36zM386 28q21 0 34 23t13 60q0 32 -13.5 53t-34.5 21q-22 0 -36.5 -23t-14.5 -60q0 -31 15 -52.5
t37 -21.5z" />
    <glyph glyph-name="uni308C" unicode="&#x308c;" horiz-adv-x="1010" 
d="M310 -64q-10 71 -16.5 154t-9.5 163q-30 -55 -63 -123t-59 -130q-80 66 -132 135q58 90 125 175t129 146l2 57q-45 0 -95 -0.5t-96 -2.5v97q22 0 58 -1.5t73.5 -4t63.5 -5.5q5 70 9 118.5t9 91.5q36 0 75.5 -2t73 -5.5t50.5 -7.5q-3 -17 -8.5 -53t-10 -74.5t-7.5 -64.5
q151 77 341 77q0 -140 1.5 -238t6 -162.5t14 -102t26 -55.5t41.5 -23t61 -5l8 -87q-46 -9 -86 -9q-96 0 -155.5 58.5t-87 185.5t-27.5 330q-73 -15 -155 -87q-2 -58 -3.5 -121.5t-1.5 -137.5q0 -48 1 -90.5t2.5 -85t4.5 -93.5q-39 -6 -81.5 -10.5t-80.5 -6.5z" />
    <glyph glyph-name="uni308D" unicode="&#x308d;" horiz-adv-x="810" 
d="M459 -53q-21 0 -57.5 1.5t-76.5 3.5t-73.5 4.5t-50.5 4.5l-4 111q51 -13 101 -20t84 -7q92 0 147 50t55 134q0 73 -49.5 117t-131.5 44q-44 0 -81 -16t-77 -54t-93 -106l-142 119q49 53 107.5 107.5t120.5 104.5t120.5 90t106.5 64q-45 0 -100.5 -3.5t-108 -9
t-91.5 -13.5l4 114q97 0 190 -2.5t174 -7t138 -11.5v-80q-54 -26 -108.5 -62.5t-102.5 -78t-83 -82.5q47 9 90 9q88 0 159 -33.5t112.5 -93t41.5 -137.5q0 -75 -40 -134t-112.5 -93t-168.5 -34z" />
    <glyph glyph-name="uni308E" unicode="&#x308e;" horiz-adv-x="784" 
d="M692 -57l-154 32q31 73 49.5 152.5t18.5 140.5q0 78 -29.5 124.5t-79.5 46.5q-45 0 -91 -38q-4 -71 -6 -128t-2 -113q0 -52 1 -97t5 -95q-40 -4 -76.5 -7t-57.5 -3q-4 37 -6.5 81t-4 87t-1.5 77q-21 -47 -43.5 -101t-45.5 -114q-82 28 -139 80q62 107 119 189t104 128v10
q-47 -5 -96.5 -12t-97.5 -16l-6 86q27 4 61.5 6.5t71 4t66.5 1.5v79t0.5 43t0.5 24q53 0 101.5 -2.5t71.5 -5.5l-12 -113q44 14 91 14q73 0 129 -39t88 -108t32 -158q0 -61 -16.5 -127.5t-45.5 -128.5z" />
    <glyph glyph-name="uni308F" unicode="&#x308f;" horiz-adv-x="985" 
d="M858 -39l-192 41q26 61 44.5 126t29 127t10.5 113q0 98 -37 156t-99 58q-56 0 -113 -48q-6 -89 -8.5 -160.5t-2.5 -140.5q0 -64 2 -121t6 -119q-49 -5 -95.5 -8.5t-72.5 -3.5q-4 45 -7.5 100t-5.5 109t-2 97q-26 -59 -54 -126.5t-57 -142.5q-103 35 -174 100
q77 134 149 236t130 160v12q-59 -6 -120.5 -14.5t-121.5 -19.5l-8 107q34 5 77.5 8t88.5 5t83 2v98.5t0.5 54t0.5 29.5q66 0 127 -2.5t90 -7.5l-15 -141q26 8 55.5 13t57.5 5q91 0 161 -49t110 -135t40 -197q0 -76 -20 -160t-57 -161z" />
    <glyph glyph-name="uni3090" unicode="&#x3090;" horiz-adv-x="895" 
d="M681 -14q-88 0 -138.5 40t-50.5 115q0 51 22.5 91t60.5 63.5t85 23.5q31 0 52 -10q-11 91 -60.5 143.5t-132.5 62.5q-15 -82 -28 -149t-25.5 -127t-26.5 -120t-31 -128q-37 -3 -73 -3q-151 0 -228 61t-77 181q0 86 38.5 155.5t110 117.5t170.5 68q4 32 7 69.5t4 67.5
q-60 -10 -104.5 -19.5t-82.5 -20.5l-16 91q66 8 126 12t126 4q33 0 74 -1t69 -3q-2 -32 -7 -75t-15 -117q170 -16 252.5 -108t82.5 -248q0 -95 -30 -212q-43 -13 -81.5 -19t-72.5 -6zM266 65q13 63 27 139t26.5 153t21.5 142q-65 -25 -102 -94.5t-37 -168.5q0 -68 17 -114
t47 -57zM688 49q10 35 16.5 79.5t7.5 87.5q-3 13 -17.5 23t-28.5 10q-22 0 -33.5 -29t-11.5 -70q0 -50 18 -74.5t49 -26.5z" />
    <glyph glyph-name="uni3091" unicode="&#x3091;" horiz-adv-x="926" 
d="M182 -53q-84 41 -152 101q79 41 150 82.5t139 84.5q-66 7 -104 32.5t-38 63.5q0 33 26.5 60.5t70.5 44.5t96 17q51 0 89 -17.5t59.5 -47.5t21.5 -68q24 12 38 35t14 52q0 38 -22 67.5t-59 47t-84 17.5q-49 0 -102.5 -22.5t-118.5 -72.5q-25 11 -60 36t-70 54
q33 19 93.5 51.5t135.5 72t151 79.5q-40 -3 -101 -10t-135 -19l-4 91q80 4 161.5 5.5t155.5 1.5h67.5t51.5 -2l3 -68q-85 -44 -139 -78t-89 -66q42 11 83 11q66 0 124 -24.5t94 -66.5t36 -94q0 -70 -66.5 -117t-181.5 -59q-19 -25 -37 -46t-38 -40q21 -5 43 -22
q52 46 98.5 67t96.5 21q64 0 112.5 -30.5t76.5 -84t28 -123.5q-42 -9 -117 -9q-40 0 -87 3q5 25 7 49.5t2 40.5q0 38 -15.5 59.5t-43.5 21.5q-37 0 -58 -39.5t-32 -130.5q-23 -2 -55 -3t-52 -1q-28 0 -49.5 1.5t-34.5 3.5q12 27 12 52q0 20 -8.5 35t-25.5 20
q-108 -75 -157 -120zM374 267q24 41 24 67q0 20 -10.5 32.5t-26.5 12.5t-26 -13t-10 -35q0 -25 15 -44.5t34 -19.5z" />
    <glyph glyph-name="uni3092" unicode="&#x3092;" horiz-adv-x="810" 
d="M449 -68q-130 0 -206 40.5t-76 116.5q0 128 241 256q-30 27 -69 27q-43 0 -88.5 -34t-86.5 -99q-36 17 -69 35.5t-65 38.5q48 56 90.5 118t73.5 131l-147 -2l7 96q44 -6 89.5 -9.5t80.5 -3.5q23 60 37 104.5t24 82.5q61 -4 114 -11.5t101 -17.5l-70 -152q46 3 96.5 9.5
t111.5 17.5l6 -93q-121 -9 -253 -15q-27 -55 -44.5 -87t-30.5 -50q41 9 79 9q71 0 125 -31q39 23 80 43.5t82 38.5q12 -15 23.5 -31.5t29 -41t45.5 -64.5q-36 -13 -83 -32t-85 -36q13 -39 24 -79t19 -78q-91 -21 -186 -24q0 29 -2.5 61.5t-7.5 56.5q-155 -70 -155 -147
q0 -35 31 -53t87 -18q50 0 118 14t150 42l18 -97q-146 -32 -259 -32z" />
    <glyph glyph-name="uni3093" unicode="&#x3093;" horiz-adv-x="910" 
d="M699 -32q-101 0 -160 34.5t-83.5 117t-24.5 225.5q-167 0 -232 -372q-44 2 -86.5 6t-82.5 10q27 144 68 289.5t91 279t105 239.5q124 -17 225 -59q-59 -97 -100 -177.5t-63 -145.5q56 7 114 7q30 0 65.5 -1.5t83.5 -6.5q-9 -99 -9 -167q0 -75 12 -119t40.5 -63t75.5 -19
q54 0 132 20l10 -78q-55 -10 -98.5 -15t-82.5 -5z" />
    <glyph glyph-name="uni3094" unicode="&#x3094;" horiz-adv-x="866" 
d="M509 570q-28 23 -76.5 49.5t-104.5 51t-105 39.5q29 35 47.5 56t34 35.5t33.5 28.5q47 -19 92 -44t84 -56l12 -149zM714 533q-1 27 -3.5 61t-5 66.5t-4.5 56.5t-3 32l113 9l25 -212zM560 522q-1 22 -2.5 54t-3 64.5t-3.5 59t-3 37.5l112 11q5 -58 9 -111.5t6 -105.5z
M357 -79q-125 56 -213 113q181 87 276.5 174t95.5 165q0 86 -123 86q-108 0 -336 -69l-27 96q226 50 379 50q68 0 120 -9l2 -38l86 3q45 -17 70 -56t25 -91q0 -68 -43.5 -142.5t-123 -147t-188.5 -134.5z" />
    <glyph glyph-name="uni3095" unicode="&#x3095;" horiz-adv-x="779" 
d="M491 -97q-45 5 -71.5 7.5t-45 4t-40.5 2.5q14 44 26 94t21.5 99t15 90t5.5 67q0 49 -22.5 70.5t-74.5 21.5q-16 -107 -28.5 -214t-20.5 -200q-48 6 -85.5 9t-66.5 4q4 26 10.5 66t15 85.5t16.5 90t15 80t11 54.5q-30 -10 -61 -22.5t-63 -26.5l-18 66q23 9 52.5 18
t57.5 17t48 13q7 33 16.5 77t23.5 107q29 -3 62 -5t51 -2q-8 -31 -15.5 -72t-12.5 -84q8 1 15.5 1.5t17.5 0.5q97 0 148 -58t51 -168q0 -55 -13 -126.5t-41 -166.5zM618 53q-7 96 -13.5 160t-13.5 109.5t-16 87.5q34 7 60.5 13t54.5 13q17 -59 28.5 -116t19 -118.5
t11.5 -135.5q-32 -2 -63 -5t-68 -8z" />
    <glyph glyph-name="uni3096" unicode="&#x3096;" horiz-adv-x="700" 
d="M514 -113q-28 5 -60 11t-78 16q25 92 37 186t12 199q-37 -4 -77 -9.5t-78 -12.5l-11 73q51 7 91 10.5t70 4.5q-5 42 -14 87.5t-22 96.5q60 18 139 18q13 -55 20 -107t7 -90q75 0 120 -3l-3 -70q-33 4 -59.5 6t-53.5 2q0 -70 -5 -146t-14 -147t-21 -125zM73 -63
q-21 68 -32 146t-11 156q0 150 41 282q57 -9 141 -31q-21 -76 -30.5 -150t-9.5 -148q0 -37 2 -81t6 -82l66 8l16 -53q-50 -17 -97.5 -29t-91.5 -18z" />
    <glyph glyph-name="uni3099" unicode="&#x3099;" horiz-adv-x="0" 
d="M258 599l-53 224l116 27q16 -52 32 -111.5t28 -105.5zM98 561l-48 225l116 29q11 -46 23.5 -99.5t28.5 -124.5z" />
    <glyph glyph-name="uni309A" unicode="&#x309a;" horiz-adv-x="0" 
d="M201 566q-66 0 -108.5 41t-42.5 105q0 62 41 99.5t108 37.5q65 0 106 -39.5t41 -104.5q0 -62 -40 -100.5t-105 -38.5zM203 620q15 0 24 21.5t9 55.5q0 43 -11.5 70.5t-30.5 27.5q-16 0 -25 -20t-9 -53q0 -42 12.5 -72t30.5 -30z" />
    <glyph glyph-name="uni309B" unicode="&#x309b;" horiz-adv-x="391" 
d="M238 599l-53 224l116 27q16 -52 32 -111.5t28 -105.5zM78 561l-48 225l116 29q11 -46 23.5 -99.5t28.5 -124.5z" />
    <glyph glyph-name="uni309C" unicode="&#x309c;" horiz-adv-x="356" 
d="M181 566q-66 0 -108.5 41t-42.5 105q0 62 41 99.5t108 37.5q65 0 106 -39.5t41 -104.5q0 -62 -40 -100.5t-105 -38.5zM183 620q15 0 24 21.5t9 55.5q0 43 -11.5 70.5t-30.5 27.5q-16 0 -25 -20t-9 -53q0 -42 12.5 -72t30.5 -30z" />
    <glyph glyph-name="uni309D" unicode="&#x309d;" horiz-adv-x="665" 
d="M180 21l-26 73l134 65q-89 85 -138 169.5t-70 191.5q35 15 68 30.5t64 31.5q27 -61 52.5 -104.5t59 -79.5t83 -72.5t124.5 -83.5l14 -105q-69 -17 -127 -34t-114.5 -36.5t-123.5 -45.5z" />
    <glyph glyph-name="uni309E" unicode="&#x309e;" horiz-adv-x="759" 
d="M180 21l-26 73l134 65q-89 85 -138 169.5t-70 191.5q35 15 68 30.5t64 31.5q27 -61 52.5 -104.5t59 -79.5t83 -72.5t124.5 -83.5l14 -105q-69 -17 -127 -34t-114.5 -36.5t-123.5 -45.5zM606 409l-53 224l116 27q16 -52 32 -111.5t28 -105.5zM446 371l-48 225l116 29
q11 -46 23.5 -99.5t28.5 -124.5z" />
    <glyph glyph-name="uni309F" unicode="&#x309f;" horiz-adv-x="650" 
d="M362 -85q-49 22 -93.5 48.5t-72.5 51.5q126 46 198.5 115t72.5 143q0 48 -29.5 79.5t-75.5 31.5q-40 0 -80.5 -25t-72 -67t-45.5 -92q-13 0 -35 2.5t-43.5 6.5t-35.5 7q8 110 12 262t4 337q64 0 122 -3.5t83 -8.5q-8 -79 -17 -148q70 5 143.5 19t139.5 36
q6 -21 11.5 -50.5t5.5 -41.5q-57 -11 -140.5 -18.5t-167.5 -9.5q-15 -106 -33 -188q84 62 190 62q66 0 114.5 -25.5t75.5 -71.5t27 -109q0 -98 -67 -187.5t-191 -155.5z" />
    <glyph glyph-name="uni30A0" unicode="&#x30a0;" horiz-adv-x="700" 
d="M100 440v90h500v-90h-500zM100 230v90h500v-90h-500z" />
    <glyph glyph-name="uni30A1" unicode="&#x30a1;" horiz-adv-x="722" 
d="M366 -96q-38 2 -83.5 10t-99.5 20q39 107 58 216.5t19 219.5q25 2 54.5 2.5t54.5 1t35 0.5v-134q29 39 57 85t53 99q-27 3 -56 4t-59 1q-89 0 -184.5 -9.5t-184.5 -28.5v97q89 7 170 10.5t154 3.5q98 0 183 -6t155 -18q-20 -80 -54 -163t-80 -168q-47 17 -86 32.5
t-69 31.5q-4 -79 -13.5 -156.5t-23.5 -150.5z" />
    <glyph glyph-name="uni30A2" unicode="&#x30a2;" horiz-adv-x="888" 
d="M450 -33q-47 3 -104 12.5t-125 25.5q50 134 73.5 270.5t23.5 274.5q31 2 68 3t68.5 1.5t43.5 0.5v-168q36 49 71 106.5t66 124.5q-67 6 -144 6q-111 0 -230 -12.5t-231 -35.5v122q111 8 212.5 12.5t192.5 4.5q122 0 229 -7.5t194 -22.5q-25 -100 -67.5 -204t-100.5 -210
q-119 41 -193 80q-12 -200 -47 -384z" />
    <glyph glyph-name="uni30A3" unicode="&#x30a3;" horiz-adv-x="632" 
d="M318 -114q0 97 -2.5 183.5t-8.5 179.5q-49 -37 -97.5 -78t-98.5 -86l-81 99q105 115 221.5 215.5t249.5 190.5q26 -36 51.5 -72.5t49.5 -73.5q-80 -47 -145.5 -89.5t-117.5 -81.5l130 5q5 -46 7 -101.5t2 -111.5q0 -94 -6 -175z" />
    <glyph glyph-name="uni30A4" unicode="&#x30a4;" horiz-adv-x="775" 
d="M390 -55q0 121 -3 229.5t-11 224.5q-61 -47 -122 -98t-123 -107l-101 123q131 144 277 270t312 238q66 -90 126 -183q-100 -58 -182 -111t-147 -102l163 6q5 -58 8 -126.5t3 -139.5q0 -57 -2 -113t-5 -106z" />
    <glyph glyph-name="uni30A5" unicode="&#x30a5;" horiz-adv-x="661" 
d="M385 -120q-47 9 -96 25t-101 40q81 66 132.5 117t82 96t45 95t21.5 114q-27 2 -57 3.5t-62 1.5q-40 0 -82.5 -2t-81.5 -5q0 -47 2 -97.5t6 -112.5q-28 2 -65 4t-93 4q-3 48 -4.5 95t-1.5 86q0 24 0.5 43.5t1.5 34.5q79 5 129.5 6.5t85.5 1.5q-2 38 -4.5 74.5t-6.5 73.5
q31 2 65 3.5t66 1.5h28.5t27.5 -1q0 -37 -2.5 -74.5t-6.5 -74.5q30 -1 70.5 -3t80 -3.5t66.5 -3.5q-9 -122 -36.5 -216.5t-78.5 -173t-131 -153.5z" />
    <glyph glyph-name="uni30A6" unicode="&#x30a6;" horiz-adv-x="811" 
d="M473 -63q-58 11 -119 31t-126 50q80 67 137.5 120t95.5 100t61.5 93t36 98.5t19.5 116.5q-66 6 -148 6q-51 0 -103.5 -2t-101.5 -7q0 -58 2.5 -121.5t7.5 -140.5q-36 2 -81.5 4.5t-116.5 5.5q-3 60 -5 118.5t-2 107.5q0 61 3 98q98 5 161 7.5t107 2.5q-2 47 -5.5 93
t-8.5 92q39 3 81.5 4.5t82.5 1.5h36t34 -1q0 -47 -3 -93.5t-8 -92.5q58 -1 126 -4.5t145 -8.5q-8 -114 -29 -208.5t-57.5 -175t-91.5 -153t-130 -142.5z" />
    <glyph glyph-name="uni30A7" unicode="&#x30a7;" horiz-adv-x="743" 
d="M34 -28l-4 97q51 2 116.5 3t130.5 1q4 44 5.5 92.5t1.5 96.5q0 27 -0.5 54.5t-1.5 50.5q-48 -3 -93.5 -8t-89.5 -12l-14 91q70 7 142 10.5t147 3.5q139 0 284 -12l-8 -87q-48 7 -95.5 11t-97.5 5q3 -52 5 -118.5t2 -120.5v-30.5t-1 -25.5h250l-4 -101q-84 8 -164 12.5
t-163 4.5t-169 -4.5t-179 -13.5z" />
    <glyph glyph-name="uni30A8" unicode="&#x30a8;" horiz-adv-x="913" 
d="M34 53l-4 121q64 2 145.5 3.5t162.5 1.5q5 55 7 115.5t2 121.5q0 70 -3 131q-59 -4 -116 -10.5t-112 -14.5l-18 113q174 18 362 18q172 0 355 -15l-10 -109q-60 8 -119.5 13.5t-121.5 6.5q3 -43 4.5 -95.5t2.5 -105t1 -97.5v-38.5t-1 -32.5h312l-5 -126
q-104 11 -204.5 16.5t-203.5 5.5q-104 0 -212 -6t-224 -17z" />
    <glyph glyph-name="uni30A9" unicode="&#x30a9;" horiz-adv-x="685" 
d="M488 -89q-29 0 -56 1t-44 2q0 103 -1 176t-3 143q-69 -177 -205 -307q-77 45 -149 102q156 121 242 285q29 -10 57.5 -20t53.5 -20l-4 91q-148 -6 -283 -6h-50l6 82q49 -3 101.5 -6t101 -4.5t83.5 -1.5h21t18 1q-1 20 -2.5 47.5t-3 52t-2.5 35.5q8 1 29 2t46 1.5t44 0.5
q13 0 22.5 -0.5t14.5 -1.5q3 -32 5 -70.5t2 -57.5q68 7 114 16l9 -81q-37 -2 -69.5 -3.5t-51.5 -1.5q2 -42 2.5 -87t0.5 -91q0 -77 -2 -150t-6 -129h-41z" />
    <glyph glyph-name="uni30AA" unicode="&#x30aa;" horiz-adv-x="841" 
d="M602 -24q-37 0 -70.5 1t-54.5 2q0 86 -0.5 153t-1.5 126t-3 120q-86 -221 -256 -384q-48 29 -95 61t-91 67q194 151 302 356q38 -13 73 -25.5t66 -24.5l-5 114q-93 -4 -181.5 -5.5t-171.5 -1.5h-63l7 102q61 -4 127 -7.5t126.5 -5.5t104.5 -2h26t22 1q-1 25 -2.5 59.5
t-3.5 66t-3 45.5q10 1 36.5 2t57.5 1.5t54 0.5q16 0 28 -0.5t19 -1.5q2 -27 3.5 -58.5t3 -59t1.5 -43.5q44 5 78.5 9.5t64.5 10.5l11 -101q-46 -3 -87 -4.5t-64 -2.5q2 -52 3 -108.5t1 -113.5q0 -97 -2.5 -188t-7.5 -161h-52z" />
    <glyph glyph-name="uni30AB" unicode="&#x30ab;" horiz-adv-x="803" 
d="M742 -31q-31 0 -92 2t-138 6q15 155 25 284t14 241q-51 3 -98 3h-31q-30 -115 -56.5 -248t-49.5 -284q-56 5 -112 12t-111 15q23 119 54.5 242.5t71.5 250.5q-43 -4 -89.5 -10t-99.5 -16v101q62 5 123 8.5t96 3.5q36 114 75 216q41 -7 82.5 -15.5t83.5 -19.5l-47 -174
q85 -1 163 -5.5t145 -12.5q1 -23 1.5 -72.5t0.5 -99.5q0 -99 -3 -208t-8 -220z" />
    <glyph glyph-name="uni30AC" unicode="&#x30ac;" horiz-adv-x="886" 
d="M732 -37q-41 0 -104 2.5t-123 5.5q15 155 25 284t14 242q-13 2 -37 2.5t-49 0.5h-41q-31 -122 -57.5 -255t-46.5 -278q-107 10 -220 27q22 115 53 238t71 255q-48 -4 -94 -10.5t-93 -15.5v101q52 5 111 8.5t105 4.5q15 47 29.5 90t26.5 76.5t18 49.5q93 -17 164 -36
q-13 -40 -25.5 -88.5t-20.5 -84.5l149 -6l6 -80l139 5q4 -50 5.5 -115t1.5 -136q0 -70 -1.5 -144t-5.5 -143zM762 532q-8 124 -18 218l113 7q7 -46 11.5 -100.5t7.5 -118.5zM615 523l-15 216l117 9l18 -214z" />
    <glyph glyph-name="uni30AD" unicode="&#x30ad;" horiz-adv-x="860" 
d="M388 -45q-7 67 -16 132t-18 123q-117 -24 -258 -74l-31 108q77 18 144 32.5t129 25.5q-16 94 -33 171q-48 -10 -104.5 -23.5t-139.5 -35.5l-31 106l254 45q-8 40 -20.5 92t-31.5 121q109 19 208 27q20 -60 35.5 -109t28.5 -99q19 3 61 7.5t93 10.5t95 10l10 -98
q-116 -7 -234 -22q13 -52 22 -97t13 -70q75 10 131 16.5t118 12.5l17 -109q-82 0 -140.5 -2.5t-109.5 -7.5q8 -47 15.5 -101.5t13.5 -101t7 -72.5q-20 -3 -50.5 -6t-64.5 -6t-64 -4.5t-49 -1.5z" />
    <glyph glyph-name="uni30AE" unicode="&#x30ae;" horiz-adv-x="860" 
d="M375 -31q-7 65 -15.5 127.5t-16.5 117.5q-60 -13 -122.5 -30.5t-127.5 -40.5l-30 104q71 17 137 31t127 25q-5 37 -13 77.5t-19 86.5q-49 -9 -107.5 -22.5t-128.5 -33.5l-29 102l245 43q-9 38 -20 84.5t-31 122.5q60 10 110 16t91 10q24 -73 37.5 -118.5t23.5 -82.5l71 8
v-39l178 -5l2 -32q-51 -4 -107 -9t-119 -12q8 -34 16.5 -72t18.5 -89q20 3 51.5 7t66.5 8t67.5 7.5t54.5 4.5l16 -103q-64 0 -125.5 -3t-115.5 -8q10 -67 18.5 -135.5t15.5 -129.5q-19 -3 -48 -6t-61.5 -5.5t-62 -4t-48.5 -1.5zM703 575l-123 4l7 196l121 -4q0 -31 -1 -70.5
t-2 -73.5t-2 -52zM845 567l-115 6q2 62 3.5 110t1.5 87l115 -5q0 -64 -1.5 -115.5t-3.5 -82.5z" />
    <glyph glyph-name="uni30AF" unicode="&#x30af;" horiz-adv-x="791" 
d="M578 -43q-60 14 -121.5 30t-125.5 33q5 16 23 60.5t43.5 106t54.5 130.5t57.5 135t52.5 119q-35 7 -80 14t-102 14l-160 -288q-107 45 -190 89q75 118 151 220.5t151 186.5l130 -66l-27 -47q166 -24 326 -75q-48 -161 -94 -327.5t-89 -334.5z" />
    <glyph glyph-name="uni30B0" unicode="&#x30b0;" horiz-adv-x="895" 
d="M578 -40q-60 14 -121.5 30t-125.5 33q4 11 20 50.5t39.5 96t50 119.5t51 121.5t43.5 103t27 61.5q-39 7 -84 13.5t-98 13.5l-160 -288q-95 39 -190 89q75 118 151 220.5t151 186.5l130 -66l-27 -46l134 -31l10 -131l158 4q-32 -109 -71.5 -253t-87.5 -327zM865 562
l-115 2q0 56 -1.5 111.5t-3.5 109.5l115 -2q2 -31 3.5 -88.5t1.5 -132.5zM602 565q-2 35 -3 91t-1 127h118q0 -39 1.5 -99t4.5 -117z" />
    <glyph glyph-name="uni30B1" unicode="&#x30b1;" horiz-adv-x="855" 
d="M509 -52q-73 20 -132 36t-109 30q216 228 243 473q-15 0 -44.5 -1t-63.5 -2t-66 -2.5t-52 -2.5q-14 -34 -30.5 -75.5t-40.5 -103.5q-43 14 -89.5 25.5t-94.5 21.5q32 128 78 245.5t106 225.5q110 -40 198 -84q-27 -49 -48.5 -90.5t-38.5 -78.5q183 12 495 12l5 -110
q-30 4 -63.5 7.5t-71.5 5.5q-26 -314 -181 -532z" />
    <glyph glyph-name="uni30B2" unicode="&#x30b2;" horiz-adv-x="877" 
d="M498 -64q-61 17 -103 29t-73 21t-59 18q213 233 237 483q-25 0 -63 -1t-79.5 -3t-77.5 -4l-33 -82.5t-37 -100.5q-90 30 -180 48q63 265 180 482q65 -26 112 -46.5t83 -38.5q-22 -40 -43.5 -83.5t-42.5 -90.5q49 5 108 7t149 2l6 -54q73 6 133.5 9.5t90.5 3.5l3 -68
q-41 5 -72.5 8.5t-60.5 4.5q-24 -320 -178 -544zM754 561q-3 46 -8 95t-13 115l117 8q5 -36 9 -75.5t6 -76t2 -62.5zM604 551q-1 24 -4.5 62t-7.5 77t-8 65l120 11q5 -41 10.5 -90t12.5 -116z" />
    <glyph glyph-name="uni30B3" unicode="&#x30b3;" horiz-adv-x="767" 
d="M693 36q-51 5 -142 7t-199 2q-88 0 -165.5 -1.5t-130.5 -4.5l-8 126q118 0 231 -4t219 -12q-1 26 -2 74t-2 107t-1.5 118t-0.5 106q-137 0 -245 -7t-209 -23l-8 121q102 7 194 10.5t176 3.5q92 0 177 -4.5t160 -12.5q-3 -33 -7 -86t-8.5 -116.5t-9.5 -129t-9 -122.5
t-6.5 -97.5t-3.5 -54.5z" />
    <glyph glyph-name="uni30B4" unicode="&#x30b4;" horiz-adv-x="898" 
d="M714 530l-125 2q2 47 4.5 110t5.5 116l124 -4zM859 521l-118 5q5 82 7 132.5t3 95.5l117 -4q0 -104 -9 -229zM693 32q-53 4 -153.5 6t-224.5 2q-72 0 -139 -1t-120 -3l-8 126q118 0 231 -4.5t219 -12.5q-1 27 -2 72.5t-2 101.5t-1.5 116t-0.5 115q-95 0 -173.5 -3
t-147 -9.5t-133.5 -17.5l-8 121q74 7 169 10.5t193 3.5q89 0 173 -3v-148l156 -3q-8 -132 -15.5 -250.5t-12.5 -218.5z" />
    <glyph glyph-name="uni30B5" unicode="&#x30b5;" horiz-adv-x="944" 
d="M486 -67l-139 94q72 86 117.5 162t69 149.5t28.5 152.5q-41 0 -88.5 -1.5t-76.5 -3.5q3 -84 9 -163l-180 -17q-5 38 -9.5 81.5t-6.5 74.5q-36 -6 -78 -14t-91 -19l-11 123q56 5 103 8.5t69 4.5q-2 30 -4 68.5t-3 72t-1 47.5q38 4 85.5 5.5t110.5 1.5q0 -95 3 -185
q35 2 80.5 2.5t94.5 0.5q0 58 -1.5 111t-3.5 90q19 1 41.5 1.5t38.5 0.5q32 0 64 -3t59 -9q0 -74 -0.5 -129t-2.5 -70q78 -3 151 -9l-11 -115q-34 7 -74 13t-72 10q-12 -111 -44.5 -203.5t-88 -174t-138.5 -158.5z" />
    <glyph glyph-name="uni30B6" unicode="&#x30b6;" horiz-adv-x="934" 
d="M650 595v214l113 2q2 -58 3 -114t1 -100zM904 592l-112 2v70t-0.5 77.5t-1.5 69.5l111 -2q2 -38 2.5 -97.5t0.5 -119.5zM475 -70l-136 94q71 85 115 157.5t66.5 144.5t27.5 154q-43 0 -85.5 -0.5t-74.5 -2.5q3 -81 9 -161l-176 -9q-4 33 -8 69t-8 77q-35 -6 -76.5 -13.5
t-88.5 -18.5l-10 121q86 7 167 12q-1 30 -3 68.5t-3 71.5t-1 47q47 4 94.5 6t96.5 2q0 -94 3 -184q39 2 82.5 2.5t87.5 0.5q0 74 -1 117t-4 83l70 3v-198h132l-1 -13q16 0 44.5 -2l57 -4t42.5 -4l-12 -113q-27 6 -64.5 12.5t-76.5 10.5q-11 -111 -42 -202t-85.5 -171
t-138.5 -157z" />
    <glyph glyph-name="uni30B7" unicode="&#x30b7;" horiz-adv-x="817" 
d="M365 586q-154 33 -295 43l31 140q147 -25 290 -75zM323 -47q-12 8 -38.5 27t-57 43t-57.5 45.5t-41 33.5q106 72 195.5 153.5t172.5 183.5t169 235l121 -65q-53 -136 -118.5 -249t-150 -212t-195.5 -195zM30 378l5 144q82 0 153 -6.5t149 -19.5l-13 -112z" />
    <glyph glyph-name="uni30B8" unicode="&#x30b8;" horiz-adv-x="821" 
d="M697 557q-6 50 -13.5 102.5t-18.5 108.5l118 12q10 -55 17 -107.5t11 -105.5zM545 547q-1 14 -3.5 42.5t-6 61t-7 60t-5.5 40.5l115 13l32 -207zM361 560q-67 14 -143.5 27.5t-147.5 22.5l30 137q78 -20 129.5 -34t88.5 -25t69 -22zM319 -54q-16 9 -46 30.5t-68 52
t-77 63.5q44 29 94.5 69.5t101 87.5t97 95t83.5 92.5t59 80.5l194 15q-45 -111 -112 -217t-149.5 -199.5t-176.5 -169.5zM30 364l5 140q86 -4 162 -11.5t137 -17.5l-6 -110h-207t-91 -1z" />
    <glyph glyph-name="uni30B9" unicode="&#x30b9;" horiz-adv-x="860" 
d="M674 -57q-29 74 -72.5 154t-100.5 168q-67 -82 -143.5 -160t-160.5 -151q-52 47 -93.5 88.5t-73.5 79.5q385 302 491 505q-53 -1 -112.5 -4.5t-118 -9t-110 -11.5t-87.5 -13l-8 120q104 6 208 6q118 0 230.5 -7.5t211.5 -21.5q-38 -98 -79.5 -178.5t-88.5 -144.5
q143 -143 263 -332z" />
    <glyph glyph-name="uni30BA" unicode="&#x30ba;" horiz-adv-x="891" 
d="M194 -45q-93 83 -164 164q355 316 447 523q-63 -3 -135 -10.5t-141 -18t-124 -22.5l-9 115q89 9 174 14t164 5q75 0 143.5 -4.5t127.5 -12.5q-2 -8 -7.5 -24.5t-11.5 -31.5t-9 -21l-70 -3v-40q0 -32 -0.5 -70t-1.5 -61l-45 -78q138 -138 256 -324l-143 -94
q-37 86 -81 165.5t-94 151.5q-62 -86 -130.5 -166.5t-145.5 -156.5zM606 383q-1 30 -2 71t-1 82v71l119 -2q-1 -16 -1.5 -46t-0.5 -63q0 -32 0.5 -62t1.5 -49zM747 383q1 18 1.5 49.5t0.5 65.5t-0.5 64t-1.5 44l111 -2q3 -43 3 -105q0 -25 -0.5 -58t-1.5 -56z" />
    <glyph glyph-name="uni30BB" unicode="&#x30bb;" horiz-adv-x="881" 
d="M604 1q-138 0 -221 42t-120 136.5t-37 251.5q-15 -3 -40 -10t-53 -15t-51.5 -15.5t-35.5 -11.5l-16 125q34 7 72.5 14t72 12t49.5 6q0 55 0.5 116.5t1.5 103.5q93 12 158 12q17 0 38 -0.5t41 -1.5q-1 -9 -2.5 -34t-2.5 -56t-2 -59.5t-1 -44.5q83 12 182.5 21t213.5 15
q0 -100 -1.5 -161t-5.5 -107q-58 -6 -102 -9.5t-82 -5.5q-4 65 -7 111t-6 81q-52 -5 -100 -12.5t-94 -18.5q-3 -48 -4 -77t-1 -49q0 -92 16.5 -147t54.5 -79.5t101 -24.5q68 0 204 29l10 -118q-139 -19 -230 -19z" />
    <glyph glyph-name="uni30BC" unicode="&#x30bc;" horiz-adv-x="921" 
d="M723 532l-125 5q4 33 7 72t5.5 77.5t3.5 67.5l125 -6q-4 -87 -16 -216zM604 -19q-142 0 -225 43.5t-118.5 138t-35.5 248.5q-15 -4 -39.5 -10.5t-51.5 -14.5t-50.5 -15t-37.5 -12l-16 125q40 6 84 13.5t109 18.5q0 76 0.5 136.5t1.5 83.5q58 7 93 9.5t66 2.5
q18 0 39.5 -0.5t39.5 -1.5q-1 -16 -3 -43.5t-3.5 -58t-2.5 -55.5t-1 -37l122 17l-2 -58q68 -2 136.5 -6.5t141.5 -11.5q0 -26 -2 -74.5t-6 -98.5q-69 -7 -110 -10t-74 -5q-4 65 -7 110.5t-6 81.5q-52 -6 -101 -14t-94 -18q-2 -36 -3.5 -67.5t-1.5 -60.5q0 -90 16.5 -144.5
t55 -79t104.5 -24.5q39 0 89 8t111 21l12 -118q-66 -9 -123 -14t-107 -5zM871 519l-120 8q4 34 7.5 77t6.5 82t4 61l122 -8q-4 -58 -8.5 -112.5t-11.5 -107.5z" />
    <glyph glyph-name="uni30BD" unicode="&#x30bd;" horiz-adv-x="814" 
d="M378 -35l-173 80q68 85 118.5 154t86.5 131t62.5 125t46.5 134.5t38 160.5q57 -16 114 -32.5t113 -33.5q-29 -139 -87 -271t-139 -246.5t-180 -201.5zM149 356q-84 159 -119 323q42 13 91.5 23.5t109.5 20.5q13 -76 30.5 -156t39.5 -164z" />
    <glyph glyph-name="uni30BE" unicode="&#x30be;" horiz-adv-x="914" 
d="M373 -39l-167 76q79 99 136 183.5t96.5 167t68 173t50.5 200.5q25 -5 64.5 -16.5t80.5 -25t70 -24.5q-18 -91 -46 -170l-165 -32q12 -66 25.5 -126.5t26.5 -105.5q-40 -73 -102.5 -151.5t-137.5 -148.5zM146 360q-83 166 -116 330q47 14 95.5 25t101.5 19
q27 -168 69 -326zM793 268q-14 65 -28.5 124t-28.5 111l111 21q14 -53 28.5 -112t28.5 -123zM648 242q-8 30 -15.5 59t-16.5 69t-23 102l114 25q10 -37 24.5 -93.5t33.5 -136.5z" />
    <glyph glyph-name="uni30BF" unicode="&#x30bf;" horiz-adv-x="791" 
d="M491 -60q-69 14 -130 32.5t-114 40.5q71 86 121 160t79 137q-44 8 -80 14.5t-65 10.5l28 107q83 -15 165 -38q42 87 83 191q-38 8 -85.5 13t-103.5 7q-41 -70 -86.5 -140.5t-97.5 -142.5q-97 53 -175 109q76 88 148 182.5t142 195.5l138 -62l-20 -44q80 -11 161 -26
t162 -35q-25 -132 -65.5 -261.5t-92.5 -245t-112 -205.5z" />
    <glyph glyph-name="uni30C0" unicode="&#x30c0;" horiz-adv-x="874" 
d="M483 -60q-134 28 -239 73q69 86 116.5 160t74.5 137q-46 8 -80 14t-61 11l28 107q41 -7 81 -17t80 -21q20 45 40 93t39 98q-37 8 -83.5 13t-101.5 7q-37 -65 -79.5 -134t-96.5 -149q-46 25 -88.5 52t-82.5 57q141 173 276 378l137 -62l-21 -44q12 -1 33 -4t44.5 -6.5
t42.5 -6.5t28 -5q4 -44 6.5 -98t4.5 -115l131 14q-4 -29 -21 -81.5t-42.5 -117.5t-55 -131.5t-58 -125t-52.5 -96.5zM751 520q-4 80 -8.5 130t-9.5 89l110 8q7 -50 12 -104.5t9 -114.5zM611 508q-7 66 -12 121t-8 95l115 12q5 -48 11 -105t11 -113z" />
    <glyph glyph-name="uni30C1" unicode="&#x30c1;" horiz-adv-x="875" 
d="M497 -74l-177 24q51 215 51 342q-79 -9 -162 -22.5t-158 -30.5l-21 117q89 10 176.5 17.5t163.5 11.5q-3 65 -12 128q-37 -16 -78.5 -32.5t-93.5 -33.5l-51 115q238 120 399 277q78 -55 144 -138q-93 -74 -230 -146l128 -2q0 -31 -0.5 -78t-2.5 -83q53 0 116 -1t156 -4
l-4 -114q-81 11 -146.5 17t-121.5 7q-6 -91 -25.5 -186t-50.5 -185z" />
    <glyph glyph-name="uni30C2" unicode="&#x30c2;" horiz-adv-x="900" 
d="M497 -74l-177 24q27 112 39 195.5t12 146.5q-79 -9 -161.5 -22.5t-158.5 -30.5l-21 117q87 10 174 17.5t166 11.5q-3 65 -12 128q-74 -33 -172 -66l-51 115q238 120 399 277q78 -55 144 -138q-91 -72 -230 -146l128 -2q0 -28 -0.5 -74t-2.5 -87q62 0 126 -1t146 -4
l-4 -114q-75 11 -141 17t-127 7q-6 -90 -25.5 -185t-50.5 -186zM613 421q-1 17 -1.5 51.5t-0.5 74v67.5l115 -2v-66.5t0.5 -67.5t1.5 -55zM867 415l-111 5q0 28 -0.5 67t-0.5 74.5t-1 50.5l114 -4q1 -7 1 -26t0.5 -40.5t0.5 -39.5q0 -25 -0.5 -49t-2.5 -38z" />
    <glyph glyph-name="uni30C3" unicode="&#x30c3;" horiz-adv-x="730" 
d="M274 292q-3 20 -6 54t-5.5 72.5t-4.5 72t-3 51.5q33 3 71.5 4.5t75.5 1.5v-37t0.5 -59t1 -64.5t1 -55t0.5 -29.5q-44 -2 -76 -5t-55 -6zM100 226q-20 56 -37.5 118t-32.5 134q31 8 68 16t74 15q8 -62 21 -124t29 -124q-29 -7 -60.5 -15.5t-61.5 -19.5zM326 -120l-108 87
q236 245 313 522q48 -16 89.5 -32t79.5 -32q-76 -197 -167 -329.5t-207 -215.5z" />
    <glyph glyph-name="uni30C4" unicode="&#x30c4;" horiz-adv-x="897" 
d="M336 452q-3 24 -7 66.5t-7.5 90.5t-6 90t-3.5 65q41 4 89 5.5t94 1.5q0 -14 0.5 -46.5t1 -73.5t1 -80.5t1 -68.5t0.5 -37q-109 -6 -163 -13zM118 369q-25 70 -46.5 147.5t-41.5 167.5q39 10 85.5 20t92.5 18q11 -77 26.5 -154.5t36.5 -154.5q-37 -8 -76 -19t-77 -25z
M401 -63l-136 108q149 155 246 316t146 336q59 -20 111 -40t99 -40q-95 -246 -208.5 -411.5t-257.5 -268.5z" />
    <glyph glyph-name="uni30C5" unicode="&#x30c5;" horiz-adv-x="943" 
d="M327 456q-3 24 -7 66.5t-7.5 90.5t-6 90t-3.5 65q41 4 89 5.5t94 1.5q0 -14 0.5 -46.5t1 -73.5t1 -80.5t1 -68.5t0.5 -37q-109 -6 -163 -13zM116 373q-25 72 -46 149.5t-40 165.5q53 13 92.5 21.5t82.5 16.5q17 -134 61 -309q-32 -7 -70.5 -18.5t-79.5 -25.5zM394 -59
l-143 108q154 164 251 324.5t143 327.5q64 -23 113.5 -42t92.5 -38l-41 -103l-201 -5q2 -37 4.5 -80t4.5 -84.5t3 -74t1 -48.5l28 2q-48 -78 -114.5 -152t-141.5 -135zM795 263l-11 229h118q4 -49 7.5 -112t3.5 -117h-118zM646 259q-3 52 -5.5 105.5t-4.5 120.5l122 4
l11 -224z" />
    <glyph glyph-name="uni30C6" unicode="&#x30c6;" horiz-adv-x="832" 
d="M736 659q-89 -4 -167 -7.5t-152 -5t-151 -2.5t-164 -1l4 110q71 -6 121 -9.5t88.5 -5t73.5 -1.5q43 0 89.5 2t107.5 7.5t146 14.5zM369 -58q-62 21 -124 49.5t-136 68.5q194 176 246 364q-76 -4 -158 -12.5t-156 -19.5l-11 111q90 4 175 6.5t174.5 4t193 2t229.5 0.5
l-4 -108q-50 5 -111.5 8t-129.5 6q-9 -89 -34.5 -176t-64.5 -164.5t-89 -139.5z" />
    <glyph glyph-name="uni30C7" unicode="&#x30c7;" horiz-adv-x="890" 
d="M758 580q-1 28 -3.5 67.5t-5 81t-5.5 74.5l119 5q5 -40 9 -93t8 -130zM603 563q-1 31 -3 71t-5 81t-8 76l127 9q11 -112 18 -225zM571 657q-34 -3 -103.5 -5.5t-163 -3.5t-201.5 -1l4 107q86 -7 163.5 -11t138.5 -4q48 0 88.5 2t69.5 6zM371 -52q-72 23 -135.5 50.5
t-129.5 64.5q91 79 153.5 171.5t90.5 191.5q-56 -2 -130 -10t-180 -22l-10 113q102 3 191 5.5t177.5 4t186.5 2t218 0.5l-4 -110q-148 12 -243 15q-9 -91 -34.5 -178.5t-64 -164t-86.5 -133.5z" />
    <glyph glyph-name="uni30C8" unicode="&#x30c8;" horiz-adv-x="639" 
d="M294 -42q-30 0 -71.5 0.5t-79 1.5t-56.5 2q0 239 -9 444t-28 374q63 4 124.5 6t110.5 2q2 -33 4.5 -78.5t4 -95t2.5 -93t1 -71.5l63 71q155 -82 249 -170l-103 -116q-25 24 -62 53t-75.5 56.5t-71.5 46.5v-84.5t-0.5 -101.5t-0.5 -102.5t-0.5 -87.5t-1.5 -57z" />
    <glyph glyph-name="uni30C9" unicode="&#x30c9;" horiz-adv-x="681" 
d="M86 -48q0 482 -36 818q37 2 79 4t82 3t71 1q2 -34 4.5 -78t4 -91t2.5 -91t1 -78l63 71q154 -82 246 -170q-26 -31 -49.5 -57.5t-52.5 -58.5q-26 26 -63 55t-75 56t-69 45v-84.5t-0.5 -101.5t-0.5 -102.5t-0.5 -87.5t-1.5 -57q-29 0 -70.5 0.5t-79 1.5t-55.5 2zM495 560
l-125 5l9 209l125 -8zM644 545l-119 9q1 15 2.5 45t3 63.5t2.5 62t1 40.5l117 -8q0 -55 -1.5 -108.5t-5.5 -103.5z" />
    <glyph glyph-name="uni30CA" unicode="&#x30ca;" horiz-adv-x="870" 
d="M459 -48q-58 10 -123.5 23.5t-151.5 32.5q89 122 132 229.5t47 214.5q-83 -3 -169.5 -4.5t-163.5 -1.5l6 116q99 -10 184 -14.5t152 -4.5q0 70 -3.5 132t-10.5 112l183 15q10 -73 16 -134.5t10 -114.5q110 9 267 27l6 -113q-67 -3 -135 -5t-135 -4q0 -154 -26.5 -275.5
t-84.5 -230.5z" />
    <glyph glyph-name="uni30CB" unicode="&#x30cb;" horiz-adv-x="796" 
d="M389 483q-76 0 -146.5 1.5t-150.5 4.5v132q64 -7 115.5 -12t96.5 -7t91 -2q56 0 127.5 3.5t177.5 11.5l-6 -127q-109 -3 -180 -4t-125 -1zM36 68l-6 143q105 10 186.5 14.5t157.5 4.5q82 0 175 -5.5t217 -17.5l-6 -136q-85 12 -148.5 18.5t-114 9.5t-96.5 3
q-48 0 -99 -3.5t-115 -10.5t-151 -20z" />
    <glyph glyph-name="uni30CC" unicode="&#x30cc;" horiz-adv-x="827" 
d="M217 -35q-111 62 -187 131q77 66 131 114.5t92.5 86t67.5 70.5q-35 29 -61 48t-43 31l70 83q41 -28 65 -45t42 -32q73 88 117 164q-30 2 -62.5 3t-64.5 1q-72 0 -144.5 -4t-135.5 -12l-6 115q48 0 114.5 -2.5t140.5 -7t145 -10.5t127.5 -12t87.5 -11q-30 -82 -73.5 -162
t-106.5 -166q61 -51 124.5 -113.5t139.5 -145.5l-132 -116q-55 77 -109.5 144t-101.5 116q-56 -78 -117 -146.5t-120 -121.5z" />
    <glyph glyph-name="uni30CD" unicode="&#x30cd;" horiz-adv-x="873" 
d="M540 -48q-103 0 -208 6q3 68 5 133.5t2 111.5q-70 -60 -187 -143q-35 38 -65.5 72.5t-56.5 70.5q68 39 135.5 85.5t129.5 95t112.5 95t83.5 86.5q-100 -7 -196 -19.5t-185 -31.5l-10 112q76 5 135 8.5t103 5.5l-10 165q12 1 40.5 1t67 0.5t78.5 0.5l-7 -164
q20 0 51.5 -1.5t66.5 -4t67.5 -5t53.5 -5.5q-26 -46 -69 -104.5t-96 -119.5q42 -25 79.5 -52t81 -62.5t101.5 -86.5l-99 -96q-55 63 -110.5 118t-111.5 102q2 -25 4.5 -63t5 -82.5t4.5 -88.5t3 -80.5t1 -59.5z" />
    <glyph glyph-name="uni30CE" unicode="&#x30ce;" horiz-adv-x="720" 
d="M190 -38l-160 104q187 159 292.5 329t140.5 367q42 -7 86 -16.5t81.5 -19t59.5 -17.5q-55 -255 -179.5 -440t-320.5 -307z" />
    <glyph glyph-name="uni30CF" unicode="&#x30cf;" horiz-adv-x="888" 
d="M620 55q-21 299 -78 621q56 9 98 15t80 10q42 -136 76.5 -290.5t61.5 -331.5q-122 -17 -238 -24zM262 54q-71 6 -127.5 12.5t-104.5 13.5q16 164 43 316t65 288q101 -9 183 -24q-23 -157 -38 -308.5t-21 -297.5z" />
    <glyph glyph-name="uni30D0" unicode="&#x30d0;" horiz-adv-x="906" 
d="M724 536l-114 14q1 16 3.5 46t6 64.5t6.5 64t5 45.5l118 -16zM871 517l-119 21q18 94 27 215l117 -14q-10 -131 -25 -222zM259 33q-114 10 -229 27q15 170 42 328t64 302q65 -7 106.5 -12.5t75.5 -12.5q-24 -167 -38.5 -325t-20.5 -307zM614 34q-10 158 -29.5 319.5
t-47.5 327.5l53 8l-8 -165l186 -24q16 -64 37 -177.5t45 -263.5q-139 -19 -236 -25z" />
    <glyph glyph-name="uni30D1" unicode="&#x30d1;" horiz-adv-x="905" 
d="M751 521q-57 0 -91.5 35.5t-34.5 93.5q0 54 32.5 86t87.5 32q58 0 94 -36.5t36 -94.5q0 -52 -34 -84t-90 -32zM762 565q26 0 26 54q0 29 -6.5 54t-16.5 41t-22 16t-19.5 -17t-7.5 -44q0 -42 13.5 -73t32.5 -31zM259 38q-47 5 -102.5 11.5t-126.5 15.5q15 159 41.5 316
t64.5 308q45 -4 88.5 -9.5t93.5 -14.5q-24 -169 -38.5 -324.5t-20.5 -302.5zM614 39q-10 149 -29 308.5t-48 333.5l63 7q-2 -13 -3.5 -26t-1.5 -24q0 -74 45.5 -113.5t131.5 -39.5q18 -84 38 -191.5t40 -229.5q-106 -18 -236 -25z" />
    <glyph glyph-name="uni30D2" unicode="&#x30d2;" horiz-adv-x="771" 
d="M460 -15q-120 0 -199.5 23.5t-125.5 80t-65.5 153t-19.5 242.5q0 125 12 291q82 0 145 -2.5t101 -7.5q-10 -112 -14.5 -188.5t-6.5 -123.5q92 23 189.5 52t197.5 63l26 -127q-91 -25 -188 -47t-200 -41l-26 53q0 -120 17.5 -191.5t56.5 -103t101 -31.5q32 0 76.5 6.5
t91.5 17.5t86 24l26 -114q-84 -16 -150 -22.5t-131 -6.5z" />
    <glyph glyph-name="uni30D3" unicode="&#x30d3;" horiz-adv-x="797" 
d="M651 550q-3 38 -6.5 70.5t-9 68t-13.5 83.5l118 14q18 -115 27 -224zM461 -9q-120 0 -199.5 24t-126 80t-66 152.5t-19.5 241.5q0 62 3 135t9 153q155 0 245 -10q-8 -105 -13 -179.5t-7 -133.5q26 8 71 20.5t115 29.5l202 19l22 -79q-95 -28 -191.5 -49.5t-194.5 -38.5
l-25 52q0 -172 40 -247.5t132 -75.5q30 0 74.5 6.5t92 17t86.5 22.5l26 -113q-85 -14 -149 -20.5t-127 -6.5zM500 537q-7 41 -13 91.5t-14 122.5l120 17q6 -34 11.5 -77t10 -81.5t5.5 -59.5z" />
    <glyph glyph-name="uni30D4" unicode="&#x30d4;" horiz-adv-x="791" 
d="M463 -14q-121 0 -201 23.5t-126.5 80t-66 153.5t-19.5 243q0 124 12 290q65 0 131 -2.5t112 -6.5q-5 -70 -9 -124.5t-7 -99.5t-5 -90q75 19 122 31.5t75 21t45 15.5q50 -31 122 -31q15 0 31 3l13 -53q-164 -47 -383 -86l-26 51q0 -173 41.5 -249t135.5 -76q31 0 74.5 6.5
t89.5 17t82 23.5l26 -113q-76 -15 -140 -21.5t-129 -6.5zM634 521q-58 0 -91.5 31t-33.5 86q0 57 35 91.5t92 34.5t91 -32.5t34 -87.5q0 -56 -34.5 -89.5t-92.5 -33.5zM633 565q16 0 27.5 31t11.5 71q0 59 -31 59q-18 0 -29 -20t-11 -55q0 -37 9.5 -61.5t22.5 -24.5z" />
    <glyph glyph-name="uni30D5" unicode="&#x30d5;" horiz-adv-x="820" 
d="M408 -42q-58 25 -117 57.5t-118 72.5q114 95 192.5 179.5t130.5 168t84 174.5q-78 0 -173 -5.5t-191 -15.5t-179 -23l-7 126q100 5 186 7t165 2q108 0 207 -4.5t202 -13.5q-66 -414 -382 -725z" />
    <glyph glyph-name="uni30D6" unicode="&#x30d6;" horiz-adv-x="914" 
d="M402 -46q-58 29 -116 63t-115 74q111 100 188.5 188.5t129 176.5t83.5 185q-77 0 -168.5 -5.5t-186 -16t-180.5 -24.5l-7 133q102 4 193.5 6t165.5 2q106 0 200 -4.5t189 -13.5q-20 -110 -44 -199l-156 -11q5 -61 12.5 -137t14.5 -145q-73 -127 -203 -272zM784 260
q-4 42 -10 99t-16 132l119 10q17 -103 27 -234zM630 249l-21 232l125 9q3 -27 7 -70.5t8.5 -87t6.5 -74.5z" />
    <glyph glyph-name="uni30D7" unicode="&#x30d7;" horiz-adv-x="905" 
d="M402 -41q-114 51 -231 130q159 130 255.5 255t145.5 267q-86 0 -181 -5.5t-186.5 -15t-167.5 -23.5l-7 126q86 4 167 6t159 2q111 0 216 -4.5t206 -12.5q-10 -53 -16.5 -83.5t-10 -47t-7.5 -29.5q-42 0 -73.5 -20t-48.5 -53t-17 -72q0 -25 8 -51.5t25 -51.5
q-108 -189 -236 -317zM757 265q-55 0 -88.5 31.5t-33.5 82.5q0 53 33 86t85 33q53 0 87.5 -34.5t34.5 -87.5q0 -49 -32 -80t-86 -31zM754 308q16 0 26 27t10 68q0 23 -9 40t-20 17q-15 0 -27 -30t-12 -68q0 -21 9.5 -37.5t22.5 -16.5z" />
    <glyph glyph-name="uni30D8" unicode="&#x30d8;" horiz-adv-x="968" 
d="M823 79q-133 102 -252 200.5t-217 189.5q-47 -55 -109.5 -116.5t-150.5 -140.5l-84 112q24 16 62.5 45t84 65.5t90.5 74t83.5 71t61.5 56.5q114 -85 256.5 -177.5t309.5 -191.5q-60 -99 -135 -188z" />
    <glyph glyph-name="uni30D9" unicode="&#x30d9;" horiz-adv-x="968" 
d="M791 483q-4 41 -9.5 90t-16.5 119l112 10q8 -59 13.5 -111t9.5 -98zM644 476q-10 99 -21 204l115 7q5 -52 11 -103.5t13 -101.5zM823 51q-133 102 -252 200.5t-217 189.5q-47 -55 -109.5 -116.5t-150.5 -140.5l-84 112q24 16 62.5 45t84 65.5t90.5 74t83.5 71t61.5 56.5
q114 -85 256.5 -177.5t309.5 -191.5q-60 -99 -135 -188z" />
    <glyph glyph-name="uni30DA" unicode="&#x30da;" horiz-adv-x="968" 
d="M744 453q-58 0 -92 32.5t-34 86.5q0 52 32 81.5t87 29.5q58 0 93 -32.5t35 -86.5q0 -51 -32.5 -81t-88.5 -30zM746 492q15 0 23.5 18t8.5 49q0 36 -11 61t-28 25q-15 0 -25 -20t-10 -52q0 -34 12 -57.5t30 -23.5zM823 49q-133 102 -252 200.5t-217 189.5
q-45 -53 -105 -112.5t-155 -144.5l-84 112q24 16 62.5 45t84 65.5t90.5 74t83.5 71t61.5 56.5q101 -76 239 -166t327 -203q-32 -52 -66 -99t-69 -89z" />
    <glyph glyph-name="uni30DB" unicode="&#x30db;" horiz-adv-x="911" 
d="M462 -29q-25 0 -49.5 1.5t-43.5 2.5q-4 68 -7.5 146.5t-6.5 155t-4.5 140.5t-1.5 103l-285 -4l6 114q91 -8 158.5 -12.5t119.5 -6.5q0 41 0.5 81.5t1.5 74t2 51.5l202 -5l-8 -197q59 4 126.5 10t140.5 14l10 -103q-71 -4 -141.5 -7t-135.5 -5q0 -46 0.5 -105t1 -123
t1.5 -125.5t2.5 -112.5t2.5 -83q-18 -2 -42 -3.5t-50 -1.5zM673 16q-1 16 -6 57t-11.5 93.5t-13.5 105t-13 94.5t-9 61l167 22q27 -106 45.5 -208.5t28.5 -202.5q-42 -7 -89 -12.5t-99 -9.5zM245 10q-28 0 -63.5 1.5t-70 4.5t-61.5 6q6 104 17 205.5t27 200.5
q32 0 78.5 -2.5t91.5 -7.5q-1 -19 -3.5 -58.5t-4.5 -88.5t-4.5 -99.5t-4 -93t-2.5 -68.5z" />
    <glyph glyph-name="uni30DC" unicode="&#x30dc;" horiz-adv-x="930" 
d="M735 596l-119 7l8 202l117 -4q0 -50 -2 -104t-4 -101zM874 588l-111 5q2 48 2.5 102t0.5 106l114 -5q0 -91 -6 -208zM460 -33q-25 0 -49 1.5t-42 2.5q-4 63 -7.5 136t-6.5 145t-4.5 132.5t-1.5 99.5l-284 -3l5 110q162 -15 278 -18q0 27 0.5 66.5t1 78t1.5 61.5l202 -5
l-7 -196l53 5l211 -16l13 -67l-277 -11q0 -88 1 -181.5t3 -180.5t4 -155q-19 -2 -43.5 -3.5t-50.5 -1.5zM673 4q-13 119 -26.5 222.5t-26.5 176.5l167 21q27 -106 45.5 -206t28.5 -195q-37 -6 -84 -11t-104 -8zM245 -1q-52 0 -103.5 3t-91.5 7q6 104 17 202.5t27 192.5
q35 0 82.5 -2.5t87.5 -7.5q-5 -99 -8.5 -169t-6 -123.5t-4.5 -102.5z" />
    <glyph glyph-name="uni30DD" unicode="&#x30dd;" horiz-adv-x="920" 
d="M743 569q-55 0 -87 30.5t-32 81.5q0 52 32.5 82.5t87.5 30.5q56 0 91 -31t35 -81t-35.5 -81.5t-91.5 -31.5zM476 -33q-45 0 -107 3q-4 43 -7.5 105t-6.5 133t-4.5 142.5t-1.5 132.5l-284 -3l5 110q162 -15 278 -18v206l205 -6l-8 -195l75 7q41 -45 128 -45q31 0 68 6
l7 -45q-106 -7 -277 -12q0 -117 1 -218t3 -177.5t4 -121.5q-11 -2 -30.5 -3t-47.5 -1zM751 610q15 0 23.5 15.5t8.5 43.5q0 36 -11.5 63t-27.5 27q-13 0 -22.5 -20.5t-9.5 -51.5q0 -35 10.5 -56t28.5 -21zM673 3q-8 72 -17 145.5t-18.5 139.5t-17.5 114q70 12 167 21
q26 -102 44.5 -202.5t29.5 -198.5q-42 -7 -88.5 -11.5t-99.5 -7.5zM245 -2q-16 0 -42.5 0.5t-56 2t-55.5 3t-41 4.5q6 101 17 198t27 197q34 0 78 -2.5t92 -7.5q-3 -48 -6 -107t-5.5 -117.5t-4.5 -104.5t-3 -66z" />
    <glyph glyph-name="uni30DE" unicode="&#x30de;" horiz-adv-x="961" 
d="M434 -28q-25 61 -61 128t-76 130.5t-79 114.5l158 109q28 -27 63 -67.5t70 -85.5q67 71 121 141t86 127q-44 5 -87 7.5t-84 2.5q-112 0 -229.5 -17t-265.5 -55l-20 111q179 20 315 29.5t254 9.5q86 0 166.5 -4.5t165.5 -15.5q-18 -61 -52.5 -132.5t-81 -145
t-100.5 -141.5q-37 10 -85 26t-83 30q40 -53 74.5 -106t55.5 -94z" />
    <glyph glyph-name="uni30DF" unicode="&#x30df;" horiz-adv-x="660" 
d="M567 572q-91 14 -168 20.5t-153 6.5q-38 0 -77.5 -1.5t-84.5 -5.5l5 124q57 2 121.5 3t128.5 1q65 0 126.5 -1.5t112.5 -3.5zM535 290q-238 57 -434 57l8 121q80 0 163.5 -4t157 -11t124.5 -16zM580 -32q-144 46 -281.5 74.5t-268.5 41.5l17 123q191 -12 334 -30.5
t249 -46.5z" />
    <glyph glyph-name="uni30E0" unicode="&#x30e0;" horiz-adv-x="851" 
d="M625 -14l-26 92q-55 -12 -124 -23t-145 -20t-153 -15t-147 -8q26 118 49.5 215t49 181t54 164t63.5 165q133 -22 229 -44q-20 -47 -45.5 -112.5t-52.5 -136.5t-50.5 -137t-40.5 -116.5t-22 -72.5q173 12 309 52q-15 49 -29 93t-28 83q41 14 84.5 25t92.5 20
q30 -67 61.5 -155.5t66.5 -202.5q-43 -16 -91.5 -27.5t-104.5 -19.5z" />
    <glyph glyph-name="uni30E1" unicode="&#x30e1;" horiz-adv-x="822" 
d="M143 -41l-113 125q203 147 319 272q-38 37 -71.5 66.5t-64.5 54.5l77 87q32 -21 69.5 -46.5t83.5 -57.5q49 70 89 140.5t71 141.5q51 -24 98 -48t91 -49q-74 -155 -211 -310q38 -35 69 -68t58 -65q-31 -30 -63.5 -58t-66.5 -55q-28 38 -53.5 70t-49.5 60
q-82 -76 -160 -137.5t-172 -122.5z" />
    <glyph glyph-name="uni30E2" unicode="&#x30e2;" horiz-adv-x="846" 
d="M646 -8q-145 0 -232.5 25.5t-127 83.5t-39.5 156q0 14 0.5 28.5t1.5 27.5l-219 3l7 115q27 -5 66 -9.5t78.5 -7t67.5 -2.5q2 37 5 88t7 97l-183 -2l5 107q70 -6 129.5 -9t112.5 -3q72 0 137.5 6t133 18.5t145.5 31.5l22 -114q-55 -7 -121.5 -13.5t-156.5 -12.5
q-6 -58 -10.5 -106.5t-6.5 -94.5q142 4 337 34l11 -119q-76 -5 -164.5 -7.5t-186.5 -2.5q0 -87 14 -137t46.5 -71t87.5 -21q34 0 82 6.5t112 19.5l7 -103q-29 -6 -73 -9t-95 -3z" />
    <glyph glyph-name="uni30E3" unicode="&#x30e3;" horiz-adv-x="713" 
d="M282 -98q-15 102 -26 198.5t-18 189.5q-47 -14 -80.5 -24t-58.5 -18t-49 -17l-20 97q70 16 117.5 26t85.5 17q-3 50 -4.5 99t-1.5 94q29 3 62.5 6t73.5 4q2 -44 5 -88.5t7 -90.5q82 11 158.5 17.5t149.5 7.5q-4 -66 -11 -132.5t-18 -133.5q-56 5 -99 11t-78 14
q18 52 29 93.5t17 73.5q-33 -4 -67.5 -9t-72.5 -13q11 -100 26.5 -202t37.5 -206q-41 -5 -82.5 -8.5t-82.5 -5.5z" />
    <glyph glyph-name="uni30E4" unicode="&#x30e4;" horiz-adv-x="876" 
d="M346 -35q-19 128 -33 248.5t-23 236.5q-59 -17 -100.5 -30t-73 -23t-61.5 -21l-25 121q88 20 147 33t107 21q-4 62 -5.5 123.5t-1.5 117.5q37 4 79 7.5t91 5.5q4 -109 15 -224q102 14 198 22t186 10q-4 -82 -12.5 -166t-22.5 -167q-70 6 -124 13.5t-98 17.5q23 65 37 117
t21 92q-81 -9 -175 -27q14 -125 33.5 -252.5t46.5 -257.5q-103 -13 -206 -18z" />
    <glyph glyph-name="uni30E5" unicode="&#x30e5;" horiz-adv-x="732" 
d="M43 -27l-13 100q101 6 188.5 9t153.5 3q34 139 49 293q-71 0 -148.5 -3t-152.5 -9l-3 93q80 0 165.5 -4t168 -11.5t151.5 -18.5q-4 -66 -17 -150.5t-35 -194.5q21 -1 51 -3t58 -4t43 -4l-9 -92q-153 30 -311 30q-84 0 -168.5 -8.5t-170.5 -25.5z" />
    <glyph glyph-name="uni30E6" unicode="&#x30e6;" horiz-adv-x="900" 
d="M46 54l-16 125q127 8 236.5 12t191.5 4q21 87 36 177t25 189q-89 0 -186 -4t-190 -12l-4 116q99 0 206 -5t210.5 -14.5t189.5 -22.5q-6 -82 -22 -187.5t-43 -243.5q26 -1 63 -3.5t72.5 -5t54.5 -5.5l-11 -115q-96 19 -193 28.5t-196 9.5q-105 0 -211 -11t-213 -32z" />
    <glyph glyph-name="uni30E7" unicode="&#x30e7;" horiz-adv-x="602" 
d="M48 -66l-11 91q87 8 172.5 11.5t182.5 3.5l5 147q-98 0 -186 -3.5t-152 -11.5l-3 92q77 3 163 3q59 0 102.5 -1t77.5 -3v106.5t-1 53.5q-113 0 -201.5 -4.5t-162.5 -11.5l-4 91q54 2 104 3t96 1q87 0 172 -4.5t170 -12.5q0 -48 -2 -107.5t-5.5 -122t-7.5 -122.5
t-9 -110.5t-10 -83.5q-15 1 -42.5 1.5t-57 1t-51.5 0.5l2 26q-78 -5 -163 -13.5t-178 -20.5z" />
    <glyph glyph-name="uni30E8" unicode="&#x30e8;" horiz-adv-x="739" 
d="M53 5l-13 114q109 10 216 14.5t228 4.5l7 183q-124 0 -234 -4.5t-190 -13.5l-4 114q48 2 100 3t104 1q74 0 128.5 -1.5t97.5 -3.5v133t-1 67q-142 0 -252.5 -5.5t-203.5 -14.5l-6 114q68 2 130.5 3.5t120.5 1.5q217 0 428 -21q0 -60 -2.5 -134t-6.5 -153t-9.5 -154
t-11.5 -137.5t-12 -104.5q-20 1 -54.5 2t-70.5 1.5t-64 0.5l2 32q-97 -6 -203.5 -16.5t-223.5 -25.5z" />
    <glyph glyph-name="uni30E9" unicode="&#x30e9;" horiz-adv-x="765" 
d="M73 657l11 108q137 -8 287.5 -12.5t310.5 -4.5l3 -86zM429 -61q-157 47 -261 90q71 53 138.5 123t124.5 147.5t95 152.5q-131 -7 -249.5 -23.5t-222.5 -43.5l-24 124q153 18 302 28t282 10q72 0 121 -3q-31 -182 -110 -337.5t-196 -267.5z" />
    <glyph glyph-name="uni30EA" unicode="&#x30ea;" horiz-adv-x="591" 
d="M413 -49q-56 14 -108.5 28t-114.5 33q71 83 114.5 156.5t63.5 153.5t20 180q0 57 -6 122.5t-17 143.5q51 2 97 5.5t77 7.5q11 -81 16.5 -154.5t5.5 -140.5q0 -169 -36.5 -299.5t-111.5 -235.5zM207 369q-29 2 -73.5 3t-103.5 1q0 125 5 218t16 177q39 -4 85 -7.5t76 -3.5
q-4 -67 -6 -134.5t-2 -128.5q0 -71 3 -125z" />
    <glyph glyph-name="uni30EB" unicode="&#x30eb;" horiz-adv-x="981" 
d="M470 57q2 46 3 107t1 113q0 130 -4.5 224.5t-12.5 161.5l211 22q5 -66 8 -129.5t3 -124.5q0 -60 -3 -123.5t-8 -130.5q62 14 127 34t122 45l34 -122q-121 -32 -235 -50.5t-246 -26.5zM276 24q-105 11 -246 57q46 83 76.5 172t49.5 193.5t28 233.5l182 -8
q-7 -192 -29.5 -354.5t-60.5 -293.5z" />
    <glyph glyph-name="uni30EC" unicode="&#x30ec;" horiz-adv-x="780" 
d="M81 -14q-16 137 -23.5 319t-7.5 427q35 2 71.5 3t67.5 1q32 0 51.5 -0.5t30.5 -2.5q-5 -106 -8 -198.5t-3 -175.5q0 -116 6 -223q222 82 409 243l75 -119q-99 -68 -210.5 -122.5t-228 -93t-230.5 -58.5z" />
    <glyph glyph-name="uni30ED" unicode="&#x30ed;" horiz-adv-x="871" 
d="M78 50q-6 138 -18.5 287.5t-29.5 292.5q56 8 109 12.5t108 7.5l3 -39q131 17 277 24.5t314 7.5q-3 -103 -9 -206t-13.5 -197.5t-16.5 -173.5h-186l1 29q-50 2 -92.5 3.5t-80.5 1.5q-46 0 -92 -2t-85 -6l-1 -31q-44 -1 -95 -3.5t-93 -7.5zM269 182q53 5 143.5 8t211.5 3
q3 69 4 114.5t1 79.5q0 35 -1 70t-3 84q-107 0 -196 -4.5t-175 -14.5q1 -15 2.5 -49t3.5 -77l4 -86t3 -77.5t2 -50.5z" />
    <glyph glyph-name="uni30EE" unicode="&#x30ee;" horiz-adv-x="660" 
d="M432 -90q-55 14 -105 30t-94 36q80 83 130.5 160t76 157t28.5 170q-108 0 -173 -1t-111 -6q0 -112 12 -232q-20 -1 -49 -2t-57.5 -1.5t-49.5 -0.5q-5 56 -7.5 105.5t-2.5 94.5q0 23 0.5 44t1.5 42q147 18 348 18q61 0 123.5 -1.5t126.5 -5.5q0 -82 -14.5 -167t-41 -166
t-62.5 -151t-80 -123z" />
    <glyph glyph-name="uni30EF" unicode="&#x30ef;" horiz-adv-x="810" 
d="M533 -25q-70 17 -132.5 37t-116.5 45q100 104 163 201t94.5 197t35.5 212q-89 0 -154.5 -1t-113.5 -2.5t-87 -5.5q0 -140 15 -290q-25 -1 -61 -2.5t-71.5 -2t-61.5 -0.5q-7 70 -10 132t-3 118t3 108q92 11 201.5 16.5t232.5 5.5q154 0 313 -9q0 -103 -18 -209t-51 -207
t-78 -189t-100 -154z" />
    <glyph glyph-name="uni30F0" unicode="&#x30f0;" horiz-adv-x="875" 
d="M614 -47q-39 0 -84.5 1.5t-96.5 3.5q3 64 5 119t2 88q-171 -8 -398 -42l-12 112l109 5q2 32 2.5 68.5t0.5 64.5q0 29 -0.5 66t-2.5 60l-67 3l7 103q104 -11 192.5 -16t161.5 -5q-3 48 -7 100.5t-10 111.5q42 5 69.5 6.5t52.5 1.5t50 -1t46 -3q3 -61 4.5 -118.5t1.5 -88.5
q45 4 80.5 7t71.5 7l10 -104l-162 -3q0 -58 -2 -124.5t-5 -119.5q53 2 110 3t102 1l-4 -107q-50 3 -103 6t-109 4q-1 -31 -3.5 -68.5t-5 -74.5t-6.5 -67zM320 248q26 2 59.5 3t58.5 1q0 44 -0.5 92t-1.5 89t-2 63h-134q6 -52 11 -113.5t9 -134.5z" />
    <glyph glyph-name="uni30F1" unicode="&#x30f1;" horiz-adv-x="911" 
d="M34 43l-4 112q64 4 139 7.5t181 6.5q0 92 3 176t7 141q13 1 37 1.5t47 0.5q24 0 50 -0.5t42 -1.5v-68q19 32 39 73.5t43 97.5q-71 0 -130.5 -2t-115 -7t-114 -12.5t-127.5 -19.5l-6 109q95 10 179.5 14.5t163.5 4.5q167 0 347 -21q-15 -85 -37 -164.5t-51 -152.5
q-48 5 -95.5 14.5t-95.5 23.5q0 -52 2 -109.5t5 -95.5q47 0 104.5 -0.5t117 -2.5t112.5 -5l4 -108q-90 11 -186 16t-191 5q-113 0 -225.5 -8t-244.5 -25z" />
    <glyph glyph-name="uni30F2" unicode="&#x30f2;" horiz-adv-x="760" 
d="M393 -47q-23 6 -58.5 15.5t-75 20.5t-74.5 21.5t-57 17.5q246 197 325 369q-105 -7 -196.5 -21.5t-174.5 -35.5l-14 118q116 20 212 30t178 12l12 -71q21 50 38.5 103.5t32.5 112.5q-139 -6 -263.5 -18.5t-241.5 -32.5l-6 126q107 6 196.5 9.5t174.5 3.5q78 0 158 -3
t171 -8q0 -102 -24.5 -208.5t-69.5 -209t-106.5 -192.5t-136.5 -159z" />
    <glyph glyph-name="uni30F3" unicode="&#x30f3;" horiz-adv-x="791" 
d="M30 552l6 164q56 -3 118 -8.5t121.5 -13t105.5 -16.5l-20 -126q-78 3 -164 3q-84 0 -167 -3zM230 -31q-43 44 -81.5 89.5t-73.5 91.5q182 108 329 224t256 237l101 -78q-227 -365 -531 -564z" />
    <glyph glyph-name="uni30F4" unicode="&#x30f4;" horiz-adv-x="884" 
d="M449 -58q-111 22 -232 80q113 92 183.5 175t106 167.5t41.5 179.5q-49 4 -90 5.5t-77 1.5q-88 0 -169 -9q0 -70 3 -134t10 -126q-40 3 -91.5 6t-98.5 5q-1 23 -2 60t-1.5 82t-1 91t-0.5 87q80 5 148.5 7.5t107.5 2.5q-3 79 -13 182q40 3 93 4.5t129 1.5q0 -44 -3 -90
t-8 -94l84 -2l3 -72l162 8q-5 -119 -37 -224t-92.5 -201.5t-154.5 -193.5zM755 595q-4 52 -9 102.5t-12 98.5l126 11q5 -43 8 -92.5t6 -110.5zM598 585l-15 204l117 7q6 -56 11 -108t8 -93z" />
    <glyph glyph-name="uni30F5" unicode="&#x30f5;" horiz-adv-x="639" 
d="M600 -95q-25 0 -73.5 1.5t-110.5 4.5q12 125 19.5 227.5t11.5 192.5q-40 3 -78 3h-25q-47 -183 -85 -426q-45 4 -90 9.5t-89 11.5q38 192 101 395q-34 -3 -71.5 -8t-79.5 -13v81q50 5 98.5 7.5t76.5 2.5q15 45 30 88.5t30 84.5q33 -6 66.5 -13t66.5 -16l-37 -139
q12 0 41 -1.5t67 -3t74.5 -4t63.5 -5.5q1 -19 1.5 -58.5t0.5 -79.5q0 -79 -2 -166t-7 -176z" />
    <glyph glyph-name="uni30F6" unicode="&#x30f6;" horiz-adv-x="696" 
d="M413 -112q-58 16 -105.5 29t-87.5 24q173 182 194 378q-12 0 -35 -0.5t-50.5 -1.5t-53 -2t-41.5 -2q-12 -28 -25 -60.5t-32 -82.5q-35 11 -72 20.5t-75 16.5q25 102 62 196.5t85 180.5q44 -16 83.5 -33t74.5 -34q-43 -78 -69 -135q146 9 396 9l4 -88q-24 3 -51 6t-57 5
q-21 -251 -145 -426z" />
    <glyph glyph-name="uni30F7" unicode="&#x30f7;" horiz-adv-x="945" 
d="M809 591q-11 74 -21.5 132t-21.5 103l120 24q11 -49 23.5 -106t25.5 -125zM644 561q-9 62 -18.5 122.5t-18.5 113.5l119 23q14 -73 24 -130t17 -105zM493 -24q-68 18 -126.5 39t-107.5 46q97 99 158.5 192t92.5 189.5t36 206.5q-33 2 -68 3t-73 1q-53 0 -104 -1.5
t-89 -4.5q0 -101 2 -165.5t7 -115.5q-20 -1 -52.5 -1.5t-67 -1t-63.5 -0.5q-4 42 -6 89t-2 99q0 43 1.5 82.5t3.5 78.5q78 8 163 11.5t173 3.5q112 0 217 -6l34 -197l108 22q-4 -65 -23.5 -138.5t-51 -149.5t-73 -148t-89.5 -134z" />
    <glyph glyph-name="uni30F8" unicode="&#x30f8;" horiz-adv-x="930" 
d="M600 -44q-38 0 -82.5 1.5t-94.5 3.5q3 63 5 118t2 88q-166 -8 -389 -42l-11 111l106 5q2 32 2.5 68t0.5 64q0 29 -0.5 65.5t-2.5 59.5l-65 3l6 102q101 -10 187.5 -15t158.5 -5q-3 47 -7 99.5t-9 110.5q41 5 67.5 6.5t51.5 1.5q24 0 48.5 -1t44.5 -3q3 -61 4.5 -118
t1.5 -88h13l-3 -64l146 2l3 -27l-159 -3q0 -57 -2 -123.5t-5 -118.5q52 2 108 3t100 1l-4 -106q-49 3 -100.5 6t-106.5 4q-1 -31 -3.5 -68.5t-5 -74t-6.5 -66.5zM661 552q5 85 6.5 134.5t1.5 89.5l108 -2q0 -37 -1 -78t-2 -78t-3 -62zM802 552q2 47 3 105t1 117l108 -3
q6 -99 6 -215zM313 249q25 2 57.5 3t57.5 1q0 44 -0.5 91.5t-1.5 88t-2 62.5h-131q6 -52 11 -113t9 -133z" />
    <glyph glyph-name="uni30F9" unicode="&#x30f9;" horiz-adv-x="938" 
d="M807 574l-27 228l113 14q7 -32 13.5 -72t12.5 -79.5t9 -71.5zM653 554q-5 64 -11 123.5t-11 105.5l116 16q11 -83 16.5 -134.5t9.5 -94.5zM34 55l-4 109q62 4 136 7t179 7q0 89 3 169.5t7 132.5q15 1 39.5 1.5t47.5 0.5t47.5 -0.5t39.5 -1.5v-65q17 26 35 63t46 101
q-83 0 -160.5 -4t-155.5 -13t-165 -23l-6 104q183 18 341 18q32 0 66.5 -1t81.5 -3l15 -136l156 19q-25 -106 -66 -201q-88 9 -188 36q0 -56 1.5 -105t5.5 -90q78 0 161.5 -2t176.5 -6l-6 -103q-85 7 -151 11.5t-120.5 6.5t-104.5 2q-97 0 -205.5 -8t-252.5 -26z" />
    <glyph glyph-name="uni30FA" unicode="&#x30fa;" horiz-adv-x="869" 
d="M733 553q0 86 -9 248l119 5q5 -61 9.5 -127.5t6.5 -113.5zM573 546q0 37 -0.5 84t-1.5 91.5t-2 72.5l119 7q3 -38 5 -82.5t3 -87.5t1 -77zM368 -45l-255 80q242 191 322 361q-101 -6 -191 -18.5t-171 -32.5l-12 118q96 15 191.5 24t189.5 11l10 -70q22 49 40 102t32 111
q-265 -7 -489 -42l-5 125q153 6 312 6q56 0 105.5 -1t93.5 -3l8 -208l136 5q-24 -106 -69.5 -208.5t-108.5 -194.5t-139 -165z" />
    <glyph glyph-name="uni30FB" unicode="&#x30fb;" horiz-adv-x="512" 
d="M356 270q-62 0 -114.5 1t-84.5 2q-4 50 -5.5 102.5t-1.5 110.5q27 2 64.5 3t77 1.5t70.5 0.5q0 -21 -1 -58.5t-2 -81t-3 -81.5z" />
    <glyph glyph-name="uni30FC" unicode="&#x30fc;" horiz-adv-x="793" 
d="M758 316q-43 7 -127.5 10t-220.5 3q-81 0 -144 -1t-117 -3.5t-109 -7.5l-10 113q145 19 256.5 27.5t211.5 8.5q60 0 125.5 -3t139.5 -9z" />
    <glyph glyph-name="uni30FD" unicode="&#x30fd;" horiz-adv-x="625" 
d="M312 34q-45 134 -101.5 235t-130.5 177l91 82q81 -44 142.5 -101.5t108.5 -133.5t83 -176q-69 -40 -193 -83z" />
    <glyph glyph-name="uni30FE" unicode="&#x30fe;" horiz-adv-x="749" 
d="M312 34q-45 134 -101.5 235t-130.5 177l91 82q81 -44 142.5 -101.5t108.5 -133.5t83 -176q-69 -40 -193 -83zM596 409l-53 224l116 27q16 -52 32 -111.5t28 -105.5zM436 371l-48 225l116 29q11 -46 23.5 -99.5t28.5 -124.5z" />
    <glyph glyph-name="uni30FF" unicode="&#x30ff;" horiz-adv-x="700" 
d="M414 -39q0 35 2.5 89t6.5 119t9.5 134.5t11 136.5t12 124t11.5 96q-36 0 -84 -1t-100 -3t-101 -5t-89 -5.5t-63 -5.5q0 18 1.5 40t4 41.5t4.5 28.5q49 0 115 -1t138.5 -3t142 -5t126 -5.5t88.5 -5.5q-2 -27 -4.5 -84t-5 -132t-5 -157t-4.5 -160.5t-3 -143t-1 -103.5
q-36 0 -78.5 1.5t-79 4t-55.5 5.5z" />
    <glyph glyph-name="uni31F0" unicode="&#x31f0;" horiz-adv-x="645" 
d="M469 -104q-48 11 -97.5 24t-100.5 26q4 13 18.5 48.5t34.5 85t43.5 104.5t46.5 108t42 95q-28 5 -64 11t-82 12l-128 -231q-84 35 -152 71q60 95 121 177t121 149l104 -53l-22 -37q132 -19 261 -60q-38 -129 -75 -262.5t-71 -267.5z" />
    <glyph glyph-name="uni31F1" unicode="&#x31f1;" horiz-adv-x="666" 
d="M298 398q-124 27 -236 34l24 113q119 -21 232 -61zM264 -108q-10 6 -31 21.5t-45.5 34t-46 36t-32.5 27.5q85 57 156.5 122.5t138 147t135.5 187.5l97 -52q-43 -108 -95.5 -198.5t-120 -170t-156.5 -155.5zM30 232l4 115q65 0 122 -5t119 -16l-10 -90z" />
    <glyph glyph-name="uni31F2" unicode="&#x31f2;" horiz-adv-x="700" 
d="M545 -116q-46 117 -138 258q-109 -133 -243 -249q-83 73 -134 134q308 242 393 405q-56 -1 -121 -6t-124 -11t-98 -14l-6 96q41 2 82.5 3.5t83.5 1.5q191 0 354 -23q-31 -79 -64 -143.5t-70 -115.5q57 -58 109.5 -124t100.5 -142z" />
    <glyph glyph-name="uni31F3" unicode="&#x31f3;" horiz-adv-x="507" 
d="M225 -104q-24 0 -57.5 0.5t-63 1.5t-44.5 1q0 384 -30 655q50 3 99.5 4.5t88.5 1.5q2 -26 3.5 -63t3 -76t2.5 -73.5t1 -57.5l50 56q61 -32 111.5 -66.5t87.5 -69.5l-82 -92q-20 19 -49.5 42t-60.5 45t-57 37v-87t-0.5 -103.5t-1 -94.5t-1.5 -61z" />
    <glyph glyph-name="uni31F4" unicode="&#x31f4;" horiz-adv-x="674" 
d="M179 -98q-88 50 -149 105q62 53 105 91t73.5 68t53.5 57q-28 23 -48.5 38t-34.5 25l56 66q33 -22 52.5 -35.5t33.5 -25.5q29 35 52.5 67.5t41.5 63.5q-48 3 -102 3q-58 0 -116 -3t-108 -10l-5 92q38 0 91.5 -2t113 -6t116 -8t101.5 -9t70 -9q-24 -66 -59 -129.5
t-85 -132.5q49 -41 100 -90.5t112 -116.5l-106 -93q-44 62 -87.5 115t-81.5 93q-45 -62 -94 -117t-96 -97z" />
    <glyph glyph-name="uni31F5" unicode="&#x31f5;" horiz-adv-x="722" 
d="M502 -26q-8 119 -23.5 243.5t-38.5 253.5q44 7 77.5 11.5t64.5 8.5q34 -109 61.5 -232.5t48.5 -265.5q-48 -7 -95.5 -11.5t-94.5 -7.5zM216 -27q-57 5 -102.5 10.5t-83.5 10.5q26 264 86 483q41 -4 77.5 -8.5t69.5 -10.5q-19 -126 -30.5 -247.5t-16.5 -237.5z" />
    <glyph glyph-name="uni31F6" unicode="&#x31f6;" horiz-adv-x="613" 
d="M358 -82q-96 0 -159.5 19t-100.5 64t-52.5 122t-15.5 194q0 50 2.5 108t7.5 125q65 0 115.5 -1.5t80.5 -6.5q-7 -89 -10.5 -150.5t-5.5 -99.5q147 38 309 92l21 -101q-73 -20 -150.5 -38t-159.5 -33l-21 43q0 -96 14 -153t45 -82.5t81 -25.5q25 0 61 5t73.5 14t68.5 19
l21 -91q-67 -13 -120 -18t-105 -5z" />
    <glyph glyph-name="uni31F7" unicode="&#x31f7;" horiz-adv-x="668" 
d="M332 -104q-46 20 -93 46.5t-95 57.5q91 76 154.5 143.5t105 134.5t66.5 140q-62 0 -138 -4.5t-153 -12t-143 -18.5l-6 101q80 4 149 5.5t132 1.5q86 0 165.5 -3.5t161.5 -10.5q-53 -332 -306 -581z" />
    <glyph glyph-name="uni31F8" unicode="&#x31f8;" horiz-adv-x="818" 
d="M680 -7q-106 82 -201 160.5t-174 151.5q-37 -44 -87 -93t-121 -112l-67 89q19 13 50 36.5t67 52.5t72.5 59t67 57t49.5 45q91 -68 205 -142t247 -153q-23 -39 -50 -77t-58 -74z" />
    <glyph glyph-name="uni31F9" unicode="&#x31f9;" horiz-adv-x="709" 
d="M360 -94q-45 0 -75 3q-3 54 -6 117t-5 124.5t-3.5 112.5t-1.5 82l-228 -3l5 91q73 -7 126.5 -10t95.5 -5q0 48 1.5 95.5t2.5 69.5l161 -4l-6 -157q47 3 101.5 7.5t112.5 11.5l8 -83q-57 -3 -113 -5t-109 -4q0 -46 0.5 -107.5t1.5 -125.5t2 -119t2 -87q-14 -1 -33.5 -2.5
t-39.5 -1.5zM529 -58q-1 13 -5 45.5t-9.5 74.5l-11 84t-10 75.5t-7.5 48.5l134 18q22 -85 37 -166.5t22 -161.5q-67 -12 -150 -18zM186 -63q-34 0 -79 3t-77 7q5 83 13.5 164t21.5 160q26 0 63 -2t73 -6q-1 -16 -3 -47.5t-3.5 -71.5t-3.5 -80.5t-3 -74t-2 -52.5z" />
    <glyph glyph-name="uni31FA" unicode="&#x31fa;" horiz-adv-x="693" 
d="M506 -81l-21 73q-58 -13 -136 -24t-161 -18.5t-158 -9.5q20 95 39 172t39.5 144.5t43.5 131.5t51 132q54 -9 98.5 -18t84.5 -18q-16 -38 -36.5 -90t-42 -109t-40.5 -110t-32 -93t-18 -58q69 5 130.5 15.5t116.5 26.5q-24 78 -45 141q32 11 67 20t74 16q24 -53 49.5 -124
t53.5 -163q-67 -23 -157 -37z" />
    <glyph glyph-name="uni31FB" unicode="&#x31fb;" horiz-adv-x="624" 
d="M64 455l9 87q110 -7 230.5 -10.5t247.5 -3.5l3 -69zM349 -119q-127 37 -209 72q57 42 111 98t99.5 118t75.5 122q-211 -11 -377 -54l-19 100q122 14 241.5 22t225.5 8q28 0 52.5 -0.5t44.5 -1.5q-25 -146 -88 -270.5t-157 -213.5z" />
    <glyph glyph-name="uni31FC" unicode="&#x31fc;" horiz-adv-x="485" 
d="M337 -110q-45 11 -87 22.5t-92 26.5q57 66 92 125t51 123t16 144q0 46 -5 98t-14 115q41 2 77.5 4t61.5 6q18 -129 18 -236q0 -136 -29 -240t-89 -188zM172 224q-24 2 -59.5 3t-82.5 1q0 100 4 174.5t13 141.5q31 -4 68 -6.5t61 -2.5q-3 -53 -5 -107.5t-2 -103.5
q0 -56 3 -100z" />
    <glyph glyph-name="uni31FD" unicode="&#x31fd;" horiz-adv-x="797" 
d="M382 -25q2 37 2.5 85.5t0.5 90.5q0 104 -3.5 179.5t-9.5 129.5l169 18q4 -52 6 -103t2 -100q0 -48 -2 -99t-6 -105q50 11 101.5 27.5t97.5 36.5l27 -98q-97 -25 -188 -40t-197 -22zM227 -51q-42 5 -91.5 16t-105.5 30q37 66 61.5 137.5t39.5 155t22 186.5l146 -6
q-5 -154 -23 -284.5t-49 -234.5z" />
    <glyph glyph-name="uni31FE" unicode="&#x31fe;" horiz-adv-x="620" 
d="M55 -81q-13 109 -19 255t-6 342q28 2 57 2.5t54 0.5q48 0 66 -3q-9 -169 -9 -299q0 -46 1.5 -90.5t3.5 -87.5q177 65 327 194l60 -95q-119 -82 -258.5 -139t-276.5 -80z" />
    <glyph glyph-name="uni31FF" unicode="&#x31ff;" horiz-adv-x="709" 
d="M68 -30q-4 110 -14 229.5t-24 234.5q44 6 87 10t87 6l2 -31q105 13 222 19t251 6q-3 -82 -7.5 -164.5t-10.5 -158t-13 -138.5h-149l1 23q-34 2 -71 3t-68 1q-37 0 -73.5 -1.5t-67.5 -4.5l-1 -25q-41 -1 -79 -3t-72 -6zM221 76q43 4 115 6t169 2q3 56 3.5 92t0.5 64
q0 27 -0.5 55.5t-2.5 67.5q-85 0 -156.5 -3.5t-140.5 -11.5q1 -12 2.5 -40t3 -64t3 -71t2.5 -61.5t1 -35.5z" />
    <glyph glyph-name="uni4E00" unicode="&#x4e00;" 
d="M439 276q-124 0 -218 3t-163 10l-8 145q23 -1 58.5 -1.5t77.5 -0.5q129 0 263.5 6.5t260 18.5t226.5 27l14 -188q-89 -10 -218 -15t-293 -5z" />
    <glyph glyph-name="uni4E03" unicode="&#x4e03;" 
d="M51 399l-8 99q96 0 190 4q1 37 3 84.5t6 97.5t9 94l258 -10q-18 -158 -26 -245q120 14 230.5 36.5t209.5 52.5l34 -133q-81 -19 -203 -34t-278 -26q-1 -24 -1 -45q0 -153 55.5 -225.5t173.5 -72.5q50 0 111 11t109 29l15 -107q-25 -7 -68.5 -13t-92 -9.5t-89.5 -3.5
q-206 0 -321 107.5t-132 315.5q-89 -4 -185 -7z" />
    <glyph glyph-name="uni4E07" unicode="&#x4e07;" 
d="M213 -33l-115 45q49 114 93 235.5t78 237t54 210.5l-255 -4l4 102l857 -14l3 -74l-362 -6q-10 -32 -26.5 -75.5t-37.5 -92.5l358 -4q0 -76 -4.5 -166.5t-13.5 -187t-21 -189.5l-342 19l5 76l136 5q21 115 31.5 198.5t14.5 156.5l-196 18q-31 -68 -66 -139.5t-70 -138
t-67 -121.5t-58 -91z" />
    <glyph glyph-name="uni4E09" unicode="&#x4e09;" 
d="M488 620q-89 0 -179.5 3t-179.5 8l4 100q75 -3 153 -3q145 0 284.5 10.5t267.5 29.5l13 -133q-78 -7 -171 -11t-192 -4zM386 323q-130 0 -223 3l10 127q66 -7 165.5 -11.5t211.5 -4.5q92 0 162.5 3t115.5 8l6 -115q-25 -2 -73.5 -4t-111 -3.5t-130.5 -2t-133 -0.5z
M920 -8q-118 11 -236.5 16.5t-231.5 5.5q-104 0 -198.5 -4.5t-176.5 -14.5l-8 109q167 16 330.5 24.5t310.5 8.5q121 0 221 -6z" />
    <glyph glyph-name="uni4E0A" unicode="&#x4e0a;" 
d="M944 -57q-101 13 -217 19.5t-235 6.5q-112 0 -222.5 -5.5t-215.5 -16.5l-9 90q71 4 155.5 8t177.5 7q-1 100 -6 208t-13.5 210t-19 186t-22.5 135l264 27q2 -35 3 -76t1 -91q0 -70 -1 -145q72 5 162 7.5t173 2.5l-11 -114q-51 8 -135.5 12.5t-191.5 6.5q-3 -105 -8 -200
t-12 -164q100 3 200 4t194 1z" />
    <glyph glyph-name="uni4E0B" unicode="&#x4e0b;" 
d="M361 -50q-4 53 -6 115t-2 126q0 92 4 184.5t11.5 175.5t17.5 148q-159 -12 -324 -35l-15 114q48 5 118.5 9.5t156 7.5t178 5t183.5 2q84 0 152.5 -1.5t117.5 -4.5l-8 -91q-96 9 -216 9q-74 0 -155 -3q-2 -71 -3 -120t-1 -94v-3l80 88q36 -19 76.5 -44.5t80 -53t71 -53
t48.5 -44.5l-120 -127q-20 20 -49 45t-62.5 51t-66 49.5t-58.5 40.5q3 -248 33 -486z" />
    <glyph glyph-name="uni4E2D" unicode="&#x4e2d;" 
d="M66 204q0 153 3 260.5t8 177.5l326 -2l6 183l182 3l6 -187l327 -2q2 -27 3.5 -75.5t3 -108.5t2.5 -123.5t1 -119.5l-323 -2l9 -272l-240 3l9 267zM254 286l137 1l9 272l-152 2q0 -27 0.5 -66t1.5 -79.5t2 -75t2 -54.5zM753 556l-153 2l9 -269l137 1q2 39 3.5 88.5
t2.5 97.5t1 80z" />
    <glyph glyph-name="uni4E38" unicode="&#x4e38;" 
d="M119 -64l-81 63q94 141 165 301q-49 57 -98 97l40 46q47 -18 97 -47q30 78 53 158l-212 7l9 66l224 4q24 96 38 193l192 -50q-10 -63 -34 -140l259 5q0 -154 12 -266t34 -174t53 -66l36 99l56 -18l-63 -278q-112 20 -181 88t-100.5 195t-31.5 325l-105 4
q-45 -119 -109 -242q65 -54 120 -118t89 -129l-171 -111q-21 58 -50 115.5t-63 110.5q-43 -70 -88.5 -131t-89.5 -107z" />
    <glyph glyph-name="uni4E5D" unicode="&#x4e5d;" 
d="M125 -56l-87 58q67 124 120 257.5t88 261.5l-179 4l5 72l194 4q26 116 34 215l222 -25q-6 -44 -16 -91t-24 -95l280 6q-6 -38 -9.5 -80t-3.5 -85q0 -135 34.5 -216.5t93.5 -85.5l36 82l49 -19l-31 -261q-130 9 -212.5 54.5t-121.5 133.5t-39 223q0 33 2.5 71.5t8.5 86.5
l-115 2q-38 -109 -90 -216t-113.5 -199.5t-125.5 -157.5z" />
    <glyph glyph-name="uni4E8C" unicode="&#x4e8c;" 
d="M508 545q-88 0 -180 5t-185 15l5 106q42 -2 80.5 -3t75.5 -1q151 0 277.5 13t250.5 41l25 -151q-73 -12 -161 -18.5t-188 -6.5zM88 39l-34 146q98 15 207.5 22.5t222.5 7.5q119 0 236.5 -8t225.5 -25l-7 -108q-64 4 -128 5.5t-125 1.5q-161 0 -306.5 -10.5t-291.5 -31.5z
" />
    <glyph glyph-name="uni4E94" unicode="&#x4e94;" 
d="M56 -14l-4 71q73 7 159 13q7 54 24 135t38 167q-59 -7 -109 -16l-9 107q74 3 142 6q15 60 30 113t28 92q-67 1 -122 2.5t-101 4.5l9 93q82 -9 172.5 -15.5t183.5 -10t180 -3.5q39 0 78.5 1t76.5 2v-72q-39 -2 -101 -3t-151 -1h-54q-10 -47 -20 -96.5t-20 -100.5
q82 3 161 4t155 1q12 -74 19 -174.5t8 -205.5q60 1 119 2l-5 -107q-77 3 -165.5 4.5t-181.5 1.5q-148 0 -285 -3.5t-255 -11.5zM626 404q-80 -5 -155 -11q-14 -85 -26 -164.5t-20 -144.5q98 5 201 9l2 88t1 83q0 71 -3 140z" />
    </font>
</defs>
</svg>
