<svg xmlns="http://www.w3.org/2000/svg">
<defs>
<font id="OneSlice" horiz-adv-x="900" >
  <font-face 
    font-family="One Slice"
    font-weight="400"
    font-stretch="normal"
    units-per-em="2048"
    panose-1="2 0 5 0 0 0 0 0 0 0"
    ascent="1638"
    descent="-410"
    x-height="1400"
    cap-height="1400"
    bbox="-200 -300 1400 1600"
    underline-thickness="150"
    underline-position="-292"
    unicode-range="U+001D-007E"
  />
<missing-glyph horiz-adv-x="1500" 
d="M676 1396h32q350 0 580 -324q108 -177 108 -356v-40q0 -338 -324 -572q-180 -104 -352 -104h-32q-350 0 -580 324q-108 177 -108 356v40q0 338 324 572q180 104 352 104zM96 880h4q688 -4 1084 -4h116q-92 262 -296 368q-142 80 -292 80h-32q-308 0 -512 -288
q-40 -62 -72 -156zM664 1252l28 -28l32 28q6 0 28 -28v-4q-24 -26 -24 -28v-4q0 -6 28 -28q0 6 28 28h4q6 0 28 -28v-4q0 -6 -28 -28h-4l-32 28l-24 -28l24 -28v-8q0 -6 -28 -28l-32 28l-28 -24h-4q-6 0 -28 28l28 32q-25 28 -28 28l-32 -28q-6 0 -28 28v4q0 6 28 28l32 -28
l28 32q-6 0 -28 28q0 5 32 32zM692 1220l-28 -32l32 -28q0 2 24 28v4q0 6 -28 28zM692 1156l-28 -32q26 -24 28 -24q6 0 28 28q0 6 -28 28zM320 1008h12q22 0 28 -16l-8 -12q-22 4 -32 4q-16 -4 -16 -24q0 -17 20 -24q26 8 28 8l8 -12v-4q0 -8 -32 -16q-52 9 -52 48
q8 48 44 48zM380 1008h12q8 -1 8 -8v-28h28v28q1 8 8 8h12q8 -1 8 -8v-76q0 -8 -8 -8h-12q-8 0 -8 8v24h-28v-24q0 -8 -8 -8h-12q-8 0 -8 8v76q1 8 8 8zM476 1008h56q8 -1 8 -8v-8q0 -8 -8 -8h-36v-12h36q8 -1 8 -8v-8q0 -8 -8 -8l-8 4l-8 -4l-20 4v-12h40q8 -1 8 -8v-8
q0 -8 -8 -8h-60q-8 0 -8 8v76q1 8 8 8zM600 1008q52 -7 52 -44l-8 -32q8 -1 8 -8q0 -6 -16 -16q-10 8 -12 8q-22 -4 -32 -4q-33 0 -44 48q0 42 52 48zM668 1008h12q8 -1 8 -8v-40q3 -24 12 -24h8q6 0 12 12v56h28v-52q-5 -40 -40 -40h-8q-36 0 -40 48v40q1 8 8 8zM772 1008
l24 -4q8 4 12 4q7 -4 16 -4q0 4 4 4l4 -8v-12l-4 -8l-20 4h-20v-12h36q8 -1 8 -8v-8q0 -8 -8 -8h-36v-12h40q8 -1 8 -8v-4q0 -8 -40 -12q-36 4 -36 12v72q0 6 12 12zM852 1008q76 0 76 -32q-3 -28 -20 -28l20 -28v-8h-20q-3 0 -32 32h-4v-28h-20q-8 0 -8 8q0 4 4 4l-4 28

<glyph glyph-name=".notdef" horiz-adv-x="1500" 
d="M676 1396h32q350 0 580 -324q108 -177 108 -356v-40q0 -338 -324 -572q-180 -104 -352 -104h-32q-350 0 -580 324q-108 177 -108 356v40q0 338 324 572q180 104 352 104zM96 880h4q688 -4 1084 -4h116q-92 262 -296 368q-142 80 -292 80h-32q-308 0 -512 -288
q-40 -62 -72 -156zM664 1252l28 -28l32 28q6 0 28 -28v-4q-24 -26 -24 -28v-4q0 -6 28 -28q0 6 28 28h4q6 0 28 -28v-4q0 -6 -28 -28h-4l-32 28l-24 -28l24 -28v-8q0 -6 -28 -28l-32 28l-28 -24h-4q-6 0 -28 28l28 32q-25 28 -28 28l-32 -28q-6 0 -28 28v4q0 6 28 28l32 -28
l28 32q-6 0 -28 28q0 5 32 32zM692 1220l-28 -32l32 -28q0 2 24 28v4q0 6 -28 28zM692 1156l-28 -32q26 -24 28 -24q6 0 28 28q0 6 -28 28zM320 1008h12q22 0 28 -16l-8 -12q-22 4 -32 4q-16 -4 -16 -24q0 -17 20 -24q26 8 28 8l8 -12v-4q0 -8 -32 -16q-52 9 -52 48
q8 48 44 48zM380 1008h12q8 -1 8 -8v-28h28v28q1 8 8 8h12q8 -1 8 -8v-76q0 -8 -8 -8h-12q-8 0 -8 8v24h-28v-24q0 -8 -8 -8h-12q-8 0 -8 8v76q1 8 8 8zM476 1008h56q8 -1 8 -8v-8q0 -8 -8 -8h-36v-12h36q8 -1 8 -8v-8q0 -8 -8 -8l-8 4l-8 -4l-20 4v-12h40q8 -1 8 -8v-8
q0 -8 -8 -8h-60q-8 0 -8 8v76q1 8 8 8zM600 1008q52 -7 52 -44l-8 -32q8 -1 8 -8q0 -6 -16 -16q-10 8 -12 8q-22 -4 -32 -4q-33 0 -44 48q0 42 52 48zM668 1008h12q8 -1 8 -8v-40q3 -24 12 -24h8q6 0 12 12v56h28v-52q-5 -40 -40 -40h-8q-36 0 -40 48v40q1 8 8 8zM772 1008
l24 -4q8 4 12 4q7 -4 16 -4q0 4 4 4l4 -8v-12l-4 -8l-20 4h-20v-12h36q8 -1 8 -8v-8q0 -8 -8 -8h-36v-12h40q8 -1 8 -8v-4q0 -8 -40 -12q-36 4 -36 12v72q0 6 12 12zM852 1008q76 0 76 -32q-3 -28 -20 -28l20 -28v-8h-20q-3 0 -32 32h-4v-28h-20q-8 0 -8 8q0 4 4 4l-4 28
q0 29 8 52zM948 1004h56q8 -1 8 -8v-8q0 -8 -8 -8h-36v-8h32q8 -1 8 -8v-8q0 -8 -8 -8h-32v-12h36q8 -1 8 -8v-8q0 -8 -8 -8h-56q-8 0 -8 8v76q1 8 8 8zM1032 1004h40q36 0 40 -48q0 -42 -64 -44h-16q-8 0 -8 8v76q1 8 8 8zM576 956q6 -20 28 -20q20 6 20 28q-8 18 -16 20
h-16q-16 -6 -16 -28zM872 984v-20h20q8 0 8 8v4q0 8 -8 8h-20zM1052 980v-44h4q22 0 28 16v16q0 6 -12 12h-20zM208 680v-8q13 -68 64 -68h40q20 10 20 32v16q-16 0 -16 20q0 38 84 44h8v-4q-78 -248 -96 -248h-8q-9 0 -12 20q0 7 20 44q-20 36 -52 36h-12q-64 -9 -64 -64
v-8q0 -58 72 -84q21 -4 40 -4h16q125 0 164 172q24 53 84 228q-19 12 -52 12h-24q-24 0 -76 -44l-164 -36q-36 -25 -36 -56zM796 460l-4 8v12q0 19 32 136q-10 40 -44 40h-28q-23 0 -60 -20l-4 8l4 8q-16 8 -44 8h-40q-39 0 -52 -60q-40 -114 -60 -192q24 -12 68 -12
q60 0 60 60q41 132 56 132h20q8 -1 8 -8q-36 -93 -36 -124v-8q0 -39 56 -48q45 0 96 32h8v-12l-4 -8q16 -16 56 -16q68 0 68 32q22 160 76 160h12q8 -1 8 -8v-4q0 -27 -52 -52l-4 -20q0 -104 84 -104q87 0 144 108l-16 12h-8q-31 -60 -88 -60q-24 10 -24 36v16q64 34 64 56
q9 0 12 36v8q0 41 -60 48q-16 0 -84 -24v4q0 13 56 160q-19 12 -60 12h-36q-30 0 -40 -68q-11 -12 -80 -236q-45 -48 -60 -48zM208 312v-4q203 -236 476 -236h32q268 0 468 228l4 8q-502 4 -748 4h-232zM524 244h28v-8h-28v-20h28v-8h-28v-16h32v-8h-32q-8 0 -8 8v44
q1 8 8 8zM580 244h20q8 -1 8 -8v-4l-20 4h-4q-8 -1 -8 -8v-8q30 0 40 -20q-6 -20 -28 -20q-20 5 -20 12v4h4q13 -8 20 -8l16 8q0 10 -36 20l-4 8v8q0 6 12 12zM620 244h40v-8h-16v-48h-8v48h-16v8zM716 244q20 -3 20 -12v-12q0 -10 -36 -16l-4 -8q1 -8 8 -8h28v-8h-32
q-10 0 -12 16q6 20 28 20h12q0 4 4 12l-12 8h-12l-12 -8h-4v4q4 12 24 12zM772 244h4q6 0 16 -16v-32q-6 -16 -28 -16q-20 6 -20 28v8q0 28 28 28zM848 244h32v-8h-32v-16h24q8 -2 16 -20q-6 -20 -28 -20q-20 3 -20 12v4h4l12 -8h12q6 0 12 12q0 11 -40 16v20q1 8 8 8z
M752 224v-24q0 -6 12 -12h8q6 0 12 12v24q0 6 -12 12h-8q-6 0 -12 -12zM808 240h12v-52h8v-8h-20l4 20v20z" />
    <glyph glyph-name=".null" horiz-adv-x="0" 
 />
    <glyph glyph-name=".null" horiz-adv-x="0" 
 />
    <glyph glyph-name="nonmarkingreturn" horiz-adv-x="508" 
 />
    <glyph glyph-name="space" unicode=" " horiz-adv-x="300" 
 />
    <glyph glyph-name="space" unicode="&#xa0;" horiz-adv-x="300" 
 />
    <glyph glyph-name="exclam" unicode="!" horiz-adv-x="400" 
d="M0 400v1000h400q-100 -100 -100 -200v-800h-300zM300 300v-300h-400q100 100 100 200v100h300z" />
    <glyph glyph-name="quotedbl" unicode="&#x22;" horiz-adv-x="800" 
d="M300 1100l-400 -300q100 100 100 200v400h300v-300zM700 1100l-400 -300q100 100 100 200v400h300v-300z" />
    <glyph glyph-name="numbersign" unicode="#" horiz-adv-x="1000" 
d="M400 0q100 100 100 200v100h-100v-300zM400 800v-200h100v200h-100zM500 1400q-100 -100 -100 -200v-100h100v300zM100 600v200h-100v300h100v300h800q-100 -100 -100 -200v-100h100v-300h-100v-200h100v-300h-100v-300h-800q100 100 100 200v100h-100v300h100z" />
    <glyph glyph-name="dollar" unicode="$" 
d="M250 1382v118h300v-118q250 -66 250 -382v-100h-400l100 100q0 100 -100 100t-100 -100t245 -215t255 -385q0 -316 -250 -382v-118h-300v118q-250 66 -250 382v100h400l-100 -100q0 -100 100 -100t100 100t-250 215t-250 385q0 316 250 382z" />
    <glyph glyph-name="percent" unicode="%" horiz-adv-x="800" 
d="M304 1029q-46 -29 -104 -29q-83 0 -141.5 58.5t-58.5 141.5t58.5 141.5t141.5 58.5t142 -58q29 -30 44 -66l41 124h473q-151 -70 -228 -194l-276 -835q46 29 104 29q83 0 141.5 -58.5t58.5 -141.5t-58.5 -141.5t-141.5 -58.5t-141 59q-30 29 -45 65l-41 -124h-473
q151 70 228 194z" />
    <glyph glyph-name="ampersand" unicode="&#x26;" horiz-adv-x="1000" 
d="M300 400q0 -100 100 -100h100v250h-100q-100 0 -100 -100v-50zM400 0q-400 0 -400 400v50q0 155 60 250q-60 95 -60 250v50q0 400 400 400h300v-400q-100 100 -200 100h-100q-100 0 -100 -100v-50q0 -100 100 -100h100v50l300 100v-150h100v-300h-100v-225q50 25 100 75
v-400h-500z" />
    <glyph glyph-name="quotesingle" unicode="'" horiz-adv-x="400" 
d="M300 1100l-400 -300q100 100 100 200v400h300v-300z" />
    <glyph glyph-name="parenleft" unicode="(" horiz-adv-x="700" 
d="M400 200q100 0 200 100v-400h-300q-300 0 -300 300v1000q0 300 300 300h300v-400q-100 100 -200 100h-100v-1000h100z" />
    <glyph glyph-name="parenright" unicode=")" horiz-adv-x="700" 
d="M200 200h100v1000h-100q-100 0 -200 -100v400h300q300 0 300 -300v-1000q0 -300 -300 -300h-300v400q100 -100 200 -100z" />
    <glyph glyph-name="asterisk" unicode="*" 
d="M550 1150h50q100 0 200 100v-500q-100 100 -200 100h-50v-50q0 -100 100 -200h-500q100 100 100 200v50h-50q-100 0 -200 -100v500q100 -100 200 -100h50v50q0 100 -100 200h500q-100 -100 -100 -200v-50z" />
    <glyph glyph-name="plus" unicode="+" 
d="M550 850h50q100 0 200 100v-500q-100 100 -200 100h-50v-50q0 -100 100 -200h-500q100 100 100 200v50h-50q-100 0 -200 -100v500q100 -100 200 -100h50v50q0 100 -100 200h500q-100 -100 -100 -200v-50z" />
    <glyph glyph-name="comma" unicode="," horiz-adv-x="400" 
d="M300 0l-400 -300q100 100 100 200v400h300v-300z" />
    <glyph glyph-name="hyphen" unicode="-" horiz-adv-x="700" 
d="M400 850q100 0 200 100v-500q-100 100 -300 100t-300 -100v500q100 -100 200 -100h200z" />
    <glyph glyph-name="hyphen" unicode="&#xad;" horiz-adv-x="700" 
d="M400 850q100 0 200 100v-500q-100 100 -300 100t-300 -100v500q100 -100 200 -100h200z" />
    <glyph glyph-name="period" unicode="." horiz-adv-x="400" 
d="M300 0h-400q100 100 100 200v100h300v-300z" />
    <glyph glyph-name="slash" unicode="/" horiz-adv-x="800" 
d="M672 1206l-399 -1206h-473q151 70 228 194l399 1206h473q-151 -70 -228 -194z" />
    <glyph glyph-name="zero" unicode="0" 
d="M400 1100q-100 0 -100 -100v-600q0 -100 100 -100t100 100v600q0 100 -100 100zM0 1000q0 400 400 400t400 -400v-600q0 -400 -400 -400t-400 400v600z" />
    <glyph glyph-name="one" unicode="1" horiz-adv-x="400" 
d="M0 1200q0 100 -100 200h400v-1200q0 -100 100 -200h-400v1200z" />
    <glyph glyph-name="two" unicode="2" 
d="M500 400l-100 100h400v-500h-800v400q0 270 250 385t250 215t-100 100t-100 -100l100 -100h-400v100q0 400 400 400t400 -400q-10 -270 -255 -385t-245 -215v-100h200v100z" />
    <glyph glyph-name="three" unicode="3" horiz-adv-x="800" 
d="M200 1100q-100 0 -200 -100v400h300q400 0 400 -400v-50q0 -155 -60 -250q60 -95 60 -250v-50q0 -400 -400 -400h-300v400q100 -100 200 -100h100q100 0 100 100v50q0 100 -100 100h-200q0 200 -100 300h300q100 0 100 100v50q0 100 -100 100h-100z" />
    <glyph glyph-name="four" unicode="4" 
d="M0 1200q0 100 -100 200h400v-800h200v600q0 100 -100 200h400v-800h100q-100 -100 -100 -300v-100q0 -100 100 -200h-400v300h-500v900z" />
    <glyph glyph-name="five" unicode="5" 
d="M0 1200q0 100 -100 200h900v-400q-100 100 -200 100h-300v-155q46 5 100 5q400 0 400 -400v-150q0 -400 -400 -400q-377 0 -399 354q-30 61 -101 96h400v-50q0 -100 100 -100t100 100v150q0 100 -100 100t-100 -100l-300 100v550z" />
    <glyph glyph-name="six" unicode="6" 
d="M400 300q100 0 100 100v150q0 100 -100 100t-100 -100v-150q0 -100 100 -100zM800 1400v-400q-100 100 -200 100h-200q-100 0 -100 -100v-57q46 7 100 7q400 0 400 -400v-150q0 -400 -400 -400t-400 400v600q0 400 400 400h400z" />
    <glyph glyph-name="seven" unicode="7" horiz-adv-x="800" 
d="M200 1100q-100 0 -200 -100v400h900q-151 -70 -228 -194l-399 -1206h-473q151 70 228 194l300 906h-128z" />
    <glyph glyph-name="eight" unicode="8" 
d="M400 550q-100 0 -100 -100v-50q0 -100 100 -100t100 100v50q0 100 -100 100zM400 1400q400 0 400 -400v-50q0 -155 -60 -250q60 -95 60 -250v-50q0 -400 -400 -400t-400 400v50q0 155 60 250q-60 95 -60 250v50q0 400 400 400zM500 1000q0 100 -100 100t-100 -100v-50
q0 -100 100 -100t100 100v50z" />
    <glyph glyph-name="nine" unicode="9" 
d="M400 1100q-100 0 -100 -100v-150q0 -100 100 -100t100 100v150q0 100 -100 100zM0 0v400q100 -100 200 -100h200q100 0 100 100v57q-46 -7 -100 -7q-400 0 -400 400v150q0 400 400 400t400 -400v-600q0 -400 -400 -400h-400z" />
    <glyph glyph-name="colon" unicode=":" horiz-adv-x="400" 
d="M300 0h-400q100 100 100 200v100h300v-300zM300 724h-400q100 100 100 200v100h300v-300z" />
    <glyph glyph-name="semicolon" unicode=";" horiz-adv-x="400" 
d="M300 0l-400 -300q100 100 100 200v400h300v-300zM300 724h-400q100 100 100 200v100h300v-300z" />
    <glyph glyph-name="semicolon" unicode="&#x37e;" horiz-adv-x="400" 
d="M300 0l-400 -300q100 100 100 200v400h300v-300zM300 724h-400q100 100 100 200v100h300v-300z" />
    <glyph glyph-name="less" unicode="&#x3c;" horiz-adv-x="700" 
d="M400 200q100 0 200 100v-400h-300q-300 0 -300 300v1000q0 300 300 300h300v-400q-100 100 -200 100h-100v-1000h100z" />
    <glyph glyph-name="equal" unicode="=" horiz-adv-x="700" 
d="M600 1050v-400q-100 100 -300 100h-300v400q100 -100 200 -100h400zM600 650v-400q-100 100 -300 100h-300v400q100 -100 200 -100h400z" />
    <glyph glyph-name="greater" unicode="&#x3e;" horiz-adv-x="700" 
d="M200 200h100v1000h-100q-100 0 -200 -100v400h300q300 0 300 -300v-1000q0 -300 -300 -300h-300v400q100 -100 200 -100z" />
    <glyph glyph-name="question" unicode="?" 
d="M300 1000l100 -100h-400v100q0 400 400 400t400 -400q-10 -230 -155 -365t-145 -235h-300q0 230 150 365t150 235t-100 100t-100 -100zM500 0h-400q100 100 100 200v100h300v-300z" />
    <glyph glyph-name="at" unicode="@" 
d="M500 300q100 0 200 100v-400h-300q-400 0 -400 400v600q0 400 400 400t400 -400v-500h-400v400h100v100q0 100 -100 100t-100 -100v-600q0 -100 100 -100h100z" />
    <glyph glyph-name="A" unicode="A" 
d="M321 100l-18 -100h-503q151 70 228 194l372 1406l372 -1406q77 -124 228 -194h-503l-18 100h-158zM434 360l-34 193l-34 -193h68z" />
    <glyph glyph-name="B" unicode="B" 
d="M500 1000q0 100 -100 100h-100v-250h100q100 0 100 100v50zM400 550h-100v-250h100q100 0 100 100v50q0 100 -100 100zM400 1400q400 0 400 -400v-50q0 -155 -60 -250q60 -95 60 -250v-50q0 -400 -400 -400h-400v1200q0 100 -100 200h500z" />
    <glyph glyph-name="C" unicode="C" 
d="M800 1000v-200h-400q100 100 100 200t-100 100t-100 -100v-600q0 -100 100 -100t100 100t-100 200h400v-200q0 -400 -400 -400t-400 400v600q0 400 400 400t400 -400z" />
    <glyph glyph-name="D" unicode="D" 
d="M400 1400q400 0 400 -400v-600q0 -400 -400 -400h-400v1200q0 100 -100 200h500zM500 1000q0 100 -100 100h-100v-800h100q100 0 100 100v600z" />
    <glyph glyph-name="E" unicode="E" horiz-adv-x="800" 
d="M500 300q100 0 200 100v-400h-700v1200q0 100 -100 200h800v-400q-100 100 -200 100h-200v-250h100q100 0 200 100v-500q-100 100 -300 100v-250h200z" />
    <glyph glyph-name="F" unicode="F" horiz-adv-x="800" 
d="M300 200q0 -100 100 -200h-400v1200q0 100 -100 200h800v-400q-100 100 -200 100h-200v-250h100q100 0 200 100v-500q-100 100 -300 100v-350z" />
    <glyph glyph-name="G" unicode="G" 
d="M700 1400v-400q-100 100 -200 100h-100q-100 0 -100 -100v-600q0 -100 100 -100t100 100v200q0 100 -100 200h400v-400q0 -400 -400 -400t-400 400v600q0 400 400 400h300z" />
    <glyph glyph-name="H" unicode="H" 
d="M0 1400h400q-100 -100 -100 -200v-350h200v550h400q-100 -100 -100 -200v-1200h-400q100 100 100 200v350h-200v-550h-400q100 100 100 200v1200z" />
    <glyph glyph-name="I" unicode="I" horiz-adv-x="400" 
d="M300 0h-400q100 100 100 200v1200h400q-100 -100 -100 -200v-1200z" />
    <glyph glyph-name="J" unicode="J" 
d="M500 1100q-100 0 -200 -100v400h500v-1000q0 -400 -400 -400t-400 400v200h400q-100 -100 -100 -200t100 -100t100 100v700z" />
    <glyph glyph-name="K" unicode="K" 
d="M0 1200q0 100 -100 200h400v-386l217 386h463q-151 -70 -228 -194l-200 -359l220 -653q77 -124 228 -194h-483l-217 615v-415q0 -100 100 -200h-400v1200z" />
    <glyph glyph-name="L" unicode="L" horiz-adv-x="700" 
d="M0 1400h400q-100 -100 -100 -200v-900h100q100 0 200 100v-400h-600v1400z" />
    <glyph glyph-name="M" unicode="M" horiz-adv-x="1100" 
d="M300 200q0 -100 100 -200h-400v1200q0 100 -100 200h400l200 -700l200 700h400q-100 -100 -100 -200v-1200h-400q100 100 100 200v500l-200 -700l-200 700v-500z" />
    <glyph glyph-name="N" unicode="N" 
d="M500 1200q0 100 -100 200h400v-1200q0 -100 100 -200h-400l-200 700v-500q0 -100 100 -200h-400v1200q0 100 -100 200h400l200 -700v500z" />
    <glyph glyph-name="O" unicode="O" 
d="M400 1100q-100 0 -100 -100v-600q0 -100 100 -100t100 100v600q0 100 -100 100zM0 1000q0 400 400 400t400 -400v-600q0 -400 -400 -400t-400 400v600z" />
    <glyph glyph-name="P" unicode="P" 
d="M400 1400q400 0 400 -400v-200q0 -400 -400 -400h-100v-200q0 -100 100 -200h-400v1200q0 100 -100 200h500zM500 1000q0 100 -100 100h-100v-400h100q100 0 100 100v200z" />
    <glyph glyph-name="Q" unicode="Q" 
d="M400 1100q-100 0 -100 -100v-600q0 -100 100 -100t100 100v600q0 100 -100 100zM0 1000q0 400 400 400t400 -400v-600q0 -193 -93 -293l65 -113q77 -124 228 -194h-463l-115 200h-22q-400 0 -400 400v600z" />
    <glyph glyph-name="R" unicode="R" 
d="M500 1000q0 100 -100 100h-100v-400h100q100 0 100 100v200zM400 1400q400 0 400 -400v-200q0 -275 -190 -361l142 -245q77 -124 228 -194h-463l-217 377v-177q0 -100 100 -200h-400v1200q0 100 -100 200h500z" />
    <glyph glyph-name="S" unicode="S" 
d="M800 1000v-100h-400l100 100q0 100 -100 100t-100 -100t245 -215t255 -385q0 -400 -400 -400t-400 400v100h400l-100 -100q0 -100 100 -100t100 100t-250 215t-250 385q0 400 400 400t400 -400z" />
    <glyph glyph-name="T" unicode="T" 
d="M800 1400v-400q-100 100 -200 100h-50v-900q0 -100 100 -200h-500q100 100 100 200v900h-50q-100 0 -200 -100v400h800z" />
    <glyph glyph-name="U" unicode="U" 
d="M0 1200q0 100 -100 200h400v-1000q0 -100 100 -100t100 100v800q0 100 -100 200h400v-1000q0 -400 -400 -400t-400 400v800z" />
    <glyph glyph-name="V" unicode="V" 
d="M772 1206l-372 -1406l-372 1406q-77 124 -228 194h483l117 -413l117 413h483q-151 -70 -228 -194z" />
    <glyph glyph-name="W" unicode="W" horiz-adv-x="1300" 
d="M683 1400l117 -413l117 413h483q-151 -70 -228 -194l-372 -1406l-200 756l-200 -756l-372 1406q-77 124 -228 194h483l117 -413l79 280q-12 66 -109 133h313z" />
    <glyph glyph-name="X" unicode="X" horiz-adv-x="800" 
d="M505 700l167 -506q77 -124 228 -194h-473l-77 233l-77 -233h-473q151 70 228 194l167 506l-167 506q-77 124 -228 194h473l77 -233l77 233h473q-151 -70 -228 -194z" />
    <glyph glyph-name="Y" unicode="Y" horiz-adv-x="800" 
d="M200 699l-172 507q-77 124 -228 194h463l87 -257l87 257h463q-151 -70 -228 -194l-172 -507v-499q0 -100 100 -200h-500q100 100 100 200v499z" />
    <glyph glyph-name="Z" unicode="Z" horiz-adv-x="800" 
d="M200 1100q-100 0 -200 -100v400h900q-151 -70 -228 -194l-300 -906h128q100 0 200 100v-400h-900q151 70 228 194l300 906h-128z" />
    <glyph glyph-name="bracketleft" unicode="[" horiz-adv-x="700" 
d="M400 200q100 0 200 100v-400h-600v1400q0 100 -100 200h700v-400q-100 100 -200 100h-100v-1000h100z" />
    <glyph glyph-name="backslash" unicode="\" horiz-adv-x="800" 
d="M672 194q77 -124 228 -194h-473l-399 1206q-77 124 -228 194h473z" />
    <glyph glyph-name="bracketright" unicode="]" horiz-adv-x="700" 
d="M200 200h100v1000h-100q-100 0 -200 -100v400h700q-100 -100 -100 -200v-1400h-600v400q100 -100 200 -100z" />
    <glyph glyph-name="asciicircum" unicode="^" horiz-adv-x="400" 
d="M300 1100l-400 -300q100 100 100 200v400h300v-300z" />
    <glyph glyph-name="underscore" unicode="_" horiz-adv-x="800" 
d="M500 300q100 0 200 100v-400h-700v400q100 -100 200 -100h300z" />
    <glyph glyph-name="grave" unicode="`" horiz-adv-x="400" 
d="M300 1100l-400 -300q100 100 100 200v400h300v-300z" />
    <glyph glyph-name="a" unicode="a" 
d="M321 100l-18 -100h-503q151 70 228 194l372 1406l372 -1406q77 -124 228 -194h-503l-18 100h-158zM434 360l-34 193l-34 -193h68z" />
    <glyph glyph-name="b" unicode="b" 
d="M500 1000q0 100 -100 100h-100v-250h100q100 0 100 100v50zM400 550h-100v-250h100q100 0 100 100v50q0 100 -100 100zM400 1400q400 0 400 -400v-50q0 -155 -60 -250q60 -95 60 -250v-50q0 -400 -400 -400h-400v1200q0 100 -100 200h500z" />
    <glyph glyph-name="c" unicode="c" 
d="M800 1000v-200h-400q100 100 100 200t-100 100t-100 -100v-600q0 -100 100 -100t100 100t-100 200h400v-200q0 -400 -400 -400t-400 400v600q0 400 400 400t400 -400z" />
    <glyph glyph-name="d" unicode="d" 
d="M400 1400q400 0 400 -400v-600q0 -400 -400 -400h-400v1200q0 100 -100 200h500zM500 1000q0 100 -100 100h-100v-800h100q100 0 100 100v600z" />
    <glyph glyph-name="e" unicode="e" horiz-adv-x="800" 
d="M500 300q100 0 200 100v-400h-700v1200q0 100 -100 200h800v-400q-100 100 -200 100h-200v-250h100q100 0 200 100v-500q-100 100 -300 100v-250h200z" />
    <glyph glyph-name="f" unicode="f" horiz-adv-x="800" 
d="M300 200q0 -100 100 -200h-400v1200q0 100 -100 200h800v-400q-100 100 -200 100h-200v-250h100q100 0 200 100v-500q-100 100 -300 100v-350z" />
    <glyph glyph-name="g" unicode="g" 
d="M700 1400v-400q-100 100 -200 100h-100q-100 0 -100 -100v-600q0 -100 100 -100t100 100v200q0 100 -100 200h400v-400q0 -400 -400 -400t-400 400v600q0 400 400 400h300z" />
    <glyph glyph-name="h" unicode="h" 
d="M0 1400h400q-100 -100 -100 -200v-350h200v550h400q-100 -100 -100 -200v-1200h-400q100 100 100 200v350h-200v-550h-400q100 100 100 200v1200z" />
    <glyph glyph-name="i" unicode="i" horiz-adv-x="400" 
d="M300 0h-400q100 100 100 200v1200h400q-100 -100 -100 -200v-1200z" />
    <glyph glyph-name="j" unicode="j" 
d="M500 1100q-100 0 -200 -100v400h500v-1000q0 -400 -400 -400t-400 400v200h400q-100 -100 -100 -200t100 -100t100 100v700z" />
    <glyph glyph-name="k" unicode="k" 
d="M0 1200q0 100 -100 200h400v-386l217 386h463q-151 -70 -228 -194l-200 -359l220 -653q77 -124 228 -194h-483l-217 615v-415q0 -100 100 -200h-400v1200z" />
    <glyph glyph-name="l" unicode="l" horiz-adv-x="700" 
d="M0 1400h400q-100 -100 -100 -200v-900h100q100 0 200 100v-400h-600v1400z" />
    <glyph glyph-name="m" unicode="m" horiz-adv-x="1100" 
d="M300 200q0 -100 100 -200h-400v1200q0 100 -100 200h400l200 -700l200 700h400q-100 -100 -100 -200v-1200h-400q100 100 100 200v500l-200 -700l-200 700v-500z" />
    <glyph glyph-name="n" unicode="n" 
d="M500 1200q0 100 -100 200h400v-1200q0 -100 100 -200h-400l-200 700v-500q0 -100 100 -200h-400v1200q0 100 -100 200h400l200 -700v500z" />
    <glyph glyph-name="o" unicode="o" 
d="M400 1100q-100 0 -100 -100v-600q0 -100 100 -100t100 100v600q0 100 -100 100zM0 1000q0 400 400 400t400 -400v-600q0 -400 -400 -400t-400 400v600z" />
    <glyph glyph-name="p" unicode="p" 
d="M400 1400q400 0 400 -400v-200q0 -400 -400 -400h-100v-200q0 -100 100 -200h-400v1200q0 100 -100 200h500zM500 1000q0 100 -100 100h-100v-400h100q100 0 100 100v200z" />
    <glyph glyph-name="q" unicode="q" 
d="M400 1100q-100 0 -100 -100v-600q0 -100 100 -100t100 100v600q0 100 -100 100zM0 1000q0 400 400 400t400 -400v-600q0 -193 -93 -293l65 -113q77 -124 228 -194h-463l-115 200h-22q-400 0 -400 400v600z" />
    <glyph glyph-name="r" unicode="r" 
d="M500 1000q0 100 -100 100h-100v-400h100q100 0 100 100v200zM400 1400q400 0 400 -400v-200q0 -275 -190 -361l142 -245q77 -124 228 -194h-463l-217 377v-177q0 -100 100 -200h-400v1200q0 100 -100 200h500z" />
    <glyph glyph-name="s" unicode="s" 
d="M800 1000v-100h-400l100 100q0 100 -100 100t-100 -100t245 -215t255 -385q0 -400 -400 -400t-400 400v100h400l-100 -100q0 -100 100 -100t100 100t-250 215t-250 385q0 400 400 400t400 -400z" />
    <glyph glyph-name="t" unicode="t" 
d="M800 1400v-400q-100 100 -200 100h-50v-900q0 -100 100 -200h-500q100 100 100 200v900h-50q-100 0 -200 -100v400h800z" />
    <glyph glyph-name="u" unicode="u" 
d="M0 1200q0 100 -100 200h400v-1000q0 -100 100 -100t100 100v800q0 100 -100 200h400v-1000q0 -400 -400 -400t-400 400v800z" />
    <glyph glyph-name="v" unicode="v" 
d="M772 1206l-372 -1406l-372 1406q-77 124 -228 194h483l117 -413l117 413h483q-151 -70 -228 -194z" />
    <glyph glyph-name="w" unicode="w" horiz-adv-x="1300" 
d="M683 1400l117 -413l117 413h483q-151 -70 -228 -194l-372 -1406l-200 756l-200 -756l-372 1406q-77 124 -228 194h483l117 -413l79 280q-12 66 -109 133h313z" />
    <glyph glyph-name="x" unicode="x" horiz-adv-x="800" 
d="M505 700l167 -506q77 -124 228 -194h-473l-77 233l-77 -233h-473q151 70 228 194l167 506l-167 506q-77 124 -228 194h473l77 -233l77 233h473q-151 -70 -228 -194z" />
    <glyph glyph-name="y" unicode="y" horiz-adv-x="800" 
d="M200 699l-172 507q-77 124 -228 194h463l87 -257l87 257h463q-151 -70 -228 -194l-172 -507v-499q0 -100 100 -200h-500q100 100 100 200v499z" />
    <glyph glyph-name="z" unicode="z" horiz-adv-x="800" 
d="M200 1100q-100 0 -200 -100v400h900q-151 -70 -228 -194l-300 -906h128q100 0 200 100v-400h-900q151 70 228 194l300 906h-128z" />
    <glyph glyph-name="braceleft" unicode="{" horiz-adv-x="800" 
d="M200 850v350q0 300 300 300h200v-400q-100 100 -200 100v-1000q100 0 200 100v-400h-200q-300 0 -300 300v350h-200v300h200z" />
    <glyph glyph-name="bar" unicode="|" horiz-adv-x="400" 
d="M300 0h-400q100 100 100 200v1200h400q-100 -100 -100 -200v-1200z" />
    <glyph glyph-name="braceright" unicode="}" horiz-adv-x="800" 
d="M500 850h200v-300h-200v-350q0 -300 -300 -300h-200v400q100 -100 200 -100v1000q-100 0 -200 -100v400h200q300 0 300 -300v-350z" />
    <glyph glyph-name="asciitilde" unicode="~" horiz-adv-x="700" 
d="M400 850q100 0 200 100v-500q-100 100 -300 100t-300 -100v500q100 -100 200 -100h200z" />
    </font>
</defs>
</svg>
